<?xml version="1.0" encoding="UTF-8" standalone="no"?>
<svg
   xmlns:dc="http://purl.org/dc/elements/1.1/"
   xmlns:cc="http://creativecommons.org/ns#"
   xmlns:rdf="http://www.w3.org/1999/02/22-rdf-syntax-ns#"
   xmlns:svg="http://www.w3.org/2000/svg"
   xmlns="http://www.w3.org/2000/svg"
   version="1.1"
   id="svg2"
   xml:space="preserve"
   width="381.44"
   height="185.27998"
   viewBox="0 0 381.44 185.27998"><metadata
     id="metadata8"><rdf:RDF><cc:Work
         rdf:about=""><dc:format>image/svg+xml</dc:format><dc:type
           rdf:resource="http://purl.org/dc/dcmitype/StillImage" /><dc:title></dc:title></cc:Work></rdf:RDF></metadata><defs
     id="defs6"><clipPath
       clipPathUnits="userSpaceOnUse"
       id="clipPath18"><path
         d="M 0,0 H 1191.667 V 573.434 H 0 Z"
         clip-rule="evenodd"
         id="path16" /></clipPath></defs><g
     id="g10"
     transform="matrix(1.3333333,0,0,-1.3333333,0,185.27999)"><g
       id="g12"
       transform="matrix(0.24,0,0,-0.24,0,138.95999)"><g
         id="g14"
         clip-path="url(#clipPath18)"><g
           id="g20"
           transform="matrix(2.9866331,0,0,2.9866331,1.4933165,1.4933165)"><g
             id="g22"
             transform="translate(26.5,21)"><path
               d="m 0,0 h 345 c 0.835,0 1.668,0.041 2.499,0.123 0.832,0.082 1.657,0.204 2.476,0.367 0.819,0.163 1.628,0.366 2.427,0.608 0.799,0.242 1.585,0.523 2.356,0.843 0.772,0.32 1.526,0.676 2.263,1.07 0.736,0.394 1.452,0.823 2.146,1.287 0.694,0.464 1.364,0.96 2.01,1.49 0.646,0.53 1.264,1.09 1.854,1.681 0.591,0.59 1.151,1.208 1.681,1.854 0.53,0.646 1.026,1.316 1.49,2.01 0.464,0.694 0.893,1.41 1.287,2.146 0.394,0.737 0.75,1.491 1.07,2.263 0.32,0.771 0.601,1.557 0.843,2.356 0.242,0.799 0.445,1.608 0.608,2.427 0.163,0.819 0.285,1.644 0.367,2.476 0.082,0.831 0.123,1.664 0.123,2.499 v 119 c 0,0.835 -0.041,1.668 -0.123,2.499 -0.082,0.832 -0.204,1.657 -0.367,2.476 -0.163,0.819 -0.366,1.628 -0.608,2.427 -0.242,0.799 -0.523,1.585 -0.843,2.356 -0.32,0.772 -0.676,1.526 -1.07,2.263 -0.394,0.736 -0.823,1.452 -1.287,2.146 -0.464,0.694 -0.96,1.364 -1.49,2.01 -0.53,0.646 -1.09,1.264 -1.681,1.854 -0.59,0.591 -1.208,1.151 -1.854,1.681 -0.646,0.53 -1.316,1.026 -2.01,1.49 -0.694,0.464 -1.41,0.893 -2.146,1.287 -0.737,0.394 -1.491,0.75 -2.263,1.07 -0.771,0.319 -1.557,0.601 -2.356,0.843 -0.799,0.242 -1.608,0.445 -2.427,0.608 -0.819,0.163 -1.644,0.285 -2.476,0.367 C 346.668,169.959 345.835,170 345,170 H 0 c -0.835,0 -1.668,-0.041 -2.499,-0.123 -0.832,-0.082 -1.657,-0.204 -2.476,-0.367 -0.819,-0.163 -1.628,-0.366 -2.427,-0.608 -0.799,-0.242 -1.585,-0.524 -2.356,-0.843 -0.772,-0.32 -1.526,-0.676 -2.263,-1.07 -0.736,-0.394 -1.452,-0.823 -2.146,-1.287 -0.694,-0.464 -1.364,-0.96 -2.01,-1.49 -0.646,-0.53 -1.264,-1.09 -1.854,-1.681 -0.591,-0.59 -1.151,-1.208 -1.681,-1.854 -0.53,-0.646 -1.026,-1.316 -1.49,-2.01 -0.464,-0.694 -0.893,-1.41 -1.287,-2.146 -0.394,-0.737 -0.75,-1.491 -1.07,-2.263 -0.32,-0.771 -0.601,-1.557 -0.843,-2.356 -0.242,-0.799 -0.445,-1.608 -0.608,-2.427 -0.163,-0.819 -0.285,-1.644 -0.367,-2.476 -0.082,-0.831 -0.123,-1.664 -0.123,-2.499 v -119 c 0,-0.835 0.041,-1.668 0.123,-2.499 0.082,-0.832 0.204,-1.657 0.367,-2.476 0.163,-0.819 0.366,-1.628 0.608,-2.427 0.242,-0.799 0.523,-1.585 0.843,-2.356 0.32,-0.772 0.676,-1.526 1.07,-2.263 0.394,-0.736 0.823,-1.452 1.287,-2.146 0.464,-0.694 0.96,-1.364 1.49,-2.01 0.53,-0.646 1.09,-1.264 1.681,-1.854 0.59,-0.591 1.208,-1.151 1.854,-1.681 0.646,-0.53 1.316,-1.026 2.01,-1.49 0.694,-0.464 1.41,-0.893 2.146,-1.287 0.737,-0.394 1.491,-0.75 2.263,-1.07 C -8.987,1.621 -8.201,1.34 -7.402,1.098 -6.603,0.856 -5.794,0.653 -4.975,0.49 -4.156,0.327 -3.331,0.205 -2.499,0.123 -1.668,0.041 -0.835,0 0,0 Z"
               style="fill:#dae8fc;fill-opacity:1;fill-rule:nonzero;stroke:none"
               id="path24" /></g><g
             id="g26"
             transform="translate(26.5,21)"><path
               d="m 0,0 h 345 c 0.835,0 1.668,0.041 2.499,0.123 0.832,0.082 1.657,0.204 2.476,0.367 0.819,0.163 1.628,0.366 2.427,0.608 0.799,0.242 1.585,0.523 2.356,0.843 0.772,0.32 1.526,0.676 2.263,1.07 0.736,0.394 1.452,0.823 2.146,1.287 0.694,0.464 1.364,0.96 2.01,1.49 0.646,0.53 1.264,1.09 1.854,1.681 0.591,0.59 1.151,1.208 1.681,1.854 0.53,0.646 1.026,1.316 1.49,2.01 0.464,0.694 0.893,1.41 1.287,2.146 0.394,0.737 0.75,1.491 1.07,2.263 0.32,0.771 0.601,1.557 0.843,2.356 0.242,0.799 0.445,1.608 0.608,2.427 0.163,0.819 0.285,1.644 0.367,2.476 0.082,0.831 0.123,1.664 0.123,2.499 v 119 c 0,0.835 -0.041,1.668 -0.123,2.499 -0.082,0.832 -0.204,1.657 -0.367,2.476 -0.163,0.819 -0.366,1.628 -0.608,2.427 -0.242,0.799 -0.523,1.585 -0.843,2.356 -0.32,0.772 -0.676,1.526 -1.07,2.263 -0.394,0.736 -0.823,1.452 -1.287,2.146 -0.464,0.694 -0.96,1.364 -1.49,2.01 -0.53,0.646 -1.09,1.264 -1.681,1.854 -0.59,0.591 -1.208,1.151 -1.854,1.681 -0.646,0.53 -1.316,1.026 -2.01,1.49 -0.694,0.464 -1.41,0.893 -2.146,1.287 -0.737,0.394 -1.491,0.75 -2.263,1.07 -0.771,0.319 -1.557,0.601 -2.356,0.843 -0.799,0.242 -1.608,0.445 -2.427,0.608 -0.819,0.163 -1.644,0.285 -2.476,0.367 C 346.668,169.959 345.835,170 345,170 H 0 c -0.835,0 -1.668,-0.041 -2.499,-0.123 -0.832,-0.082 -1.657,-0.204 -2.476,-0.367 -0.819,-0.163 -1.628,-0.366 -2.427,-0.608 -0.799,-0.242 -1.585,-0.524 -2.356,-0.843 -0.772,-0.32 -1.526,-0.676 -2.263,-1.07 -0.736,-0.394 -1.452,-0.823 -2.146,-1.287 -0.694,-0.464 -1.364,-0.96 -2.01,-1.49 -0.646,-0.53 -1.264,-1.09 -1.854,-1.681 -0.591,-0.59 -1.151,-1.208 -1.681,-1.854 -0.53,-0.646 -1.026,-1.316 -1.49,-2.01 -0.464,-0.694 -0.893,-1.41 -1.287,-2.146 -0.394,-0.737 -0.75,-1.491 -1.07,-2.263 -0.32,-0.771 -0.601,-1.557 -0.843,-2.356 -0.242,-0.799 -0.445,-1.608 -0.608,-2.427 -0.163,-0.819 -0.285,-1.644 -0.367,-2.476 -0.082,-0.831 -0.123,-1.664 -0.123,-2.499 v -119 c 0,-0.835 0.041,-1.668 0.123,-2.499 0.082,-0.832 0.204,-1.657 0.367,-2.476 0.163,-0.819 0.366,-1.628 0.608,-2.427 0.242,-0.799 0.523,-1.585 0.843,-2.356 0.32,-0.772 0.676,-1.526 1.07,-2.263 0.394,-0.736 0.823,-1.452 1.287,-2.146 0.464,-0.694 0.96,-1.364 1.49,-2.01 0.53,-0.646 1.09,-1.264 1.681,-1.854 0.59,-0.591 1.208,-1.151 1.854,-1.681 0.646,-0.53 1.316,-1.026 2.01,-1.49 0.694,-0.464 1.41,-0.893 2.146,-1.287 0.737,-0.394 1.491,-0.75 2.263,-1.07 C -8.987,1.621 -8.201,1.34 -7.402,1.098 -6.603,0.856 -5.794,0.653 -4.975,0.49 -4.156,0.327 -3.331,0.205 -2.499,0.123 -1.668,0.041 -0.835,0 0,0 Z"
               style="fill:none;stroke:#6c8ebf;stroke-width:1;stroke-linecap:butt;stroke-linejoin:miter;stroke-miterlimit:4;stroke-dasharray:none;stroke-opacity:1"
               id="path28" /></g><path
             d="M 141,1 H 261 V 41 H 141 Z"
             style="fill:#fff2cc;fill-opacity:1;fill-rule:nonzero;stroke:none"
             id="path30" /><path
             d="M 141,1 H 261 V 41 H 141 Z"
             style="fill:none;stroke:#d6b656;stroke-width:1;stroke-linecap:butt;stroke-linejoin:miter;stroke-miterlimit:4;stroke-dasharray:none;stroke-opacity:1"
             id="path32" /><g
             id="g34"
             transform="matrix(1.395105,0,0,-1.395105,-0.5,193.36378)"><text
               transform="matrix(1,0,0,-1,105.3572,121.0402)"
               style="font-variant:normal;font-weight:bold;font-size:10.752px;font-family:'Courier New';-inkscape-font-specification:CourierNewPS-BoldMT;writing-mode:lr-tb;fill:#000000;fill-opacity:1;fill-rule:nonzero;stroke:none"
               id="text38"><tspan
                 x="0 6.45225 12.9045 19.35675 25.809 32.26125 38.713501 45.165749 51.618 58.070251 64.522499 70.974747"
                 y="0"
                 id="tspan36">ctxworkshift</tspan></text><g
               id="g40"
               transform="matrix(0.7167919,0,0,-0.7167919,0.358396,138.60159)"><g
                 id="g42"
                 transform="translate(157,116)"><path
                   d="m 0,0 c 0,1.801 -0.088,3.598 -0.265,5.391 -0.176,1.793 -0.44,3.572 -0.792,5.339 -0.351,1.767 -0.788,3.512 -1.311,5.236 -0.523,1.723 -1.129,3.417 -1.819,5.082 -0.689,1.664 -1.458,3.29 -2.307,4.879 -0.849,1.588 -1.774,3.132 -2.775,4.629 -1.001,1.498 -2.073,2.943 -3.215,4.336 -1.143,1.392 -2.351,2.725 -3.625,3.999 -1.274,1.274 -2.607,2.482 -3.999,3.625 -1.393,1.142 -2.838,2.214 -4.336,3.215 -1.497,1.001 -3.041,1.926 -4.629,2.775 -1.589,0.849 -3.215,1.618 -4.879,2.307 -1.665,0.69 -3.359,1.296 -5.082,1.819 -1.724,0.523 -3.469,0.96 -5.236,1.311 -1.767,0.352 -3.546,0.616 -5.339,0.792 C -51.402,54.912 -53.199,55 -55,55 c -1.801,0 -3.598,-0.088 -5.391,-0.265 -1.793,-0.176 -3.572,-0.44 -5.339,-0.792 -1.767,-0.351 -3.512,-0.788 -5.236,-1.311 -1.723,-0.523 -3.417,-1.129 -5.082,-1.819 -1.664,-0.689 -3.29,-1.458 -4.879,-2.307 -1.588,-0.849 -3.132,-1.774 -4.629,-2.775 -1.498,-1.001 -2.943,-2.073 -4.336,-3.215 -1.392,-1.143 -2.725,-2.351 -3.999,-3.625 -1.274,-1.274 -2.482,-2.607 -3.625,-3.999 -1.142,-1.393 -2.214,-2.838 -3.215,-4.336 -1.001,-1.497 -1.926,-3.041 -2.775,-4.629 -0.849,-1.589 -1.618,-3.215 -2.307,-4.879 -0.69,-1.665 -1.296,-3.359 -1.819,-5.082 -0.523,-1.724 -0.96,-3.469 -1.311,-5.236 -0.352,-1.767 -0.616,-3.546 -0.792,-5.339 C -109.912,3.598 -110,1.801 -110,0 c 0,-1.801 0.088,-3.598 0.265,-5.391 0.176,-1.793 0.44,-3.572 0.792,-5.339 0.351,-1.767 0.788,-3.512 1.311,-5.236 0.523,-1.723 1.129,-3.417 1.819,-5.082 0.689,-1.664 1.458,-3.29 2.307,-4.879 0.849,-1.588 1.774,-3.132 2.775,-4.629 1.001,-1.498 2.073,-2.943 3.215,-4.336 1.143,-1.392 2.351,-2.725 3.625,-3.999 1.274,-1.274 2.607,-2.482 3.999,-3.625 1.393,-1.142 2.838,-2.214 4.336,-3.215 1.497,-1.001 3.041,-1.926 4.629,-2.775 1.589,-0.849 3.215,-1.618 4.879,-2.307 1.665,-0.69 3.359,-1.296 5.082,-1.819 1.724,-0.523 3.469,-0.96 5.236,-1.311 1.767,-0.352 3.546,-0.616 5.339,-0.792 1.793,-0.177 3.59,-0.265 5.391,-0.265 1.801,0 3.598,0.088 5.391,0.265 1.793,0.176 3.572,0.44 5.339,0.792 1.767,0.351 3.512,0.788 5.236,1.311 1.723,0.523 3.417,1.129 5.082,1.819 1.664,0.689 3.29,1.458 4.879,2.307 1.588,0.849 3.132,1.774 4.629,2.775 1.498,1.001 2.943,2.073 4.336,3.215 1.392,1.143 2.725,2.351 3.999,3.625 1.274,1.274 2.482,2.607 3.625,3.999 1.142,1.393 2.214,2.838 3.215,4.336 1.001,1.497 1.926,3.041 2.775,4.629 0.849,1.589 1.618,3.215 2.307,4.879 0.69,1.665 1.296,3.359 1.819,5.082 0.523,1.724 0.96,3.469 1.311,5.236 0.352,1.767 0.616,3.546 0.792,5.339 C -0.088,-3.598 0,-1.801 0,0 Z"
                   style="fill:#e1d5e7;fill-opacity:1;fill-rule:nonzero;stroke:none"
                   id="path44" /></g></g><g
               id="g46"
               transform="matrix(0.7167919,0,0,-0.7167919,0.358396,138.60159)"><g
                 id="g48"
                 transform="translate(157,116)"><path
                   d="m 0,0 c 0,1.801 -0.088,3.598 -0.265,5.391 -0.176,1.793 -0.44,3.572 -0.792,5.339 -0.351,1.767 -0.788,3.512 -1.311,5.236 -0.523,1.723 -1.129,3.417 -1.819,5.082 -0.689,1.664 -1.458,3.29 -2.307,4.879 -0.849,1.588 -1.774,3.132 -2.775,4.629 -1.001,1.498 -2.073,2.943 -3.215,4.336 -1.143,1.392 -2.351,2.725 -3.625,3.999 -1.274,1.274 -2.607,2.482 -3.999,3.625 -1.393,1.142 -2.838,2.214 -4.336,3.215 -1.497,1.001 -3.041,1.926 -4.629,2.775 -1.589,0.849 -3.215,1.618 -4.879,2.307 -1.665,0.69 -3.359,1.296 -5.082,1.819 -1.724,0.523 -3.469,0.96 -5.236,1.311 -1.767,0.352 -3.546,0.616 -5.339,0.792 C -51.402,54.912 -53.199,55 -55,55 c -1.801,0 -3.598,-0.088 -5.391,-0.265 -1.793,-0.176 -3.572,-0.44 -5.339,-0.792 -1.767,-0.351 -3.512,-0.788 -5.236,-1.311 -1.723,-0.523 -3.417,-1.129 -5.082,-1.819 -1.664,-0.689 -3.29,-1.458 -4.879,-2.307 -1.588,-0.849 -3.132,-1.774 -4.629,-2.775 -1.498,-1.001 -2.943,-2.073 -4.336,-3.215 -1.392,-1.143 -2.725,-2.351 -3.999,-3.625 -1.274,-1.274 -2.482,-2.607 -3.625,-3.999 -1.142,-1.393 -2.214,-2.838 -3.215,-4.336 -1.001,-1.497 -1.926,-3.041 -2.775,-4.629 -0.849,-1.589 -1.618,-3.215 -2.307,-4.879 -0.69,-1.665 -1.296,-3.359 -1.819,-5.082 -0.523,-1.724 -0.96,-3.469 -1.311,-5.236 -0.352,-1.767 -0.616,-3.546 -0.792,-5.339 C -109.912,3.598 -110,1.801 -110,0 c 0,-1.801 0.088,-3.598 0.265,-5.391 0.176,-1.793 0.44,-3.572 0.792,-5.339 0.351,-1.767 0.788,-3.512 1.311,-5.236 0.523,-1.723 1.129,-3.417 1.819,-5.082 0.689,-1.664 1.458,-3.29 2.307,-4.879 0.849,-1.588 1.774,-3.132 2.775,-4.629 1.001,-1.498 2.073,-2.943 3.215,-4.336 1.143,-1.392 2.351,-2.725 3.625,-3.999 1.274,-1.274 2.607,-2.482 3.999,-3.625 1.393,-1.142 2.838,-2.214 4.336,-3.215 1.497,-1.001 3.041,-1.926 4.629,-2.775 1.589,-0.849 3.215,-1.618 4.879,-2.307 1.665,-0.69 3.359,-1.296 5.082,-1.819 1.724,-0.523 3.469,-0.96 5.236,-1.311 1.767,-0.352 3.546,-0.616 5.339,-0.792 1.793,-0.177 3.59,-0.265 5.391,-0.265 1.801,0 3.598,0.088 5.391,0.265 1.793,0.176 3.572,0.44 5.339,0.792 1.767,0.351 3.512,0.788 5.236,1.311 1.723,0.523 3.417,1.129 5.082,1.819 1.664,0.689 3.29,1.458 4.879,2.307 1.588,0.849 3.132,1.774 4.629,2.775 1.498,1.001 2.943,2.073 4.336,3.215 1.392,1.143 2.725,2.351 3.999,3.625 1.274,1.274 2.482,2.607 3.625,3.999 1.142,1.393 2.214,2.838 3.215,4.336 1.001,1.497 1.926,3.041 2.775,4.629 0.849,1.589 1.618,3.215 2.307,4.879 0.69,1.665 1.296,3.359 1.819,5.082 0.523,1.724 0.96,3.469 1.311,5.236 0.352,1.767 0.616,3.546 0.792,5.339 C -0.088,-3.598 0,-1.801 0,0 Z"
                   style="fill:none;stroke:#b85450;stroke-width:1;stroke-linecap:butt;stroke-linejoin:miter;stroke-miterlimit:4;stroke-dasharray:none;stroke-opacity:1"
                   id="path50" /></g></g><text
               transform="matrix(1,0,0,-1,46.0091,59.3961)"
               style="font-variant:normal;font-weight:bold;font-size:10.0352px;font-family:'Courier New';-inkscape-font-specification:CourierNewPS-BoldMT;writing-mode:lr-tb;fill:#000000;fill-opacity:1;fill-rule:nonzero;stroke:none"
               id="text56"><tspan
                 x="0 6.0221 12.0442 18.066299 24.0884 30.1105 36.132599 42.154701 48.1768"
                 y="0"
                 id="tspan52">workshift</tspan><tspan
                 x="12.050841 18.072941 24.095041 30.117142 36.13924"
                 y="12.9024"
                 id="tspan54">actor</tspan></text><g
               id="g58"
               transform="matrix(-0.7167919,0,0,0.7167919,123.64661,47.569022)"><g
                 id="g60"
                 transform="translate(54,41)"><path
                   d="M 0,0 64,22.5 0,45 Z"
                   style="fill:#f8cecc;fill-opacity:1;fill-rule:nonzero;stroke:none"
                   id="path62" /></g></g><g
               id="g64"
               transform="matrix(-0.7167919,0,0,0.7167919,123.64661,47.569022)"><g
                 id="g66"
                 transform="translate(54,41)"><path
                   d="M 0,0 64,22.5 0,45 Z"
                   style="fill:none;stroke:#b85450;stroke-width:1;stroke-linecap:butt;stroke-linejoin:miter;stroke-miterlimit:10;stroke-dasharray:none;stroke-opacity:1"
                   id="path68" /></g></g><g
               id="g70"
               transform="matrix(0.7167919,0,0,-0.7167919,0.358396,138.60159)"><g
                 id="g72"
                 transform="translate(347,116)"><path
                   d="m 0,0 c 0,1.801 -0.088,3.598 -0.265,5.391 -0.176,1.793 -0.44,3.572 -0.792,5.339 -0.351,1.767 -0.788,3.512 -1.311,5.236 -0.523,1.723 -1.129,3.417 -1.819,5.082 -0.689,1.664 -1.458,3.29 -2.307,4.879 -0.85,1.588 -1.774,3.132 -2.775,4.629 -1.001,1.498 -2.073,2.943 -3.215,4.336 -1.143,1.392 -2.351,2.725 -3.625,3.999 -1.274,1.274 -2.607,2.482 -3.999,3.625 -1.393,1.142 -2.838,2.214 -4.336,3.215 -1.497,1.001 -3.041,1.926 -4.629,2.775 -1.589,0.849 -3.215,1.618 -4.879,2.307 -1.665,0.69 -3.359,1.296 -5.082,1.819 -1.724,0.523 -3.469,0.96 -5.236,1.311 -1.767,0.352 -3.546,0.616 -5.339,0.792 C -51.402,54.912 -53.199,55 -55,55 c -1.801,0 -3.598,-0.088 -5.391,-0.265 -1.793,-0.176 -3.572,-0.44 -5.339,-0.792 -1.767,-0.351 -3.512,-0.788 -5.236,-1.311 -1.723,-0.523 -3.417,-1.129 -5.082,-1.819 -1.664,-0.689 -3.29,-1.458 -4.879,-2.307 -1.588,-0.849 -3.132,-1.774 -4.629,-2.775 -1.498,-1.001 -2.943,-2.073 -4.336,-3.215 -1.392,-1.143 -2.725,-2.351 -3.999,-3.625 -1.274,-1.274 -2.482,-2.607 -3.625,-3.999 -1.142,-1.393 -2.214,-2.838 -3.215,-4.336 -1.001,-1.497 -1.926,-3.041 -2.775,-4.629 -0.849,-1.589 -1.618,-3.215 -2.307,-4.879 -0.69,-1.665 -1.296,-3.359 -1.819,-5.082 -0.523,-1.724 -0.96,-3.469 -1.311,-5.236 -0.352,-1.767 -0.616,-3.546 -0.792,-5.339 C -109.912,3.598 -110,1.801 -110,0 c 0,-1.801 0.088,-3.598 0.265,-5.391 0.176,-1.793 0.44,-3.572 0.792,-5.339 0.351,-1.767 0.788,-3.512 1.311,-5.236 0.523,-1.723 1.129,-3.417 1.819,-5.082 0.689,-1.664 1.458,-3.29 2.307,-4.879 0.849,-1.588 1.774,-3.132 2.775,-4.629 1.001,-1.498 2.073,-2.943 3.215,-4.336 1.143,-1.392 2.351,-2.725 3.625,-3.999 1.274,-1.274 2.607,-2.482 3.999,-3.625 1.393,-1.142 2.838,-2.214 4.336,-3.215 1.497,-1.001 3.041,-1.926 4.629,-2.775 1.589,-0.849 3.215,-1.618 4.879,-2.307 1.665,-0.69 3.359,-1.296 5.082,-1.819 1.724,-0.523 3.469,-0.96 5.236,-1.311 1.767,-0.352 3.546,-0.616 5.339,-0.792 1.793,-0.177 3.59,-0.265 5.391,-0.265 1.801,0 3.598,0.088 5.391,0.265 1.793,0.176 3.572,0.44 5.339,0.792 1.767,0.351 3.512,0.788 5.236,1.311 1.723,0.523 3.417,1.129 5.082,1.819 1.664,0.689 3.29,1.458 4.879,2.307 1.588,0.849 3.132,1.774 4.629,2.775 1.498,1.001 2.943,2.073 4.336,3.215 1.392,1.143 2.725,2.351 3.999,3.625 1.274,1.274 2.482,2.607 3.625,3.999 1.142,1.393 2.214,2.838 3.215,4.336 1.001,1.497 1.925,3.041 2.775,4.629 0.849,1.589 1.618,3.215 2.307,4.879 0.69,1.665 1.296,3.359 1.819,5.082 0.523,1.724 0.96,3.469 1.311,5.236 0.352,1.767 0.616,3.546 0.792,5.339 C -0.088,-3.598 0,-1.801 0,0 Z"
                   style="fill:#e1d5e7;fill-opacity:1;fill-rule:nonzero;stroke:none"
                   id="path74" /></g></g><g
               id="g76"
               transform="matrix(0.7167919,0,0,-0.7167919,0.358396,138.60159)"><g
                 id="g78"
                 transform="translate(347,116)"><path
                   d="m 0,0 c 0,1.801 -0.088,3.598 -0.265,5.391 -0.176,1.793 -0.44,3.572 -0.792,5.339 -0.351,1.767 -0.788,3.512 -1.311,5.236 -0.523,1.723 -1.129,3.417 -1.819,5.082 -0.689,1.664 -1.458,3.29 -2.307,4.879 -0.85,1.588 -1.774,3.132 -2.775,4.629 -1.001,1.498 -2.073,2.943 -3.215,4.336 -1.143,1.392 -2.351,2.725 -3.625,3.999 -1.274,1.274 -2.607,2.482 -3.999,3.625 -1.393,1.142 -2.838,2.214 -4.336,3.215 -1.497,1.001 -3.041,1.926 -4.629,2.775 -1.589,0.849 -3.215,1.618 -4.879,2.307 -1.665,0.69 -3.359,1.296 -5.082,1.819 -1.724,0.523 -3.469,0.96 -5.236,1.311 -1.767,0.352 -3.546,0.616 -5.339,0.792 C -51.402,54.912 -53.199,55 -55,55 c -1.801,0 -3.598,-0.088 -5.391,-0.265 -1.793,-0.176 -3.572,-0.44 -5.339,-0.792 -1.767,-0.351 -3.512,-0.788 -5.236,-1.311 -1.723,-0.523 -3.417,-1.129 -5.082,-1.819 -1.664,-0.689 -3.29,-1.458 -4.879,-2.307 -1.588,-0.849 -3.132,-1.774 -4.629,-2.775 -1.498,-1.001 -2.943,-2.073 -4.336,-3.215 -1.392,-1.143 -2.725,-2.351 -3.999,-3.625 -1.274,-1.274 -2.482,-2.607 -3.625,-3.999 -1.142,-1.393 -2.214,-2.838 -3.215,-4.336 -1.001,-1.497 -1.926,-3.041 -2.775,-4.629 -0.849,-1.589 -1.618,-3.215 -2.307,-4.879 -0.69,-1.665 -1.296,-3.359 -1.819,-5.082 -0.523,-1.724 -0.96,-3.469 -1.311,-5.236 -0.352,-1.767 -0.616,-3.546 -0.792,-5.339 C -109.912,3.598 -110,1.801 -110,0 c 0,-1.801 0.088,-3.598 0.265,-5.391 0.176,-1.793 0.44,-3.572 0.792,-5.339 0.351,-1.767 0.788,-3.512 1.311,-5.236 0.523,-1.723 1.129,-3.417 1.819,-5.082 0.689,-1.664 1.458,-3.29 2.307,-4.879 0.849,-1.588 1.774,-3.132 2.775,-4.629 1.001,-1.498 2.073,-2.943 3.215,-4.336 1.143,-1.392 2.351,-2.725 3.625,-3.999 1.274,-1.274 2.607,-2.482 3.999,-3.625 1.393,-1.142 2.838,-2.214 4.336,-3.215 1.497,-1.001 3.041,-1.926 4.629,-2.775 1.589,-0.849 3.215,-1.618 4.879,-2.307 1.665,-0.69 3.359,-1.296 5.082,-1.819 1.724,-0.523 3.469,-0.96 5.236,-1.311 1.767,-0.352 3.546,-0.616 5.339,-0.792 1.793,-0.177 3.59,-0.265 5.391,-0.265 1.801,0 3.598,0.088 5.391,0.265 1.793,0.176 3.572,0.44 5.339,0.792 1.767,0.351 3.512,0.788 5.236,1.311 1.723,0.523 3.417,1.129 5.082,1.819 1.664,0.689 3.29,1.458 4.879,2.307 1.588,0.849 3.132,1.774 4.629,2.775 1.498,1.001 2.943,2.073 4.336,3.215 1.392,1.143 2.725,2.351 3.999,3.625 1.274,1.274 2.482,2.607 3.625,3.999 1.142,1.393 2.214,2.838 3.215,4.336 1.001,1.497 1.925,3.041 2.775,4.629 0.849,1.589 1.618,3.215 2.307,4.879 0.69,1.665 1.296,3.359 1.819,5.082 0.523,1.724 0.96,3.469 1.311,5.236 0.352,1.767 0.616,3.546 0.792,5.339 C -0.088,-3.598 0,-1.801 0,0 Z"
                   style="fill:none;stroke:#b85450;stroke-width:1;stroke-linecap:butt;stroke-linejoin:miter;stroke-miterlimit:4;stroke-dasharray:none;stroke-opacity:1"
                   id="path80" /></g></g><text
               transform="matrix(1,0,0,-1,194.2394,59.3961)"
               style="font-variant:normal;font-weight:bold;font-size:10.0352px;font-family:'Courier New';-inkscape-font-specification:CourierNewPS-BoldMT;writing-mode:lr-tb;fill:#000000;fill-opacity:1;fill-rule:nonzero;stroke:none"
               id="text86"><tspan
                 x="0 6.0221 12.0442 18.066299 24.0884"
                 y="0"
                 id="tspan82">clock</tspan><tspan
                 x="0 6.0221 12.0442 18.066299 24.0884"
                 y="12.9024"
                 id="tspan84">actor</tspan></text><g
               id="g88"
               transform="matrix(-0.7167919,0,0,0.7167919,396.02752,47.569022)"><g
                 id="g90"
                 transform="translate(244,41)"><path
                   d="M 0,0 64,22.5 0,45 Z"
                   style="fill:#f8cecc;fill-opacity:1;fill-rule:nonzero;stroke:none"
                   id="path92" /></g></g><g
               id="g94"
               transform="matrix(-0.7167919,0,0,0.7167919,396.02752,47.569022)"><g
                 id="g96"
                 transform="translate(244,41)"><path
                   d="M 0,0 64,22.5 0,45 Z"
                   style="fill:none;stroke:#b85450;stroke-width:1;stroke-linecap:butt;stroke-linejoin:miter;stroke-miterlimit:10;stroke-dasharray:none;stroke-opacity:1"
                   id="path98" /></g></g></g></g></g></g></g></svg>
