<?xml version="1.0" encoding="UTF-8" standalone="no"?>
<svg
   xmlns:dc="http://purl.org/dc/elements/1.1/"
   xmlns:cc="http://creativecommons.org/ns#"
   xmlns:rdf="http://www.w3.org/1999/02/22-rdf-syntax-ns#"
   xmlns:svg="http://www.w3.org/2000/svg"
   xmlns="http://www.w3.org/2000/svg"
   version="1.1"
   id="svg2"
   xml:space="preserve"
   width="626.56"
   height="254.71999"
   viewBox="0 0 626.56 254.71999"><metadata
     id="metadata8"><rdf:RDF><cc:Work
         rdf:about=""><dc:format>image/svg+xml</dc:format><dc:type
           rdf:resource="http://purl.org/dc/dcmitype/StillImage" /><dc:title></dc:title></cc:Work></rdf:RDF></metadata><defs
     id="defs6"><clipPath
       clipPathUnits="userSpaceOnUse"
       id="clipPath18"><path
         d="M 0,0 H 1958.333 V 790.52 H 0 Z"
         clip-rule="evenodd"
         id="path16" /></clipPath></defs><g
     id="g10"
     transform="matrix(1.3333333,0,0,-1.3333333,0,254.71999)"><g
       id="g12"
       transform="matrix(0.24,0,0,-0.24,0,191.03999)"><g
         id="g14"
         clip-path="url(#clipPath18)"><g
           id="g20"
           transform="matrix(2.9943933,0,0,2.9943933,1.4971967,1.4971967)"><g
             id="g22"
             transform="translate(91,114)"><path
               d="m 0,0 c 0,1.474 -0.072,2.944 -0.217,4.411 -0.144,1.466 -0.36,2.923 -0.648,4.368 -0.287,1.446 -0.645,2.873 -1.073,4.284 -0.428,1.41 -0.923,2.796 -1.487,4.158 -0.564,1.361 -1.194,2.692 -1.889,3.992 -0.694,1.3 -1.451,2.562 -2.27,3.788 -0.819,1.225 -1.696,2.407 -2.631,3.547 -0.935,1.139 -1.923,2.23 -2.965,3.272 -1.042,1.042 -2.133,2.03 -3.272,2.965 -1.14,0.935 -2.322,1.812 -3.547,2.631 -1.226,0.819 -2.488,1.576 -3.788,2.27 -1.3,0.695 -2.631,1.325 -3.992,1.889 -1.362,0.564 -2.748,1.059 -4.158,1.487 -1.411,0.428 -2.838,0.786 -4.284,1.073 -1.445,0.288 -2.902,0.504 -4.368,0.648 C -42.056,44.928 -43.526,45 -45,45 c -1.474,0 -2.944,-0.072 -4.411,-0.217 -1.466,-0.144 -2.923,-0.36 -4.368,-0.648 -1.446,-0.287 -2.873,-0.645 -4.284,-1.073 -1.41,-0.428 -2.796,-0.923 -4.158,-1.487 -1.361,-0.564 -2.692,-1.194 -3.992,-1.889 -1.3,-0.694 -2.562,-1.451 -3.788,-2.27 -1.225,-0.819 -2.407,-1.696 -3.547,-2.631 -1.139,-0.935 -2.23,-1.923 -3.272,-2.965 -1.042,-1.042 -2.03,-2.133 -2.965,-3.272 -0.935,-1.14 -1.812,-2.322 -2.631,-3.547 -0.819,-1.226 -1.576,-2.488 -2.27,-3.788 -0.695,-1.3 -1.325,-2.631 -1.889,-3.992 -0.564,-1.362 -1.059,-2.748 -1.487,-4.158 -0.428,-1.411 -0.786,-2.838 -1.073,-4.284 C -89.423,7.334 -89.639,5.877 -89.783,4.411 -89.928,2.944 -90,1.474 -90,0 c 0,-1.474 0.072,-2.944 0.217,-4.411 0.144,-1.466 0.36,-2.923 0.648,-4.368 0.287,-1.446 0.645,-2.873 1.073,-4.284 0.428,-1.41 0.923,-2.796 1.487,-4.158 0.564,-1.361 1.194,-2.692 1.889,-3.992 0.694,-1.3 1.451,-2.562 2.27,-3.788 0.819,-1.225 1.696,-2.407 2.631,-3.547 0.935,-1.139 1.923,-2.23 2.965,-3.272 1.042,-1.042 2.133,-2.031 3.272,-2.965 1.14,-0.935 2.322,-1.812 3.547,-2.631 1.226,-0.819 2.488,-1.576 3.788,-2.27 1.3,-0.695 2.631,-1.325 3.992,-1.889 1.362,-0.564 2.748,-1.059 4.158,-1.487 1.411,-0.428 2.838,-0.786 4.284,-1.073 1.445,-0.288 2.902,-0.504 4.368,-0.648 1.467,-0.145 2.937,-0.217 4.411,-0.217 1.474,0 2.944,0.072 4.411,0.217 1.466,0.144 2.923,0.36 4.368,0.648 1.446,0.287 2.873,0.645 4.284,1.073 1.41,0.428 2.796,0.923 4.158,1.487 1.361,0.564 2.692,1.194 3.992,1.889 1.3,0.694 2.562,1.451 3.788,2.27 1.225,0.819 2.407,1.696 3.547,2.631 1.139,0.934 2.23,1.923 3.272,2.965 1.042,1.042 2.03,2.133 2.965,3.272 0.935,1.14 1.812,2.322 2.631,3.547 0.819,1.226 1.576,2.488 2.27,3.788 0.695,1.3 1.325,2.631 1.889,3.992 0.564,1.362 1.059,2.748 1.487,4.158 0.428,1.411 0.786,2.838 1.073,4.284 0.288,1.445 0.504,2.902 0.648,4.368 C -0.072,-2.944 0,-1.474 0,0 Z"
               style="fill:#fff2cc;fill-opacity:1;fill-rule:nonzero;stroke:none"
               id="path24" /></g><g
             id="g26"
             transform="translate(91,114)"><path
               d="m 0,0 c 0,1.474 -0.072,2.944 -0.217,4.411 -0.144,1.466 -0.36,2.923 -0.648,4.368 -0.287,1.446 -0.645,2.873 -1.073,4.284 -0.428,1.41 -0.923,2.796 -1.487,4.158 -0.564,1.361 -1.194,2.692 -1.889,3.992 -0.694,1.3 -1.451,2.562 -2.27,3.788 -0.819,1.225 -1.696,2.407 -2.631,3.547 -0.935,1.139 -1.923,2.23 -2.965,3.272 -1.042,1.042 -2.133,2.03 -3.272,2.965 -1.14,0.935 -2.322,1.812 -3.547,2.631 -1.226,0.819 -2.488,1.576 -3.788,2.27 -1.3,0.695 -2.631,1.325 -3.992,1.889 -1.362,0.564 -2.748,1.059 -4.158,1.487 -1.411,0.428 -2.838,0.786 -4.284,1.073 -1.445,0.288 -2.902,0.504 -4.368,0.648 C -42.056,44.928 -43.526,45 -45,45 c -1.474,0 -2.944,-0.072 -4.411,-0.217 -1.466,-0.144 -2.923,-0.36 -4.368,-0.648 -1.446,-0.287 -2.873,-0.645 -4.284,-1.073 -1.41,-0.428 -2.796,-0.923 -4.158,-1.487 -1.361,-0.564 -2.692,-1.194 -3.992,-1.889 -1.3,-0.694 -2.562,-1.451 -3.788,-2.27 -1.225,-0.819 -2.407,-1.696 -3.547,-2.631 -1.139,-0.935 -2.23,-1.923 -3.272,-2.965 -1.042,-1.042 -2.03,-2.133 -2.965,-3.272 -0.935,-1.14 -1.812,-2.322 -2.631,-3.547 -0.819,-1.226 -1.576,-2.488 -2.27,-3.788 -0.695,-1.3 -1.325,-2.631 -1.889,-3.992 -0.564,-1.362 -1.059,-2.748 -1.487,-4.158 -0.428,-1.411 -0.786,-2.838 -1.073,-4.284 C -89.423,7.334 -89.639,5.877 -89.783,4.411 -89.928,2.944 -90,1.474 -90,0 c 0,-1.474 0.072,-2.944 0.217,-4.411 0.144,-1.466 0.36,-2.923 0.648,-4.368 0.287,-1.446 0.645,-2.873 1.073,-4.284 0.428,-1.41 0.923,-2.796 1.487,-4.158 0.564,-1.361 1.194,-2.692 1.889,-3.992 0.694,-1.3 1.451,-2.562 2.27,-3.788 0.819,-1.225 1.696,-2.407 2.631,-3.547 0.935,-1.139 1.923,-2.23 2.965,-3.272 1.042,-1.042 2.133,-2.031 3.272,-2.965 1.14,-0.935 2.322,-1.812 3.547,-2.631 1.226,-0.819 2.488,-1.576 3.788,-2.27 1.3,-0.695 2.631,-1.325 3.992,-1.889 1.362,-0.564 2.748,-1.059 4.158,-1.487 1.411,-0.428 2.838,-0.786 4.284,-1.073 1.445,-0.288 2.902,-0.504 4.368,-0.648 1.467,-0.145 2.937,-0.217 4.411,-0.217 1.474,0 2.944,0.072 4.411,0.217 1.466,0.144 2.923,0.36 4.368,0.648 1.446,0.287 2.873,0.645 4.284,1.073 1.41,0.428 2.796,0.923 4.158,1.487 1.361,0.564 2.692,1.194 3.992,1.889 1.3,0.694 2.562,1.451 3.788,2.27 1.225,0.819 2.407,1.696 3.547,2.631 1.139,0.934 2.23,1.923 3.272,2.965 1.042,1.042 2.03,2.133 2.965,3.272 0.935,1.14 1.812,2.322 2.631,3.547 0.819,1.226 1.576,2.488 2.27,3.788 0.695,1.3 1.325,2.631 1.889,3.992 0.564,1.362 1.059,2.748 1.487,4.158 0.428,1.411 0.786,2.838 1.073,4.284 0.288,1.445 0.504,2.902 0.648,4.368 C -0.072,-2.944 0,-1.474 0,0 Z"
               style="fill:none;stroke:#d6b656;stroke-width:1;stroke-linecap:butt;stroke-linejoin:miter;stroke-miterlimit:4;stroke-dasharray:none;stroke-opacity:1"
               id="path28" /></g><g
             id="g30"
             transform="matrix(1.3914895,0,0,-1.3914895,-0.5,265.33014)"><text
               transform="matrix(1,0,0,-1,20.1111,104.8015)"
               style="font-variant:normal;font-weight:bold;font-size:10.7805px;font-family:'Courier New';-inkscape-font-specification:CourierNewPS-BoldMT;writing-mode:lr-tb;fill:#000000;fill-opacity:1;fill-rule:nonzero;stroke:none"
               id="text34"><tspan
                 x="0 6.4693527 12.938705 19.408058"
                 y="0"
                 id="tspan32">init</tspan></text><g
               id="g36"
               transform="matrix(0.7186544,0,0,-0.7186544,0.3593272,190.68066)"><g
                 id="g38"
                 transform="translate(54,59)"><path
                   d="M 0,0 C 0,0.657 -0.051,1.307 -0.154,1.951 -0.256,2.595 -0.408,3.22 -0.609,3.827 -0.81,4.433 -1.056,5.01 -1.348,5.556 -1.64,6.102 -1.972,6.607 -2.343,7.071 -2.715,7.535 -3.119,7.95 -3.555,8.315 -3.992,8.679 -4.453,8.988 -4.939,9.239 -5.424,9.49 -5.924,9.68 -6.439,9.808 -6.954,9.936 -7.475,10 -8,10 -8.525,10 -9.046,9.936 -9.561,9.808 -10.076,9.68 -10.576,9.49 -11.061,9.239 -11.547,8.988 -12.008,8.679 -12.445,8.315 -12.881,7.95 -13.285,7.535 -13.657,7.071 -14.028,6.607 -14.36,6.102 -14.652,5.556 -14.944,5.01 -15.19,4.433 -15.391,3.827 -15.592,3.22 -15.744,2.595 -15.846,1.951 -15.949,1.307 -16,0.657 -16,0 c 0,-0.657 0.051,-1.307 0.154,-1.951 0.102,-0.644 0.254,-1.269 0.455,-1.876 0.201,-0.606 0.447,-1.183 0.739,-1.729 0.292,-0.546 0.624,-1.051 0.995,-1.515 0.372,-0.464 0.776,-0.879 1.212,-1.244 0.437,-0.364 0.898,-0.673 1.384,-0.924 0.485,-0.251 0.985,-0.441 1.5,-0.569 C -9.046,-9.936 -8.525,-10 -8,-10 c 0.525,0 1.046,0.064 1.561,0.192 0.515,0.128 1.015,0.318 1.5,0.569 0.486,0.251 0.947,0.56 1.384,0.924 0.436,0.365 0.84,0.78 1.212,1.244 0.371,0.464 0.703,0.969 0.995,1.515 0.292,0.546 0.538,1.123 0.739,1.729 0.201,0.607 0.353,1.232 0.455,1.876 C -0.051,-1.307 0,-0.657 0,0 Z"
                   style="fill:#dae8fc;fill-opacity:1;fill-rule:nonzero;stroke:none"
                   id="path40" /></g></g><g
               id="g42"
               transform="matrix(0.7186544,0,0,-0.7186544,0.3593272,190.68066)"><g
                 id="g44"
                 transform="translate(54,59)"><path
                   d="M 0,0 C 0,0.657 -0.051,1.307 -0.154,1.951 -0.256,2.595 -0.408,3.22 -0.609,3.827 -0.81,4.433 -1.056,5.01 -1.348,5.556 -1.64,6.102 -1.972,6.607 -2.343,7.071 -2.715,7.535 -3.119,7.95 -3.555,8.315 -3.992,8.679 -4.453,8.988 -4.939,9.239 -5.424,9.49 -5.924,9.68 -6.439,9.808 -6.954,9.936 -7.475,10 -8,10 -8.525,10 -9.046,9.936 -9.561,9.808 -10.076,9.68 -10.576,9.49 -11.061,9.239 -11.547,8.988 -12.008,8.679 -12.445,8.315 -12.881,7.95 -13.285,7.535 -13.657,7.071 -14.028,6.607 -14.36,6.102 -14.652,5.556 -14.944,5.01 -15.19,4.433 -15.391,3.827 -15.592,3.22 -15.744,2.595 -15.846,1.951 -15.949,1.307 -16,0.657 -16,0 c 0,-0.657 0.051,-1.307 0.154,-1.951 0.102,-0.644 0.254,-1.269 0.455,-1.876 0.201,-0.606 0.447,-1.183 0.739,-1.729 0.292,-0.546 0.624,-1.051 0.995,-1.515 0.372,-0.464 0.776,-0.879 1.212,-1.244 0.437,-0.364 0.898,-0.673 1.384,-0.924 0.485,-0.251 0.985,-0.441 1.5,-0.569 C -9.046,-9.936 -8.525,-10 -8,-10 c 0.525,0 1.046,0.064 1.561,0.192 0.515,0.128 1.015,0.318 1.5,0.569 0.486,0.251 0.947,0.56 1.384,0.924 0.436,0.365 0.84,0.78 1.212,1.244 0.371,0.464 0.703,0.969 0.995,1.515 0.292,0.546 0.538,1.123 0.739,1.729 0.201,0.607 0.353,1.232 0.455,1.876 C -0.051,-1.307 0,-0.657 0,0 Z"
                   style="fill:none;stroke:#6c8ebf;stroke-width:1;stroke-linecap:butt;stroke-linejoin:miter;stroke-miterlimit:4;stroke-dasharray:none;stroke-opacity:1"
                   id="path46" /></g></g><g
               id="g48"
               transform="matrix(0.7186544,0,0,-0.7186544,0.3593272,190.68066)"><g
                 id="g50"
                 transform="translate(271,114)"><path
                   d="M 0,0 H 87.76"
                   style="fill:none;stroke:#000000;stroke-width:1;stroke-linecap:butt;stroke-linejoin:miter;stroke-miterlimit:10;stroke-dasharray:none;stroke-opacity:1"
                   id="path52" /></g></g><g
               id="g54"
               transform="matrix(0.7186544,0,0,-0.7186544,0.3593272,190.68066)"><g
                 id="g56"
                 transform="translate(346.88,120.5)"><path
                   d="M 0,0 13,-6.5 0,-13"
                   style="fill:none;stroke:#000000;stroke-width:1;stroke-linecap:butt;stroke-linejoin:miter;stroke-miterlimit:10;stroke-dasharray:none;stroke-opacity:1"
                   id="path58" /></g></g><text
               transform="matrix(1,0,0,-1,214.2376,117.0186)"
               style="font-variant:normal;font-weight:bold;font-size:10.5361px;font-family:'Courier New';-inkscape-font-specification:CourierNewPS-BoldMT;writing-mode:lr-tb;fill:#000000;fill-opacity:1;fill-rule:nonzero;stroke:none"
               id="text62"><tspan
                 x="0"
                 y="0"
                 id="tspan60">ε</tspan></text><text
               transform="matrix(1,0,0,-1,220.56031,117.0186)"
               style="font-variant:normal;font-weight:bold;font-size:10.7805px;font-family:'Courier New';-inkscape-font-specification:CourierNewPS-BoldMT;writing-mode:lr-tb;fill:#000000;fill-opacity:1;fill-rule:nonzero;stroke:none"
               id="text66"><tspan
                 x="0 6.4693527"
                 y="0"
                 id="tspan64">-m</tspan></text><g
               id="g68"
               transform="matrix(0.7186544,0,0,-0.7186544,0.3593272,190.68066)"><g
                 id="g70"
                 transform="translate(226.5,159)"><path
                   d="M 0,0 V 3 H -1 V 0 M 0,6 V 9 H -1 V 6 m 1,6 v 3 h -1 v -3 m 1,6 v 3 h -1 v -3 m 1,6 v 3 h -1 v -3 m 1,6 v 3 h -1 v -3 m 1,6 v 3 h -1 v -3 m 1,6 v 3 h -1 v -3 m 1,6 v 3 h -1 v -3 m 1,6 v 3 h -1 v -3 m 1,6 v 3 h -1 v -3 m 1,6 v 3 h -1 v -3 m 1,6 v 3 h -1 v -3 m 1,6 v 3 h -1 v -3 m 1,6 v 3 h -1 v -3"
                   style="fill:#000000;fill-opacity:1;fill-rule:nonzero;stroke:none"
                   id="path72" /></g></g><g
               id="g74"
               transform="matrix(0.7186544,0,0,-0.7186544,0.3593272,190.68066)"><g
                 id="g76"
                 transform="translate(219.5,234.88)"><path
                   d="M 0,0 6.5,13 13,0"
                   style="fill:none;stroke:#000000;stroke-width:1;stroke-linecap:butt;stroke-linejoin:miter;stroke-miterlimit:10;stroke-dasharray:none;stroke-opacity:1"
                   id="path78" /></g></g><g
               id="g80"
               transform="matrix(0.7186544,0,0,-0.7186544,0,191.03999)"><path
                 d="m 160,198 h 133 v 14 H 160 Z"
                 style="fill:#ffffff;fill-opacity:1;fill-rule:nonzero;stroke:none"
                 id="path82" /></g><text
               transform="matrix(1,0,0,-1,115.344,41.5599)"
               style="font-variant:normal;font-weight:bold;font-size:7.9057px;font-family:'Courier New';-inkscape-font-specification:CourierNewPS-BoldMT;writing-mode:lr-tb;fill:#000000;fill-opacity:1;fill-rule:nonzero;stroke:none"
               id="text88"><tspan
                 x="0 4.7441921 9.4883842 14.232576"
                 y="0"
                 id="tspan84">emit</tspan><tspan
                 x="18.967211 23.711403 28.455595 33.199787 37.943981 42.688171 47.432365 52.176556 56.92075 61.66494 66.409134 71.153328 75.897514 80.641708 85.385902 90.130096"
                 y="0"
                 id="tspan86"> switch(morning)</tspan></text><g
               id="g90"
               transform="matrix(0.7186544,0,0,-0.7186544,0.3593272,190.68066)"><g
                 id="g92"
                 transform="translate(271,114)"><path
                   d="m 0,0 c 0,1.474 -0.072,2.944 -0.217,4.411 -0.144,1.466 -0.36,2.923 -0.648,4.368 -0.287,1.446 -0.645,2.873 -1.073,4.284 -0.428,1.41 -0.923,2.796 -1.487,4.158 -0.564,1.361 -1.194,2.692 -1.889,3.992 -0.694,1.3 -1.451,2.562 -2.27,3.788 -0.819,1.225 -1.696,2.407 -2.631,3.547 -0.935,1.139 -1.923,2.23 -2.965,3.272 -1.042,1.042 -2.133,2.03 -3.272,2.965 -1.14,0.935 -2.322,1.812 -3.547,2.631 -1.226,0.819 -2.488,1.576 -3.788,2.27 -1.3,0.695 -2.631,1.325 -3.992,1.889 -1.362,0.564 -2.748,1.059 -4.158,1.487 -1.411,0.428 -2.838,0.786 -4.284,1.073 -1.445,0.288 -2.902,0.504 -4.368,0.648 C -42.056,44.928 -43.526,45 -45,45 c -1.474,0 -2.944,-0.072 -4.411,-0.217 -1.466,-0.144 -2.923,-0.36 -4.368,-0.648 -1.446,-0.287 -2.873,-0.645 -4.284,-1.073 -1.41,-0.428 -2.796,-0.923 -4.158,-1.487 -1.361,-0.564 -2.692,-1.194 -3.992,-1.889 -1.3,-0.694 -2.562,-1.451 -3.788,-2.27 -1.225,-0.819 -2.407,-1.696 -3.547,-2.631 -1.139,-0.935 -2.23,-1.923 -3.272,-2.965 -1.042,-1.042 -2.03,-2.133 -2.965,-3.272 -0.935,-1.14 -1.812,-2.322 -2.631,-3.547 -0.819,-1.226 -1.576,-2.488 -2.27,-3.788 -0.695,-1.3 -1.325,-2.631 -1.889,-3.992 -0.564,-1.362 -1.06,-2.748 -1.487,-4.158 -0.428,-1.411 -0.786,-2.838 -1.073,-4.284 C -89.423,7.334 -89.639,5.877 -89.783,4.411 -89.928,2.944 -90,1.474 -90,0 c 0,-1.474 0.072,-2.944 0.217,-4.411 0.144,-1.466 0.36,-2.923 0.648,-4.368 0.287,-1.446 0.645,-2.873 1.073,-4.284 0.427,-1.41 0.923,-2.796 1.487,-4.158 0.564,-1.361 1.194,-2.692 1.889,-3.992 0.694,-1.3 1.451,-2.562 2.27,-3.788 0.819,-1.225 1.696,-2.407 2.631,-3.547 0.935,-1.139 1.923,-2.23 2.965,-3.272 1.042,-1.042 2.133,-2.031 3.272,-2.965 1.14,-0.935 2.322,-1.812 3.547,-2.631 1.226,-0.819 2.488,-1.576 3.788,-2.27 1.3,-0.695 2.631,-1.325 3.992,-1.889 1.362,-0.564 2.748,-1.059 4.158,-1.487 1.411,-0.428 2.838,-0.786 4.284,-1.073 1.445,-0.288 2.902,-0.504 4.368,-0.648 1.467,-0.145 2.937,-0.217 4.411,-0.217 1.474,0 2.944,0.072 4.411,0.217 1.466,0.144 2.923,0.36 4.368,0.648 1.446,0.287 2.873,0.645 4.284,1.073 1.41,0.428 2.796,0.923 4.158,1.487 1.361,0.564 2.692,1.194 3.992,1.889 1.3,0.694 2.562,1.451 3.788,2.27 1.225,0.819 2.407,1.696 3.547,2.631 1.139,0.934 2.23,1.923 3.272,2.965 1.042,1.042 2.03,2.133 2.965,3.272 0.935,1.14 1.812,2.322 2.631,3.547 0.819,1.226 1.576,2.488 2.27,3.788 0.695,1.3 1.325,2.631 1.889,3.992 0.564,1.362 1.059,2.748 1.487,4.158 0.428,1.411 0.786,2.838 1.073,4.284 0.288,1.445 0.504,2.902 0.648,4.368 C -0.072,-2.944 0,-1.474 0,0 Z"
                   style="fill:#d5e8d4;fill-opacity:1;fill-rule:nonzero;stroke:none"
                   id="path94" /></g></g><g
               id="g96"
               transform="matrix(0.7186544,0,0,-0.7186544,0.3593272,190.68066)"><g
                 id="g98"
                 transform="translate(271,114)"><path
                   d="m 0,0 c 0,1.474 -0.072,2.944 -0.217,4.411 -0.144,1.466 -0.36,2.923 -0.648,4.368 -0.287,1.446 -0.645,2.873 -1.073,4.284 -0.428,1.41 -0.923,2.796 -1.487,4.158 -0.564,1.361 -1.194,2.692 -1.889,3.992 -0.694,1.3 -1.451,2.562 -2.27,3.788 -0.819,1.225 -1.696,2.407 -2.631,3.547 -0.935,1.139 -1.923,2.23 -2.965,3.272 -1.042,1.042 -2.133,2.03 -3.272,2.965 -1.14,0.935 -2.322,1.812 -3.547,2.631 -1.226,0.819 -2.488,1.576 -3.788,2.27 -1.3,0.695 -2.631,1.325 -3.992,1.889 -1.362,0.564 -2.748,1.059 -4.158,1.487 -1.411,0.428 -2.838,0.786 -4.284,1.073 -1.445,0.288 -2.902,0.504 -4.368,0.648 C -42.056,44.928 -43.526,45 -45,45 c -1.474,0 -2.944,-0.072 -4.411,-0.217 -1.466,-0.144 -2.923,-0.36 -4.368,-0.648 -1.446,-0.287 -2.873,-0.645 -4.284,-1.073 -1.41,-0.428 -2.796,-0.923 -4.158,-1.487 -1.361,-0.564 -2.692,-1.194 -3.992,-1.889 -1.3,-0.694 -2.562,-1.451 -3.788,-2.27 -1.225,-0.819 -2.407,-1.696 -3.547,-2.631 -1.139,-0.935 -2.23,-1.923 -3.272,-2.965 -1.042,-1.042 -2.03,-2.133 -2.965,-3.272 -0.935,-1.14 -1.812,-2.322 -2.631,-3.547 -0.819,-1.226 -1.576,-2.488 -2.27,-3.788 -0.695,-1.3 -1.325,-2.631 -1.889,-3.992 -0.564,-1.362 -1.06,-2.748 -1.487,-4.158 -0.428,-1.411 -0.786,-2.838 -1.073,-4.284 C -89.423,7.334 -89.639,5.877 -89.783,4.411 -89.928,2.944 -90,1.474 -90,0 c 0,-1.474 0.072,-2.944 0.217,-4.411 0.144,-1.466 0.36,-2.923 0.648,-4.368 0.287,-1.446 0.645,-2.873 1.073,-4.284 0.427,-1.41 0.923,-2.796 1.487,-4.158 0.564,-1.361 1.194,-2.692 1.889,-3.992 0.694,-1.3 1.451,-2.562 2.27,-3.788 0.819,-1.225 1.696,-2.407 2.631,-3.547 0.935,-1.139 1.923,-2.23 2.965,-3.272 1.042,-1.042 2.133,-2.031 3.272,-2.965 1.14,-0.935 2.322,-1.812 3.547,-2.631 1.226,-0.819 2.488,-1.576 3.788,-2.27 1.3,-0.695 2.631,-1.325 3.992,-1.889 1.362,-0.564 2.748,-1.059 4.158,-1.487 1.411,-0.428 2.838,-0.786 4.284,-1.073 1.445,-0.288 2.902,-0.504 4.368,-0.648 1.467,-0.145 2.937,-0.217 4.411,-0.217 1.474,0 2.944,0.072 4.411,0.217 1.466,0.144 2.923,0.36 4.368,0.648 1.446,0.287 2.873,0.645 4.284,1.073 1.41,0.428 2.796,0.923 4.158,1.487 1.361,0.564 2.692,1.194 3.992,1.889 1.3,0.694 2.562,1.451 3.788,2.27 1.225,0.819 2.407,1.696 3.547,2.631 1.139,0.934 2.23,1.923 3.272,2.965 1.042,1.042 2.03,2.133 2.965,3.272 0.935,1.14 1.812,2.322 2.631,3.547 0.819,1.226 1.576,2.488 2.27,3.788 0.695,1.3 1.325,2.631 1.889,3.992 0.564,1.362 1.059,2.748 1.487,4.158 0.428,1.411 0.786,2.838 1.073,4.284 0.288,1.445 0.504,2.902 0.648,4.368 C -0.072,-2.944 0,-1.474 0,0 Z"
                   style="fill:none;stroke:#82b366;stroke-width:1;stroke-linecap:butt;stroke-linejoin:miter;stroke-miterlimit:4;stroke-dasharray:none;stroke-opacity:1"
                   id="path100" /></g></g><text
               transform="matrix(1,0,0,-1,139.767,106.2388)"
               style="font-variant:normal;font-weight:bold;font-size:10.7805px;font-family:'Courier New';-inkscape-font-specification:CourierNewPS-BoldMT;writing-mode:lr-tb;fill:#000000;fill-opacity:1;fill-rule:nonzero;stroke:none"
               id="text104"><tspan
                 x="0 6.4693527 12.938705 19.408058 25.877411 32.346764 38.816116"
                 y="0"
                 id="tspan102">morning</tspan></text><g
               id="g106"
               transform="matrix(0.7186544,0,0,-0.7186544,0.3593272,190.68066)"><g
                 id="g108"
                 transform="translate(91,114)"><path
                   d="M 0,0 H 87.76"
                   style="fill:none;stroke:#000000;stroke-width:1;stroke-linecap:butt;stroke-linejoin:miter;stroke-miterlimit:10;stroke-dasharray:none;stroke-opacity:1"
                   id="path110" /></g></g><g
               id="g112"
               transform="matrix(0.7186544,0,0,-0.7186544,0.3593272,190.68066)"><g
                 id="g114"
                 transform="translate(166.88,120.5)"><path
                   d="M 0,0 13,-6.5 0,-13"
                   style="fill:none;stroke:#000000;stroke-width:1;stroke-linecap:butt;stroke-linejoin:miter;stroke-miterlimit:10;stroke-dasharray:none;stroke-opacity:1"
                   id="path116" /></g></g><text
               transform="matrix(1,0,0,-1,88.4731,115.5813)"
               style="font-variant:normal;font-weight:bold;font-size:10.5361px;font-family:'Courier New';-inkscape-font-specification:CourierNewPS-BoldMT;writing-mode:lr-tb;fill:#000000;fill-opacity:1;fill-rule:nonzero;stroke:none"
               id="text120"><tspan
                 x="0"
                 y="0"
                 id="tspan118">ε</tspan></text><text
               transform="matrix(1,0,0,-1,94.795814,115.5813)"
               style="font-variant:normal;font-weight:bold;font-size:10.7805px;font-family:'Courier New';-inkscape-font-specification:CourierNewPS-BoldMT;writing-mode:lr-tb;fill:#000000;fill-opacity:1;fill-rule:nonzero;stroke:none"
               id="text124"><tspan
                 x="0 6.4693527"
                 y="0"
                 id="tspan122">-m</tspan></text><g
               id="g126"
               transform="matrix(0.7186544,0,0,-0.7186544,0.3593272,190.68066)"><g
                 id="g128"
                 transform="translate(451,114)"><path
                   d="M 0,0 H 87.76"
                   style="fill:none;stroke:#000000;stroke-width:1;stroke-linecap:butt;stroke-linejoin:miter;stroke-miterlimit:10;stroke-dasharray:none;stroke-opacity:1"
                   id="path130" /></g></g><g
               id="g132"
               transform="matrix(0.7186544,0,0,-0.7186544,0.3593272,190.68066)"><g
                 id="g134"
                 transform="translate(526.88,120.5)"><path
                   d="M 0,0 13,-6.5 0,-13"
                   style="fill:none;stroke:#000000;stroke-width:1;stroke-linecap:butt;stroke-linejoin:miter;stroke-miterlimit:10;stroke-dasharray:none;stroke-opacity:1"
                   id="path136" /></g></g><text
               transform="matrix(1,0,0,-1,343.5954,117.0186)"
               style="font-variant:normal;font-weight:bold;font-size:10.5361px;font-family:'Courier New';-inkscape-font-specification:CourierNewPS-BoldMT;writing-mode:lr-tb;fill:#000000;fill-opacity:1;fill-rule:nonzero;stroke:none"
               id="text140"><tspan
                 x="0"
                 y="0"
                 id="tspan138">ε</tspan></text><text
               transform="matrix(1,0,0,-1,349.91811,117.0186)"
               style="font-variant:normal;font-weight:bold;font-size:10.7805px;font-family:'Courier New';-inkscape-font-specification:CourierNewPS-BoldMT;writing-mode:lr-tb;fill:#000000;fill-opacity:1;fill-rule:nonzero;stroke:none"
               id="text144"><tspan
                 x="0 6.4693527"
                 y="0"
                 id="tspan142">-m</tspan></text><g
               id="g146"
               transform="matrix(0.7186544,0,0,-0.7186544,0.3593272,190.68066)"><g
                 id="g148"
                 transform="translate(406.5,159)"><path
                   d="M 0,0 V 3 H -1 V 0 M 0,6 V 9 H -1 V 6 m 1,6 v 3 h -1 v -3 m 1,6 v 3 h -1 v -3 m 1,6 v 3 h -1 v -3 m 1,6 v 3 h -1 v -3 m 1,6 v 3 h -1 v -3 m 1,6 v 3 h -1 v -3 m 1,6 v 3 h -1 v -3 m 1,6 v 3 h -1 v -3 m 1,6 v 3 h -1 v -3 m 1,6 v 3 h -1 v -3 m 1,6 v 3 h -1 v -3 m 1,6 v 3 h -1 v -3 m 1,6 v 3 h -1 v -3"
                   style="fill:#000000;fill-opacity:1;fill-rule:nonzero;stroke:none"
                   id="path150" /></g></g><g
               id="g152"
               transform="matrix(0.7186544,0,0,-0.7186544,0.3593272,190.68066)"><g
                 id="g154"
                 transform="translate(399.5,234.88)"><path
                   d="M 0,0 6.5,13 13,0"
                   style="fill:none;stroke:#000000;stroke-width:1;stroke-linecap:butt;stroke-linejoin:miter;stroke-miterlimit:10;stroke-dasharray:none;stroke-opacity:1"
                   id="path156" /></g></g><g
               id="g158"
               transform="matrix(0.7186544,0,0,-0.7186544,0,191.03999)"><path
                 d="m 334,198 h 145 v 14 H 334 Z"
                 style="fill:#ffffff;fill-opacity:1;fill-rule:nonzero;stroke:none"
                 id="path160" /></g><g
               id="g162"
               transform="matrix(0.7186544,0,0,-0.7186544,0,191.03999)"><path
                 d="m 334,199 h 145 v 12 H 334 Z"
                 style="fill:#ffffff;fill-opacity:1;fill-rule:nonzero;stroke:none"
                 id="path164" /></g><text
               transform="matrix(1,0,0,-1,239.9632,41.5599)"
               style="font-variant:normal;font-weight:bold;font-size:7.9057px;font-family:'Courier New';-inkscape-font-specification:CourierNewPS-BoldMT;writing-mode:lr-tb;fill:#000000;fill-opacity:1;fill-rule:nonzero;stroke:none"
               id="text170"><tspan
                 x="0 4.7441921 9.4883842 14.232576"
                 y="0"
                 id="tspan166">emit</tspan><tspan
                 x="18.967211 23.706945 28.451138 33.195328 37.939522 42.683712 47.427906 52.172096 56.91629 61.66048 66.404671 71.148865 75.893059 80.637253 85.381439 90.125633 94.869827 99.614021"
                 y="0"
                 id="tspan168"> switch(afternoon)</tspan></text><g
               id="g172"
               transform="matrix(0.7186544,0,0,-0.7186544,0.3593272,190.68066)"><g
                 id="g174"
                 transform="translate(451,114)"><path
                   d="m 0,0 c 0,1.474 -0.072,2.944 -0.217,4.411 -0.144,1.466 -0.36,2.923 -0.648,4.368 -0.287,1.446 -0.645,2.873 -1.073,4.284 -0.428,1.41 -0.923,2.796 -1.487,4.158 -0.564,1.361 -1.194,2.692 -1.889,3.992 -0.694,1.3 -1.451,2.562 -2.27,3.788 -0.819,1.225 -1.696,2.407 -2.631,3.547 -0.935,1.139 -1.923,2.23 -2.965,3.272 -1.042,1.042 -2.133,2.03 -3.272,2.965 -1.14,0.935 -2.322,1.812 -3.547,2.631 -1.226,0.819 -2.488,1.576 -3.788,2.27 -1.3,0.695 -2.631,1.325 -3.992,1.889 -1.362,0.564 -2.748,1.059 -4.158,1.487 -1.411,0.428 -2.839,0.786 -4.284,1.073 -1.445,0.288 -2.902,0.504 -4.368,0.648 C -42.056,44.928 -43.526,45 -45,45 c -1.474,0 -2.944,-0.072 -4.411,-0.217 -1.466,-0.144 -2.923,-0.36 -4.368,-0.648 -1.446,-0.287 -2.873,-0.645 -4.284,-1.073 -1.41,-0.428 -2.796,-0.923 -4.158,-1.487 -1.361,-0.564 -2.692,-1.194 -3.992,-1.889 -1.3,-0.694 -2.562,-1.451 -3.788,-2.27 -1.225,-0.819 -2.407,-1.696 -3.547,-2.631 -1.139,-0.935 -2.23,-1.923 -3.272,-2.965 -1.042,-1.042 -2.03,-2.133 -2.965,-3.272 -0.935,-1.14 -1.812,-2.322 -2.631,-3.547 -0.819,-1.226 -1.576,-2.488 -2.27,-3.788 -0.695,-1.3 -1.325,-2.631 -1.889,-3.992 -0.564,-1.362 -1.059,-2.748 -1.487,-4.158 -0.428,-1.411 -0.786,-2.838 -1.073,-4.284 C -89.423,7.334 -89.639,5.877 -89.783,4.411 -89.928,2.944 -90,1.474 -90,0 c 0,-1.474 0.072,-2.944 0.217,-4.411 0.144,-1.466 0.36,-2.923 0.648,-4.368 0.287,-1.446 0.645,-2.873 1.073,-4.284 0.428,-1.41 0.923,-2.796 1.487,-4.158 0.564,-1.361 1.194,-2.692 1.889,-3.992 0.694,-1.3 1.451,-2.562 2.27,-3.788 0.819,-1.225 1.696,-2.407 2.631,-3.547 0.935,-1.139 1.923,-2.23 2.965,-3.272 1.042,-1.042 2.133,-2.031 3.272,-2.965 1.14,-0.935 2.322,-1.812 3.547,-2.631 1.226,-0.819 2.488,-1.576 3.788,-2.27 1.3,-0.695 2.631,-1.325 3.992,-1.889 1.362,-0.564 2.748,-1.059 4.158,-1.487 1.411,-0.428 2.838,-0.786 4.284,-1.073 1.445,-0.288 2.902,-0.504 4.368,-0.648 1.467,-0.145 2.937,-0.217 4.411,-0.217 1.474,0 2.944,0.072 4.411,0.217 1.466,0.144 2.923,0.36 4.368,0.648 1.445,0.287 2.873,0.645 4.284,1.073 1.41,0.428 2.796,0.923 4.158,1.487 1.361,0.564 2.692,1.194 3.992,1.889 1.3,0.694 2.562,1.451 3.788,2.27 1.225,0.819 2.407,1.696 3.547,2.631 1.139,0.934 2.23,1.923 3.272,2.965 1.042,1.042 2.03,2.133 2.965,3.272 0.935,1.14 1.812,2.322 2.631,3.547 0.819,1.226 1.576,2.488 2.27,3.788 0.695,1.3 1.325,2.631 1.889,3.992 0.564,1.362 1.059,2.748 1.487,4.158 0.428,1.411 0.786,2.838 1.073,4.284 0.288,1.445 0.504,2.902 0.648,4.368 C -0.072,-2.944 0,-1.474 0,0 Z"
                   style="fill:#d5e8d4;fill-opacity:1;fill-rule:nonzero;stroke:none"
                   id="path176" /></g></g><g
               id="g178"
               transform="matrix(0.7186544,0,0,-0.7186544,0.3593272,190.68066)"><g
                 id="g180"
                 transform="translate(451,114)"><path
                   d="m 0,0 c 0,1.474 -0.072,2.944 -0.217,4.411 -0.144,1.466 -0.36,2.923 -0.648,4.368 -0.287,1.446 -0.645,2.873 -1.073,4.284 -0.428,1.41 -0.923,2.796 -1.487,4.158 -0.564,1.361 -1.194,2.692 -1.889,3.992 -0.694,1.3 -1.451,2.562 -2.27,3.788 -0.819,1.225 -1.696,2.407 -2.631,3.547 -0.935,1.139 -1.923,2.23 -2.965,3.272 -1.042,1.042 -2.133,2.03 -3.272,2.965 -1.14,0.935 -2.322,1.812 -3.547,2.631 -1.226,0.819 -2.488,1.576 -3.788,2.27 -1.3,0.695 -2.631,1.325 -3.992,1.889 -1.362,0.564 -2.748,1.059 -4.158,1.487 -1.411,0.428 -2.839,0.786 -4.284,1.073 -1.445,0.288 -2.902,0.504 -4.368,0.648 C -42.056,44.928 -43.526,45 -45,45 c -1.474,0 -2.944,-0.072 -4.411,-0.217 -1.466,-0.144 -2.923,-0.36 -4.368,-0.648 -1.446,-0.287 -2.873,-0.645 -4.284,-1.073 -1.41,-0.428 -2.796,-0.923 -4.158,-1.487 -1.361,-0.564 -2.692,-1.194 -3.992,-1.889 -1.3,-0.694 -2.562,-1.451 -3.788,-2.27 -1.225,-0.819 -2.407,-1.696 -3.547,-2.631 -1.139,-0.935 -2.23,-1.923 -3.272,-2.965 -1.042,-1.042 -2.03,-2.133 -2.965,-3.272 -0.935,-1.14 -1.812,-2.322 -2.631,-3.547 -0.819,-1.226 -1.576,-2.488 -2.27,-3.788 -0.695,-1.3 -1.325,-2.631 -1.889,-3.992 -0.564,-1.362 -1.059,-2.748 -1.487,-4.158 -0.428,-1.411 -0.786,-2.838 -1.073,-4.284 C -89.423,7.334 -89.639,5.877 -89.783,4.411 -89.928,2.944 -90,1.474 -90,0 c 0,-1.474 0.072,-2.944 0.217,-4.411 0.144,-1.466 0.36,-2.923 0.648,-4.368 0.287,-1.446 0.645,-2.873 1.073,-4.284 0.428,-1.41 0.923,-2.796 1.487,-4.158 0.564,-1.361 1.194,-2.692 1.889,-3.992 0.694,-1.3 1.451,-2.562 2.27,-3.788 0.819,-1.225 1.696,-2.407 2.631,-3.547 0.935,-1.139 1.923,-2.23 2.965,-3.272 1.042,-1.042 2.133,-2.031 3.272,-2.965 1.14,-0.935 2.322,-1.812 3.547,-2.631 1.226,-0.819 2.488,-1.576 3.788,-2.27 1.3,-0.695 2.631,-1.325 3.992,-1.889 1.362,-0.564 2.748,-1.059 4.158,-1.487 1.411,-0.428 2.838,-0.786 4.284,-1.073 1.445,-0.288 2.902,-0.504 4.368,-0.648 1.467,-0.145 2.937,-0.217 4.411,-0.217 1.474,0 2.944,0.072 4.411,0.217 1.466,0.144 2.923,0.36 4.368,0.648 1.445,0.287 2.873,0.645 4.284,1.073 1.41,0.428 2.796,0.923 4.158,1.487 1.361,0.564 2.692,1.194 3.992,1.889 1.3,0.694 2.562,1.451 3.788,2.27 1.225,0.819 2.407,1.696 3.547,2.631 1.139,0.934 2.23,1.923 3.272,2.965 1.042,1.042 2.03,2.133 2.965,3.272 0.935,1.14 1.812,2.322 2.631,3.547 0.819,1.226 1.576,2.488 2.27,3.788 0.695,1.3 1.325,2.631 1.889,3.992 0.564,1.362 1.059,2.748 1.487,4.158 0.428,1.411 0.786,2.838 1.073,4.284 0.288,1.445 0.504,2.902 0.648,4.368 C -0.072,-2.944 0,-1.474 0,0 Z"
                   style="fill:none;stroke:#82b366;stroke-width:1;stroke-linecap:butt;stroke-linejoin:miter;stroke-miterlimit:4;stroke-dasharray:none;stroke-opacity:1"
                   id="path182" /></g></g><text
               transform="matrix(1,0,0,-1,262.6569,106.2388)"
               style="font-variant:normal;font-weight:bold;font-size:10.7805px;font-family:'Courier New';-inkscape-font-specification:CourierNewPS-BoldMT;writing-mode:lr-tb;fill:#000000;fill-opacity:1;fill-rule:nonzero;stroke:none"
               id="text186"><tspan
                 x="0 6.4693527 12.938705 19.408058 25.877411 32.346764 38.816116 45.285469 51.754822"
                 y="0"
                 id="tspan184">afternoon</tspan></text><g
               id="g188"
               transform="matrix(0.7186544,0,0,-0.7186544,0.3593272,190.68066)"><g
                 id="g190"
                 transform="translate(586,69)"><path
                   d="M 0,0 V -50 H -360 V -2.24"
                   style="fill:none;stroke:#000000;stroke-width:1;stroke-linecap:butt;stroke-linejoin:miter;stroke-miterlimit:10;stroke-dasharray:none;stroke-opacity:1"
                   id="path192" /></g></g><g
               id="g194"
               transform="matrix(0.7186544,0,0,-0.7186544,0.3593272,190.68066)"><g
                 id="g196"
                 transform="translate(219.5,54.88)"><path
                   d="M 0,0 6.5,13 13,0"
                   style="fill:none;stroke:#000000;stroke-width:1;stroke-linecap:butt;stroke-linejoin:miter;stroke-miterlimit:10;stroke-dasharray:none;stroke-opacity:1"
                   id="path198" /></g></g><text
               transform="matrix(1,0,0,-1,283.9471,180.9788)"
               style="font-variant:normal;font-weight:bold;font-size:10.5361px;font-family:'Courier New';-inkscape-font-specification:CourierNewPS-BoldMT;writing-mode:lr-tb;fill:#000000;fill-opacity:1;fill-rule:nonzero;stroke:none"
               id="text202"><tspan
                 x="0"
                 y="0"
                 id="tspan200">ε</tspan></text><text
               transform="matrix(1,0,0,-1,290.26981,180.9788)"
               style="font-variant:normal;font-weight:bold;font-size:10.7805px;font-family:'Courier New';-inkscape-font-specification:CourierNewPS-BoldMT;writing-mode:lr-tb;fill:#000000;fill-opacity:1;fill-rule:nonzero;stroke:none"
               id="text206"><tspan
                 x="0 6.4693527"
                 y="0"
                 id="tspan204">-m</tspan></text><g
               id="g208"
               transform="matrix(0.7186544,0,0,-0.7186544,0.3593272,190.68066)"><g
                 id="g210"
                 transform="translate(586.5,159)"><path
                   d="M 0,0 V 3 H -1 V 0 M 0,6 V 9 H -1 V 6 m 1,6 v 3 h -1 v -3 m 1,6 v 3 h -1 v -3 m 1,6 v 3 h -1 v -3 m 1,6 v 3 h -1 v -3 m 1,6 v 3 h -1 v -3 m 1,6 v 3 h -1 v -3 m 1,6 v 3 h -1 v -3 m 1,6 v 3 h -1 v -3 m 1,6 v 3 h -1 v -3 m 1,6 v 3 h -1 v -3 m 1,6 v 3 h -1 v -3 m 1,6 v 3 h -1 v -3 m 1,6 v 3 h -1 v -3"
                   style="fill:#000000;fill-opacity:1;fill-rule:nonzero;stroke:none"
                   id="path212" /></g></g><g
               id="g214"
               transform="matrix(0.7186544,0,0,-0.7186544,0.3593272,190.68066)"><g
                 id="g216"
                 transform="translate(579.5,234.88)"><path
                   d="M 0,0 6.5,13 13,0"
                   style="fill:none;stroke:#000000;stroke-width:1;stroke-linecap:butt;stroke-linejoin:miter;stroke-miterlimit:10;stroke-dasharray:none;stroke-opacity:1"
                   id="path218" /></g></g><g
               id="g220"
               transform="matrix(0.7186544,0,0,-0.7186544,0,191.03999)"><path
                 d="m 520,198 h 133 v 14 H 520 Z"
                 style="fill:#ffffff;fill-opacity:1;fill-rule:nonzero;stroke:none"
                 id="path222" /></g><g
               id="g224"
               transform="matrix(0.7186544,0,0,-0.7186544,0,191.03999)"><path
                 d="m 521,199 h 132 v 12 H 521 Z"
                 style="fill:#ffffff;fill-opacity:1;fill-rule:nonzero;stroke:none"
                 id="path226" /></g><text
               transform="matrix(1,0,0,-1,374.0596,41.5599)"
               style="font-variant:normal;font-weight:bold;font-size:7.9057px;font-family:'Courier New';-inkscape-font-specification:CourierNewPS-BoldMT;writing-mode:lr-tb;fill:#000000;fill-opacity:1;fill-rule:nonzero;stroke:none"
               id="text232"><tspan
                 x="0 4.7441921 9.4883842 14.232576"
                 y="0"
                 id="tspan228">emit</tspan><tspan
                 x="18.967211 23.706945 28.451138 33.195328 37.939522 42.683712 47.427906 52.172096 56.91629 61.66048 66.404671 71.148865 75.893059 80.637253 85.381439 90.125633"
                 y="0"
                 id="tspan230"> switch(morning)</tspan></text><g
               id="g234"
               transform="matrix(0.7186544,0,0,-0.7186544,0.3593272,190.68066)"><g
                 id="g236"
                 transform="translate(631,114)"><path
                   d="m 0,0 c 0,1.474 -0.072,2.944 -0.217,4.411 -0.144,1.466 -0.36,2.923 -0.648,4.368 -0.287,1.446 -0.645,2.873 -1.073,4.284 -0.428,1.41 -0.924,2.796 -1.488,4.158 -0.564,1.361 -1.193,2.692 -1.888,3.992 -0.694,1.3 -1.451,2.562 -2.27,3.788 -0.819,1.225 -1.696,2.407 -2.631,3.547 -0.935,1.139 -1.923,2.23 -2.965,3.272 -1.042,1.042 -2.133,2.03 -3.272,2.965 -1.14,0.935 -2.322,1.812 -3.547,2.631 -1.226,0.819 -2.488,1.576 -3.788,2.27 -1.3,0.695 -2.631,1.325 -3.992,1.889 -1.362,0.564 -2.748,1.059 -4.158,1.487 -1.411,0.428 -2.839,0.786 -4.284,1.073 -1.446,0.288 -2.902,0.504 -4.368,0.648 C -42.056,44.928 -43.526,45 -45,45 c -1.474,0 -2.944,-0.072 -4.411,-0.217 -1.467,-0.144 -2.923,-0.36 -4.368,-0.648 -1.446,-0.287 -2.874,-0.645 -4.284,-1.073 -1.41,-0.428 -2.796,-0.923 -4.158,-1.487 -1.361,-0.564 -2.692,-1.194 -3.992,-1.889 -1.3,-0.694 -2.562,-1.451 -3.788,-2.27 -1.225,-0.819 -2.407,-1.696 -3.547,-2.631 -1.139,-0.935 -2.23,-1.923 -3.272,-2.965 -1.042,-1.042 -2.031,-2.133 -2.966,-3.272 -0.934,-1.14 -1.811,-2.322 -2.63,-3.547 -0.819,-1.226 -1.576,-2.488 -2.271,-3.788 -0.694,-1.3 -1.324,-2.631 -1.888,-3.992 -0.564,-1.362 -1.06,-2.748 -1.487,-4.158 -0.428,-1.411 -0.786,-2.838 -1.073,-4.284 C -89.423,7.334 -89.639,5.877 -89.783,4.411 -89.928,2.944 -90,1.474 -90,0 c 0,-1.474 0.072,-2.944 0.217,-4.411 0.144,-1.466 0.36,-2.923 0.648,-4.368 0.287,-1.446 0.645,-2.873 1.073,-4.284 0.427,-1.41 0.923,-2.796 1.487,-4.158 0.564,-1.361 1.194,-2.692 1.888,-3.992 0.695,-1.3 1.452,-2.562 2.271,-3.788 0.819,-1.225 1.696,-2.407 2.63,-3.547 0.935,-1.139 1.924,-2.23 2.966,-3.272 1.042,-1.042 2.133,-2.031 3.272,-2.965 1.14,-0.935 2.322,-1.812 3.547,-2.631 1.226,-0.819 2.488,-1.576 3.788,-2.27 1.3,-0.695 2.631,-1.325 3.992,-1.889 1.362,-0.564 2.748,-1.059 4.158,-1.487 1.41,-0.428 2.838,-0.786 4.284,-1.073 1.445,-0.288 2.901,-0.504 4.368,-0.648 1.467,-0.145 2.937,-0.217 4.411,-0.217 1.474,0 2.944,0.072 4.411,0.217 1.466,0.144 2.922,0.36 4.368,0.648 1.445,0.287 2.873,0.645 4.284,1.073 1.41,0.428 2.796,0.923 4.158,1.487 1.361,0.564 2.692,1.194 3.992,1.889 1.3,0.694 2.562,1.451 3.788,2.27 1.225,0.819 2.407,1.696 3.547,2.631 1.139,0.934 2.23,1.923 3.272,2.965 1.042,1.042 2.03,2.133 2.965,3.272 0.935,1.14 1.812,2.322 2.631,3.547 0.819,1.226 1.576,2.488 2.27,3.788 0.695,1.3 1.324,2.631 1.888,3.992 0.564,1.362 1.06,2.748 1.488,4.158 0.428,1.411 0.786,2.838 1.073,4.284 0.288,1.445 0.504,2.902 0.648,4.368 C -0.072,-2.944 0,-1.474 0,0 Z"
                   style="fill:#d5e8d4;fill-opacity:1;fill-rule:nonzero;stroke:none"
                   id="path238" /></g></g><g
               id="g240"
               transform="matrix(0.7186544,0,0,-0.7186544,0.3593272,190.68066)"><g
                 id="g242"
                 transform="translate(631,114)"><path
                   d="m 0,0 c 0,1.474 -0.072,2.944 -0.217,4.411 -0.144,1.466 -0.36,2.923 -0.648,4.368 -0.287,1.446 -0.645,2.873 -1.073,4.284 -0.428,1.41 -0.924,2.796 -1.488,4.158 -0.564,1.361 -1.193,2.692 -1.888,3.992 -0.694,1.3 -1.451,2.562 -2.27,3.788 -0.819,1.225 -1.696,2.407 -2.631,3.547 -0.935,1.139 -1.923,2.23 -2.965,3.272 -1.042,1.042 -2.133,2.03 -3.272,2.965 -1.14,0.935 -2.322,1.812 -3.547,2.631 -1.226,0.819 -2.488,1.576 -3.788,2.27 -1.3,0.695 -2.631,1.325 -3.992,1.889 -1.362,0.564 -2.748,1.059 -4.158,1.487 -1.411,0.428 -2.839,0.786 -4.284,1.073 -1.446,0.288 -2.902,0.504 -4.368,0.648 C -42.056,44.928 -43.526,45 -45,45 c -1.474,0 -2.944,-0.072 -4.411,-0.217 -1.467,-0.144 -2.923,-0.36 -4.368,-0.648 -1.446,-0.287 -2.874,-0.645 -4.284,-1.073 -1.41,-0.428 -2.796,-0.923 -4.158,-1.487 -1.361,-0.564 -2.692,-1.194 -3.992,-1.889 -1.3,-0.694 -2.562,-1.451 -3.788,-2.27 -1.225,-0.819 -2.407,-1.696 -3.547,-2.631 -1.139,-0.935 -2.23,-1.923 -3.272,-2.965 -1.042,-1.042 -2.031,-2.133 -2.966,-3.272 -0.934,-1.14 -1.811,-2.322 -2.63,-3.547 -0.819,-1.226 -1.576,-2.488 -2.271,-3.788 -0.694,-1.3 -1.324,-2.631 -1.888,-3.992 -0.564,-1.362 -1.06,-2.748 -1.487,-4.158 -0.428,-1.411 -0.786,-2.838 -1.073,-4.284 C -89.423,7.334 -89.639,5.877 -89.783,4.411 -89.928,2.944 -90,1.474 -90,0 c 0,-1.474 0.072,-2.944 0.217,-4.411 0.144,-1.466 0.36,-2.923 0.648,-4.368 0.287,-1.446 0.645,-2.873 1.073,-4.284 0.427,-1.41 0.923,-2.796 1.487,-4.158 0.564,-1.361 1.194,-2.692 1.888,-3.992 0.695,-1.3 1.452,-2.562 2.271,-3.788 0.819,-1.225 1.696,-2.407 2.63,-3.547 0.935,-1.139 1.924,-2.23 2.966,-3.272 1.042,-1.042 2.133,-2.031 3.272,-2.965 1.14,-0.935 2.322,-1.812 3.547,-2.631 1.226,-0.819 2.488,-1.576 3.788,-2.27 1.3,-0.695 2.631,-1.325 3.992,-1.889 1.362,-0.564 2.748,-1.059 4.158,-1.487 1.41,-0.428 2.838,-0.786 4.284,-1.073 1.445,-0.288 2.901,-0.504 4.368,-0.648 1.467,-0.145 2.937,-0.217 4.411,-0.217 1.474,0 2.944,0.072 4.411,0.217 1.466,0.144 2.922,0.36 4.368,0.648 1.445,0.287 2.873,0.645 4.284,1.073 1.41,0.428 2.796,0.923 4.158,1.487 1.361,0.564 2.692,1.194 3.992,1.889 1.3,0.694 2.562,1.451 3.788,2.27 1.225,0.819 2.407,1.696 3.547,2.631 1.139,0.934 2.23,1.923 3.272,2.965 1.042,1.042 2.03,2.133 2.965,3.272 0.935,1.14 1.812,2.322 2.631,3.547 0.819,1.226 1.576,2.488 2.27,3.788 0.695,1.3 1.324,2.631 1.888,3.992 0.564,1.362 1.06,2.748 1.488,4.158 0.428,1.411 0.786,2.838 1.073,4.284 0.288,1.445 0.504,2.902 0.648,4.368 C -0.072,-2.944 0,-1.474 0,0 Z"
                   style="fill:none;stroke:#82b366;stroke-width:1;stroke-linecap:butt;stroke-linejoin:miter;stroke-miterlimit:4;stroke-dasharray:none;stroke-opacity:1"
                   id="path244" /></g></g><text
               transform="matrix(1,0,0,-1,404.9505,106.2388)"
               style="font-variant:normal;font-weight:bold;font-size:10.7805px;font-family:'Courier New';-inkscape-font-specification:CourierNewPS-BoldMT;writing-mode:lr-tb;fill:#000000;fill-opacity:1;fill-rule:nonzero;stroke:none"
               id="text248"><tspan
                 x="0 6.4693527 12.938705 19.408058 25.877411"
                 y="0"
                 id="tspan246">night</tspan></text></g></g></g></g></g></svg>
