<?xml version="1.0" encoding="UTF-8" standalone="no"?>
<svg
   xmlns:dc="http://purl.org/dc/elements/1.1/"
   xmlns:cc="http://creativecommons.org/ns#"
   xmlns:rdf="http://www.w3.org/1999/02/22-rdf-syntax-ns#"
   xmlns:svg="http://www.w3.org/2000/svg"
   xmlns="http://www.w3.org/2000/svg"
   version="1.1"
   id="svg2"
   xml:space="preserve"
   width="606.71997"
   height="298.56"
   viewBox="0 0 606.71997 298.56"><metadata
     id="metadata8"><rdf:RDF><cc:Work
         rdf:about=""><dc:format>image/svg+xml</dc:format><dc:type
           rdf:resource="http://purl.org/dc/dcmitype/StillImage" /><dc:title></dc:title></cc:Work></rdf:RDF></metadata><defs
     id="defs6"><clipPath
       clipPathUnits="userSpaceOnUse"
       id="clipPath18"><path
         d="M 0,0 H 1895.833 V 928.449 H 0 Z"
         clip-rule="evenodd"
         id="path16" /></clipPath></defs><g
     id="g10"
     transform="matrix(1.3333333,0,0,-1.3333333,0,298.56)"><g
       id="g12"
       transform="matrix(0.24,0,0,-0.24,0,223.92)"><g
         id="g14"
         clip-path="url(#clipPath18)"><g
           id="g20"
           transform="matrix(2.9949973,0,0,2.9949973,1.4974986,1.4974986)"><g
             id="g22"
             transform="translate(91,114)"><path
               d="m 0,0 c 0,1.474 -0.072,2.944 -0.217,4.411 -0.144,1.466 -0.36,2.923 -0.648,4.368 -0.287,1.446 -0.645,2.873 -1.073,4.284 -0.428,1.41 -0.923,2.796 -1.487,4.158 -0.564,1.361 -1.194,2.692 -1.889,3.992 -0.694,1.3 -1.451,2.562 -2.27,3.788 -0.819,1.225 -1.696,2.407 -2.631,3.547 -0.935,1.139 -1.923,2.23 -2.965,3.272 -1.042,1.042 -2.133,2.03 -3.272,2.965 -1.14,0.935 -2.322,1.812 -3.547,2.631 -1.226,0.819 -2.488,1.576 -3.788,2.27 -1.3,0.695 -2.631,1.325 -3.992,1.889 -1.362,0.564 -2.748,1.059 -4.158,1.487 -1.411,0.428 -2.838,0.786 -4.284,1.073 -1.445,0.288 -2.902,0.504 -4.368,0.648 C -42.056,44.928 -43.526,45 -45,45 c -1.474,0 -2.944,-0.072 -4.411,-0.217 -1.466,-0.144 -2.923,-0.36 -4.368,-0.648 -1.446,-0.287 -2.873,-0.645 -4.284,-1.073 -1.41,-0.428 -2.796,-0.923 -4.158,-1.487 -1.361,-0.564 -2.692,-1.194 -3.992,-1.889 -1.3,-0.694 -2.562,-1.451 -3.788,-2.27 -1.225,-0.819 -2.407,-1.696 -3.547,-2.631 -1.139,-0.935 -2.23,-1.923 -3.272,-2.965 -1.042,-1.042 -2.03,-2.133 -2.965,-3.272 -0.935,-1.14 -1.812,-2.322 -2.631,-3.547 -0.819,-1.226 -1.576,-2.488 -2.27,-3.788 -0.695,-1.3 -1.325,-2.631 -1.889,-3.992 -0.564,-1.362 -1.059,-2.748 -1.487,-4.158 -0.428,-1.411 -0.786,-2.838 -1.073,-4.284 C -89.423,7.334 -89.639,5.877 -89.783,4.411 -89.928,2.944 -90,1.474 -90,0 c 0,-1.474 0.072,-2.944 0.217,-4.411 0.144,-1.466 0.36,-2.923 0.648,-4.368 0.287,-1.446 0.645,-2.873 1.073,-4.284 0.428,-1.41 0.923,-2.796 1.487,-4.158 0.564,-1.361 1.194,-2.692 1.889,-3.992 0.694,-1.3 1.451,-2.562 2.27,-3.788 0.819,-1.225 1.696,-2.407 2.631,-3.547 0.935,-1.139 1.923,-2.23 2.965,-3.272 1.042,-1.042 2.133,-2.031 3.272,-2.965 1.14,-0.935 2.322,-1.812 3.547,-2.631 1.226,-0.819 2.488,-1.576 3.788,-2.27 1.3,-0.695 2.631,-1.325 3.992,-1.889 1.362,-0.564 2.748,-1.059 4.158,-1.487 1.411,-0.428 2.838,-0.786 4.284,-1.073 1.445,-0.288 2.902,-0.504 4.368,-0.648 1.467,-0.145 2.937,-0.217 4.411,-0.217 1.474,0 2.944,0.072 4.411,0.217 1.466,0.144 2.923,0.36 4.368,0.648 1.446,0.287 2.873,0.645 4.284,1.073 1.41,0.428 2.796,0.923 4.158,1.487 1.361,0.564 2.692,1.194 3.992,1.889 1.3,0.694 2.562,1.451 3.788,2.27 1.225,0.819 2.407,1.696 3.547,2.631 1.139,0.934 2.23,1.923 3.272,2.965 1.042,1.042 2.03,2.133 2.965,3.272 0.935,1.14 1.812,2.322 2.631,3.547 0.819,1.226 1.576,2.488 2.27,3.788 0.695,1.3 1.325,2.631 1.889,3.992 0.564,1.362 1.059,2.748 1.487,4.158 0.428,1.411 0.786,2.838 1.073,4.284 0.288,1.445 0.504,2.902 0.648,4.368 C -0.072,-2.944 0,-1.474 0,0 Z"
               style="fill:#fff2cc;fill-opacity:1;fill-rule:nonzero;stroke:none"
               id="path24" /></g><g
             id="g26"
             transform="translate(91,114)"><path
               d="m 0,0 c 0,1.474 -0.072,2.944 -0.217,4.411 -0.144,1.466 -0.36,2.923 -0.648,4.368 -0.287,1.446 -0.645,2.873 -1.073,4.284 -0.428,1.41 -0.923,2.796 -1.487,4.158 -0.564,1.361 -1.194,2.692 -1.889,3.992 -0.694,1.3 -1.451,2.562 -2.27,3.788 -0.819,1.225 -1.696,2.407 -2.631,3.547 -0.935,1.139 -1.923,2.23 -2.965,3.272 -1.042,1.042 -2.133,2.03 -3.272,2.965 -1.14,0.935 -2.322,1.812 -3.547,2.631 -1.226,0.819 -2.488,1.576 -3.788,2.27 -1.3,0.695 -2.631,1.325 -3.992,1.889 -1.362,0.564 -2.748,1.059 -4.158,1.487 -1.411,0.428 -2.838,0.786 -4.284,1.073 -1.445,0.288 -2.902,0.504 -4.368,0.648 C -42.056,44.928 -43.526,45 -45,45 c -1.474,0 -2.944,-0.072 -4.411,-0.217 -1.466,-0.144 -2.923,-0.36 -4.368,-0.648 -1.446,-0.287 -2.873,-0.645 -4.284,-1.073 -1.41,-0.428 -2.796,-0.923 -4.158,-1.487 -1.361,-0.564 -2.692,-1.194 -3.992,-1.889 -1.3,-0.694 -2.562,-1.451 -3.788,-2.27 -1.225,-0.819 -2.407,-1.696 -3.547,-2.631 -1.139,-0.935 -2.23,-1.923 -3.272,-2.965 -1.042,-1.042 -2.03,-2.133 -2.965,-3.272 -0.935,-1.14 -1.812,-2.322 -2.631,-3.547 -0.819,-1.226 -1.576,-2.488 -2.27,-3.788 -0.695,-1.3 -1.325,-2.631 -1.889,-3.992 -0.564,-1.362 -1.059,-2.748 -1.487,-4.158 -0.428,-1.411 -0.786,-2.838 -1.073,-4.284 C -89.423,7.334 -89.639,5.877 -89.783,4.411 -89.928,2.944 -90,1.474 -90,0 c 0,-1.474 0.072,-2.944 0.217,-4.411 0.144,-1.466 0.36,-2.923 0.648,-4.368 0.287,-1.446 0.645,-2.873 1.073,-4.284 0.428,-1.41 0.923,-2.796 1.487,-4.158 0.564,-1.361 1.194,-2.692 1.889,-3.992 0.694,-1.3 1.451,-2.562 2.27,-3.788 0.819,-1.225 1.696,-2.407 2.631,-3.547 0.935,-1.139 1.923,-2.23 2.965,-3.272 1.042,-1.042 2.133,-2.031 3.272,-2.965 1.14,-0.935 2.322,-1.812 3.547,-2.631 1.226,-0.819 2.488,-1.576 3.788,-2.27 1.3,-0.695 2.631,-1.325 3.992,-1.889 1.362,-0.564 2.748,-1.059 4.158,-1.487 1.411,-0.428 2.838,-0.786 4.284,-1.073 1.445,-0.288 2.902,-0.504 4.368,-0.648 1.467,-0.145 2.937,-0.217 4.411,-0.217 1.474,0 2.944,0.072 4.411,0.217 1.466,0.144 2.923,0.36 4.368,0.648 1.446,0.287 2.873,0.645 4.284,1.073 1.41,0.428 2.796,0.923 4.158,1.487 1.361,0.564 2.692,1.194 3.992,1.889 1.3,0.694 2.562,1.451 3.788,2.27 1.225,0.819 2.407,1.696 3.547,2.631 1.139,0.934 2.23,1.923 3.272,2.965 1.042,1.042 2.03,2.133 2.965,3.272 0.935,1.14 1.812,2.322 2.631,3.547 0.819,1.226 1.576,2.488 2.27,3.788 0.695,1.3 1.325,2.631 1.889,3.992 0.564,1.362 1.059,2.748 1.487,4.158 0.428,1.411 0.786,2.838 1.073,4.284 0.288,1.445 0.504,2.902 0.648,4.368 C -0.072,-2.944 0,-1.474 0,0 Z"
               style="fill:none;stroke:#d6b656;stroke-width:1;stroke-linecap:butt;stroke-linejoin:miter;stroke-miterlimit:4;stroke-dasharray:none;stroke-opacity:1"
               id="path28" /></g><g
             id="g30"
             transform="matrix(1.3912089,0,0,-1.3912089,-0.5,311.01949)"><text
               transform="matrix(1,0,0,-1,20.1151,137.6641)"
               style="font-variant:normal;font-weight:bold;font-size:10.782px;font-family:'Courier New';-inkscape-font-specification:CourierNewPS-BoldMT;writing-mode:lr-tb;fill:#000000;fill-opacity:1;fill-rule:nonzero;stroke:none"
               id="text34"><tspan
                 x="0 6.470253 12.940506 19.410759"
                 y="0"
                 id="tspan32">init</tspan></text><g
               id="g36"
               transform="matrix(0.7187993,0,0,-0.7187993,0.3593997,223.5606)"><g
                 id="g38"
                 transform="translate(54,59)"><path
                   d="M 0,0 C 0,0.657 -0.051,1.307 -0.154,1.951 -0.256,2.595 -0.408,3.22 -0.609,3.827 -0.81,4.433 -1.056,5.01 -1.348,5.556 -1.64,6.102 -1.972,6.607 -2.343,7.071 -2.715,7.535 -3.119,7.95 -3.555,8.315 -3.992,8.679 -4.453,8.988 -4.939,9.239 -5.424,9.49 -5.924,9.68 -6.439,9.808 -6.954,9.936 -7.475,10 -8,10 -8.525,10 -9.046,9.936 -9.561,9.808 -10.076,9.68 -10.576,9.49 -11.061,9.239 -11.547,8.988 -12.008,8.679 -12.445,8.315 -12.881,7.95 -13.285,7.535 -13.657,7.071 -14.028,6.607 -14.36,6.102 -14.652,5.556 -14.944,5.01 -15.19,4.433 -15.391,3.827 -15.592,3.22 -15.744,2.595 -15.846,1.951 -15.949,1.307 -16,0.657 -16,0 c 0,-0.657 0.051,-1.307 0.154,-1.951 0.102,-0.644 0.254,-1.269 0.455,-1.876 0.201,-0.606 0.447,-1.183 0.739,-1.729 0.292,-0.546 0.624,-1.051 0.995,-1.515 0.372,-0.464 0.776,-0.879 1.212,-1.244 0.437,-0.364 0.898,-0.673 1.384,-0.924 0.485,-0.251 0.985,-0.441 1.5,-0.569 C -9.046,-9.936 -8.525,-10 -8,-10 c 0.525,0 1.046,0.064 1.561,0.192 0.515,0.128 1.015,0.318 1.5,0.569 0.486,0.251 0.947,0.56 1.384,0.924 0.436,0.365 0.84,0.78 1.212,1.244 0.371,0.464 0.703,0.969 0.995,1.515 0.292,0.546 0.538,1.123 0.739,1.729 0.201,0.607 0.353,1.232 0.455,1.876 C -0.051,-1.307 0,-0.657 0,0 Z"
                   style="fill:#dae8fc;fill-opacity:1;fill-rule:nonzero;stroke:none"
                   id="path40" /></g></g><g
               id="g42"
               transform="matrix(0.7187993,0,0,-0.7187993,0.3593997,223.5606)"><g
                 id="g44"
                 transform="translate(54,59)"><path
                   d="M 0,0 C 0,0.657 -0.051,1.307 -0.154,1.951 -0.256,2.595 -0.408,3.22 -0.609,3.827 -0.81,4.433 -1.056,5.01 -1.348,5.556 -1.64,6.102 -1.972,6.607 -2.343,7.071 -2.715,7.535 -3.119,7.95 -3.555,8.315 -3.992,8.679 -4.453,8.988 -4.939,9.239 -5.424,9.49 -5.924,9.68 -6.439,9.808 -6.954,9.936 -7.475,10 -8,10 -8.525,10 -9.046,9.936 -9.561,9.808 -10.076,9.68 -10.576,9.49 -11.061,9.239 -11.547,8.988 -12.008,8.679 -12.445,8.315 -12.881,7.95 -13.285,7.535 -13.657,7.071 -14.028,6.607 -14.36,6.102 -14.652,5.556 -14.944,5.01 -15.19,4.433 -15.391,3.827 -15.592,3.22 -15.744,2.595 -15.846,1.951 -15.949,1.307 -16,0.657 -16,0 c 0,-0.657 0.051,-1.307 0.154,-1.951 0.102,-0.644 0.254,-1.269 0.455,-1.876 0.201,-0.606 0.447,-1.183 0.739,-1.729 0.292,-0.546 0.624,-1.051 0.995,-1.515 0.372,-0.464 0.776,-0.879 1.212,-1.244 0.437,-0.364 0.898,-0.673 1.384,-0.924 0.485,-0.251 0.985,-0.441 1.5,-0.569 C -9.046,-9.936 -8.525,-10 -8,-10 c 0.525,0 1.046,0.064 1.561,0.192 0.515,0.128 1.015,0.318 1.5,0.569 0.486,0.251 0.947,0.56 1.384,0.924 0.436,0.365 0.84,0.78 1.212,1.244 0.371,0.464 0.703,0.969 0.995,1.515 0.292,0.546 0.538,1.123 0.739,1.729 0.201,0.607 0.353,1.232 0.455,1.876 C -0.051,-1.307 0,-0.657 0,0 Z"
                   style="fill:none;stroke:#6c8ebf;stroke-width:1;stroke-linecap:butt;stroke-linejoin:miter;stroke-miterlimit:4;stroke-dasharray:none;stroke-opacity:1"
                   id="path46" /></g></g><g
               id="g48"
               transform="matrix(0.7187993,0,0,-0.7187993,0.3593997,223.5606)"><g
                 id="g50"
                 transform="translate(271,114)"><path
                   d="M 0,0 H 87.76"
                   style="fill:none;stroke:#000000;stroke-width:1;stroke-linecap:butt;stroke-linejoin:miter;stroke-miterlimit:10;stroke-dasharray:none;stroke-opacity:1"
                   id="path52" /></g></g><g
               id="g54"
               transform="matrix(0.7187993,0,0,-0.7187993,0.3593997,223.5606)"><g
                 id="g56"
                 transform="translate(346.88,120.5)"><path
                   d="M 0,0 13,-6.5 0,-13"
                   style="fill:none;stroke:#000000;stroke-width:1;stroke-linecap:butt;stroke-linejoin:miter;stroke-miterlimit:10;stroke-dasharray:none;stroke-opacity:1"
                   id="path58" /></g></g><text
               transform="matrix(1,0,0,-1,204.4984,149.8837)"
               style="font-variant:normal;font-weight:bold;font-size:10.782px;font-family:'Courier New';-inkscape-font-specification:CourierNewPS-BoldMT;writing-mode:lr-tb;fill:#000000;fill-opacity:1;fill-rule:nonzero;stroke:none"
               id="text62"><tspan
                 x="0 6.470253 12.940506 19.410759 25.881012 32.351265"
                 y="0"
                 id="tspan60">switch</tspan></text><g
               id="g64"
               transform="matrix(0.7187993,0,0,-0.7187993,0.3593997,223.5606)"><g
                 id="g66"
                 transform="translate(217.72,158.19)"><path
                   d="m 0,0 -0.02,10.81 0.16,48.3"
                   style="fill:none;stroke:#000000;stroke-width:1;stroke-linecap:butt;stroke-linejoin:miter;stroke-miterlimit:10;stroke-dasharray:none;stroke-opacity:1"
                   id="path68" /></g></g><g
               id="g70"
               transform="matrix(0.7187993,0,0,-0.7187993,0.3593997,223.5606)"><g
                 id="g72"
                 transform="translate(211.32,205.44)"><path
                   d="M 0,0 6.55,12.98 13,-0.04"
                   style="fill:none;stroke:#000000;stroke-width:1;stroke-linecap:butt;stroke-linejoin:miter;stroke-miterlimit:10;stroke-dasharray:none;stroke-opacity:1"
                   id="path74" /></g></g><text
               transform="matrix(1,0,0,-1,136.2125,85.9105)"
               style="font-variant:normal;font-weight:bold;font-size:10.782px;font-family:'Courier New';-inkscape-font-specification:CourierNewPS-BoldMT;writing-mode:lr-tb;fill:#000000;fill-opacity:1;fill-rule:nonzero;stroke:none"
               id="text78"><tspan
                 x="0 6.470253"
                 y="0"
                 id="tspan76">m1</tspan></text><g
               id="g80"
               transform="matrix(0.7187993,0,0,-0.7187993,0.3593997,223.5606)"><g
                 id="g82"
                 transform="translate(271,114)"><path
                   d="m 0,0 c 0,1.474 -0.072,2.944 -0.217,4.411 -0.144,1.466 -0.36,2.923 -0.648,4.368 -0.287,1.446 -0.645,2.873 -1.073,4.284 -0.428,1.41 -0.923,2.796 -1.487,4.158 -0.564,1.361 -1.194,2.692 -1.889,3.992 -0.694,1.3 -1.451,2.562 -2.27,3.788 -0.819,1.225 -1.696,2.407 -2.631,3.547 -0.935,1.139 -1.923,2.23 -2.965,3.272 -1.042,1.042 -2.133,2.03 -3.272,2.965 -1.14,0.935 -2.322,1.812 -3.547,2.631 -1.226,0.819 -2.488,1.576 -3.788,2.27 -1.3,0.695 -2.631,1.325 -3.992,1.889 -1.362,0.564 -2.748,1.059 -4.158,1.487 -1.411,0.428 -2.838,0.786 -4.284,1.073 -1.445,0.288 -2.902,0.504 -4.368,0.648 C -42.056,44.928 -43.526,45 -45,45 c -1.474,0 -2.944,-0.072 -4.411,-0.217 -1.466,-0.144 -2.923,-0.36 -4.368,-0.648 -1.446,-0.287 -2.873,-0.645 -4.284,-1.073 -1.41,-0.428 -2.796,-0.923 -4.158,-1.487 -1.361,-0.564 -2.692,-1.194 -3.992,-1.889 -1.3,-0.694 -2.562,-1.451 -3.788,-2.27 -1.225,-0.819 -2.407,-1.696 -3.547,-2.631 -1.139,-0.935 -2.23,-1.923 -3.272,-2.965 -1.042,-1.042 -2.03,-2.133 -2.965,-3.272 -0.935,-1.14 -1.812,-2.322 -2.631,-3.547 -0.819,-1.226 -1.576,-2.488 -2.27,-3.788 -0.695,-1.3 -1.325,-2.631 -1.889,-3.992 -0.564,-1.362 -1.06,-2.748 -1.487,-4.158 -0.428,-1.411 -0.786,-2.838 -1.073,-4.284 C -89.423,7.334 -89.639,5.877 -89.783,4.411 -89.928,2.944 -90,1.474 -90,0 c 0,-1.474 0.072,-2.944 0.217,-4.411 0.144,-1.466 0.36,-2.923 0.648,-4.368 0.287,-1.446 0.645,-2.873 1.073,-4.284 0.427,-1.41 0.923,-2.796 1.487,-4.158 0.564,-1.361 1.194,-2.692 1.889,-3.992 0.694,-1.3 1.451,-2.562 2.27,-3.788 0.819,-1.225 1.696,-2.407 2.631,-3.547 0.935,-1.139 1.923,-2.23 2.965,-3.272 1.042,-1.042 2.133,-2.031 3.272,-2.965 1.14,-0.935 2.322,-1.812 3.547,-2.631 1.226,-0.819 2.488,-1.576 3.788,-2.27 1.3,-0.695 2.631,-1.325 3.992,-1.889 1.362,-0.564 2.748,-1.059 4.158,-1.487 1.411,-0.428 2.838,-0.786 4.284,-1.073 1.445,-0.288 2.902,-0.504 4.368,-0.648 1.467,-0.145 2.937,-0.217 4.411,-0.217 1.474,0 2.944,0.072 4.411,0.217 1.466,0.144 2.923,0.36 4.368,0.648 1.446,0.287 2.873,0.645 4.284,1.073 1.41,0.428 2.796,0.923 4.158,1.487 1.361,0.564 2.692,1.194 3.992,1.889 1.3,0.694 2.562,1.451 3.788,2.27 1.225,0.819 2.407,1.696 3.547,2.631 1.139,0.934 2.23,1.923 3.272,2.965 1.042,1.042 2.03,2.133 2.965,3.272 0.935,1.14 1.812,2.322 2.631,3.547 0.819,1.226 1.576,2.488 2.27,3.788 0.695,1.3 1.325,2.631 1.889,3.992 0.564,1.362 1.059,2.748 1.487,4.158 0.428,1.411 0.786,2.838 1.073,4.284 0.288,1.445 0.504,2.902 0.648,4.368 C -0.072,-2.944 0,-1.474 0,0 Z"
                   style="fill:#d5e8d4;fill-opacity:1;fill-rule:nonzero;stroke:none"
                   id="path84" /></g></g><g
               id="g86"
               transform="matrix(0.7187993,0,0,-0.7187993,0.3593997,223.5606)"><g
                 id="g88"
                 transform="translate(271,114)"><path
                   d="m 0,0 c 0,1.474 -0.072,2.944 -0.217,4.411 -0.144,1.466 -0.36,2.923 -0.648,4.368 -0.287,1.446 -0.645,2.873 -1.073,4.284 -0.428,1.41 -0.923,2.796 -1.487,4.158 -0.564,1.361 -1.194,2.692 -1.889,3.992 -0.694,1.3 -1.451,2.562 -2.27,3.788 -0.819,1.225 -1.696,2.407 -2.631,3.547 -0.935,1.139 -1.923,2.23 -2.965,3.272 -1.042,1.042 -2.133,2.03 -3.272,2.965 -1.14,0.935 -2.322,1.812 -3.547,2.631 -1.226,0.819 -2.488,1.576 -3.788,2.27 -1.3,0.695 -2.631,1.325 -3.992,1.889 -1.362,0.564 -2.748,1.059 -4.158,1.487 -1.411,0.428 -2.838,0.786 -4.284,1.073 -1.445,0.288 -2.902,0.504 -4.368,0.648 C -42.056,44.928 -43.526,45 -45,45 c -1.474,0 -2.944,-0.072 -4.411,-0.217 -1.466,-0.144 -2.923,-0.36 -4.368,-0.648 -1.446,-0.287 -2.873,-0.645 -4.284,-1.073 -1.41,-0.428 -2.796,-0.923 -4.158,-1.487 -1.361,-0.564 -2.692,-1.194 -3.992,-1.889 -1.3,-0.694 -2.562,-1.451 -3.788,-2.27 -1.225,-0.819 -2.407,-1.696 -3.547,-2.631 -1.139,-0.935 -2.23,-1.923 -3.272,-2.965 -1.042,-1.042 -2.03,-2.133 -2.965,-3.272 -0.935,-1.14 -1.812,-2.322 -2.631,-3.547 -0.819,-1.226 -1.576,-2.488 -2.27,-3.788 -0.695,-1.3 -1.325,-2.631 -1.889,-3.992 -0.564,-1.362 -1.06,-2.748 -1.487,-4.158 -0.428,-1.411 -0.786,-2.838 -1.073,-4.284 C -89.423,7.334 -89.639,5.877 -89.783,4.411 -89.928,2.944 -90,1.474 -90,0 c 0,-1.474 0.072,-2.944 0.217,-4.411 0.144,-1.466 0.36,-2.923 0.648,-4.368 0.287,-1.446 0.645,-2.873 1.073,-4.284 0.427,-1.41 0.923,-2.796 1.487,-4.158 0.564,-1.361 1.194,-2.692 1.889,-3.992 0.694,-1.3 1.451,-2.562 2.27,-3.788 0.819,-1.225 1.696,-2.407 2.631,-3.547 0.935,-1.139 1.923,-2.23 2.965,-3.272 1.042,-1.042 2.133,-2.031 3.272,-2.965 1.14,-0.935 2.322,-1.812 3.547,-2.631 1.226,-0.819 2.488,-1.576 3.788,-2.27 1.3,-0.695 2.631,-1.325 3.992,-1.889 1.362,-0.564 2.748,-1.059 4.158,-1.487 1.411,-0.428 2.838,-0.786 4.284,-1.073 1.445,-0.288 2.902,-0.504 4.368,-0.648 1.467,-0.145 2.937,-0.217 4.411,-0.217 1.474,0 2.944,0.072 4.411,0.217 1.466,0.144 2.923,0.36 4.368,0.648 1.446,0.287 2.873,0.645 4.284,1.073 1.41,0.428 2.796,0.923 4.158,1.487 1.361,0.564 2.692,1.194 3.992,1.889 1.3,0.694 2.562,1.451 3.788,2.27 1.225,0.819 2.407,1.696 3.547,2.631 1.139,0.934 2.23,1.923 3.272,2.965 1.042,1.042 2.03,2.133 2.965,3.272 0.935,1.14 1.812,2.322 2.631,3.547 0.819,1.226 1.576,2.488 2.27,3.788 0.695,1.3 1.325,2.631 1.889,3.992 0.564,1.362 1.059,2.748 1.487,4.158 0.428,1.411 0.786,2.838 1.073,4.284 0.288,1.445 0.504,2.902 0.648,4.368 C -0.072,-2.944 0,-1.474 0,0 Z"
                   style="fill:none;stroke:#82b366;stroke-width:1;stroke-linecap:butt;stroke-linejoin:miter;stroke-miterlimit:4;stroke-dasharray:none;stroke-opacity:1"
                   id="path90" /></g></g><text
               transform="matrix(1,0,0,-1,139.7952,139.1017)"
               style="font-variant:normal;font-weight:bold;font-size:10.782px;font-family:'Courier New';-inkscape-font-specification:CourierNewPS-BoldMT;writing-mode:lr-tb;fill:#000000;fill-opacity:1;fill-rule:nonzero;stroke:none"
               id="text94"><tspan
                 x="0 6.470253 12.940506 19.410759 25.881012 32.351265 38.821518"
                 y="0"
                 id="tspan92">morning</tspan></text><g
               id="g96"
               transform="matrix(0.7187993,0,0,-0.7187993,0.3593997,223.5606)"><g
                 id="g98"
                 transform="translate(91,114)"><path
                   d="M 0,0 H 87.76"
                   style="fill:none;stroke:#000000;stroke-width:1;stroke-linecap:butt;stroke-linejoin:miter;stroke-miterlimit:10;stroke-dasharray:none;stroke-opacity:1"
                   id="path100" /></g></g><g
               id="g102"
               transform="matrix(0.7187993,0,0,-0.7187993,0.3593997,223.5606)"><g
                 id="g104"
                 transform="translate(166.88,120.5)"><path
                   d="M 0,0 13,-6.5 0,-13"
                   style="fill:none;stroke:#000000;stroke-width:1;stroke-linecap:butt;stroke-linejoin:miter;stroke-miterlimit:10;stroke-dasharray:none;stroke-opacity:1"
                   id="path106" /></g></g><text
               transform="matrix(1,0,0,-1,88.4909,148.4461)"
               style="font-variant:normal;font-weight:bold;font-size:10.5376px;font-family:'Courier New';-inkscape-font-specification:CourierNewPS-BoldMT;writing-mode:lr-tb;fill:#000000;fill-opacity:1;fill-rule:nonzero;stroke:none"
               id="text110"><tspan
                 x="0"
                 y="0"
                 id="tspan108">ε</tspan></text><text
               transform="matrix(1,0,0,-1,94.814494,148.4461)"
               style="font-variant:normal;font-weight:bold;font-size:10.782px;font-family:'Courier New';-inkscape-font-specification:CourierNewPS-BoldMT;writing-mode:lr-tb;fill:#000000;fill-opacity:1;fill-rule:nonzero;stroke:none"
               id="text114"><tspan
                 x="0 6.470253"
                 y="0"
                 id="tspan112">-m</tspan></text><g
               id="g116"
               transform="matrix(0.7187993,0,0,-0.7187993,0.3593997,223.5606)"><g
                 id="g118"
                 transform="translate(451,114)"><path
                   d="M 0,0 H 87.76"
                   style="fill:none;stroke:#000000;stroke-width:1;stroke-linecap:butt;stroke-linejoin:miter;stroke-miterlimit:10;stroke-dasharray:none;stroke-opacity:1"
                   id="path120" /></g></g><g
               id="g122"
               transform="matrix(0.7187993,0,0,-0.7187993,0.3593997,223.5606)"><g
                 id="g124"
                 transform="translate(526.88,120.5)"><path
                   d="M 0,0 13,-6.5 0,-13"
                   style="fill:none;stroke:#000000;stroke-width:1;stroke-linecap:butt;stroke-linejoin:miter;stroke-miterlimit:10;stroke-dasharray:none;stroke-opacity:1"
                   id="path126" /></g></g><g
               id="g128"
               transform="matrix(0.7187993,0,0,-0.7187993,0,223.92)"><path
                 d="m 465,91 h 54 v 17 h -54 z"
                 style="fill:#f8f9fa;fill-opacity:1;fill-rule:nonzero;stroke:none"
                 id="path130" /></g><text
               transform="matrix(1,0,0,-1,333.8823,149.8837)"
               style="font-variant:normal;font-weight:bold;font-size:10.782px;font-family:'Courier New';-inkscape-font-specification:CourierNewPS-BoldMT;writing-mode:lr-tb;fill:#000000;fill-opacity:1;fill-rule:nonzero;stroke:none"
               id="text134"><tspan
                 x="0 6.470253 12.940506 19.410759 25.881012 32.351265"
                 y="0"
                 id="tspan132">switch</tspan></text><g
               id="g136"
               transform="matrix(0.7187993,0,0,-0.7187993,0.3593997,223.5606)"><g
                 id="g138"
                 transform="translate(451,114)"><path
                   d="m 0,0 c 0,1.474 -0.072,2.944 -0.217,4.411 -0.144,1.466 -0.36,2.923 -0.648,4.368 -0.287,1.446 -0.645,2.873 -1.073,4.284 -0.428,1.41 -0.923,2.796 -1.487,4.158 -0.564,1.361 -1.194,2.692 -1.889,3.992 -0.694,1.3 -1.451,2.562 -2.27,3.788 -0.819,1.225 -1.696,2.407 -2.631,3.547 -0.935,1.139 -1.923,2.23 -2.965,3.272 -1.042,1.042 -2.133,2.03 -3.272,2.965 -1.14,0.935 -2.322,1.812 -3.547,2.631 -1.226,0.819 -2.488,1.576 -3.788,2.27 -1.3,0.695 -2.631,1.325 -3.992,1.889 -1.362,0.564 -2.748,1.059 -4.158,1.487 -1.411,0.428 -2.839,0.786 -4.284,1.073 -1.445,0.288 -2.902,0.504 -4.368,0.648 C -42.056,44.928 -43.526,45 -45,45 c -1.474,0 -2.944,-0.072 -4.411,-0.217 -1.466,-0.144 -2.923,-0.36 -4.368,-0.648 -1.446,-0.287 -2.873,-0.645 -4.284,-1.073 -1.41,-0.428 -2.796,-0.923 -4.158,-1.487 -1.361,-0.564 -2.692,-1.194 -3.992,-1.889 -1.3,-0.694 -2.562,-1.451 -3.788,-2.27 -1.225,-0.819 -2.407,-1.696 -3.547,-2.631 -1.139,-0.935 -2.23,-1.923 -3.272,-2.965 -1.042,-1.042 -2.03,-2.133 -2.965,-3.272 -0.935,-1.14 -1.812,-2.322 -2.631,-3.547 -0.819,-1.226 -1.576,-2.488 -2.27,-3.788 -0.695,-1.3 -1.325,-2.631 -1.889,-3.992 -0.564,-1.362 -1.059,-2.748 -1.487,-4.158 -0.428,-1.411 -0.786,-2.838 -1.073,-4.284 C -89.423,7.334 -89.639,5.877 -89.783,4.411 -89.928,2.944 -90,1.474 -90,0 c 0,-1.474 0.072,-2.944 0.217,-4.411 0.144,-1.466 0.36,-2.923 0.648,-4.368 0.287,-1.446 0.645,-2.873 1.073,-4.284 0.428,-1.41 0.923,-2.796 1.487,-4.158 0.564,-1.361 1.194,-2.692 1.889,-3.992 0.694,-1.3 1.451,-2.562 2.27,-3.788 0.819,-1.225 1.696,-2.407 2.631,-3.547 0.935,-1.139 1.923,-2.23 2.965,-3.272 1.042,-1.042 2.133,-2.031 3.272,-2.965 1.14,-0.935 2.322,-1.812 3.547,-2.631 1.226,-0.819 2.488,-1.576 3.788,-2.27 1.3,-0.695 2.631,-1.325 3.992,-1.889 1.362,-0.564 2.748,-1.059 4.158,-1.487 1.411,-0.428 2.838,-0.786 4.284,-1.073 1.445,-0.288 2.902,-0.504 4.368,-0.648 1.467,-0.145 2.937,-0.217 4.411,-0.217 1.474,0 2.944,0.072 4.411,0.217 1.466,0.144 2.923,0.36 4.368,0.648 1.445,0.287 2.873,0.645 4.284,1.073 1.41,0.428 2.796,0.923 4.158,1.487 1.361,0.564 2.692,1.194 3.992,1.889 1.3,0.694 2.562,1.451 3.788,2.27 1.225,0.819 2.407,1.696 3.547,2.631 1.139,0.934 2.23,1.923 3.272,2.965 1.042,1.042 2.03,2.133 2.965,3.272 0.935,1.14 1.812,2.322 2.631,3.547 0.819,1.226 1.576,2.488 2.27,3.788 0.695,1.3 1.325,2.631 1.889,3.992 0.564,1.362 1.059,2.748 1.487,4.158 0.428,1.411 0.786,2.838 1.073,4.284 0.288,1.445 0.504,2.902 0.648,4.368 C -0.072,-2.944 0,-1.474 0,0 Z"
                   style="fill:#d5e8d4;fill-opacity:1;fill-rule:nonzero;stroke:none"
                   id="path140" /></g></g><g
               id="g142"
               transform="matrix(0.7187993,0,0,-0.7187993,0.3593997,223.5606)"><g
                 id="g144"
                 transform="translate(451,114)"><path
                   d="m 0,0 c 0,1.474 -0.072,2.944 -0.217,4.411 -0.144,1.466 -0.36,2.923 -0.648,4.368 -0.287,1.446 -0.645,2.873 -1.073,4.284 -0.428,1.41 -0.923,2.796 -1.487,4.158 -0.564,1.361 -1.194,2.692 -1.889,3.992 -0.694,1.3 -1.451,2.562 -2.27,3.788 -0.819,1.225 -1.696,2.407 -2.631,3.547 -0.935,1.139 -1.923,2.23 -2.965,3.272 -1.042,1.042 -2.133,2.03 -3.272,2.965 -1.14,0.935 -2.322,1.812 -3.547,2.631 -1.226,0.819 -2.488,1.576 -3.788,2.27 -1.3,0.695 -2.631,1.325 -3.992,1.889 -1.362,0.564 -2.748,1.059 -4.158,1.487 -1.411,0.428 -2.839,0.786 -4.284,1.073 -1.445,0.288 -2.902,0.504 -4.368,0.648 C -42.056,44.928 -43.526,45 -45,45 c -1.474,0 -2.944,-0.072 -4.411,-0.217 -1.466,-0.144 -2.923,-0.36 -4.368,-0.648 -1.446,-0.287 -2.873,-0.645 -4.284,-1.073 -1.41,-0.428 -2.796,-0.923 -4.158,-1.487 -1.361,-0.564 -2.692,-1.194 -3.992,-1.889 -1.3,-0.694 -2.562,-1.451 -3.788,-2.27 -1.225,-0.819 -2.407,-1.696 -3.547,-2.631 -1.139,-0.935 -2.23,-1.923 -3.272,-2.965 -1.042,-1.042 -2.03,-2.133 -2.965,-3.272 -0.935,-1.14 -1.812,-2.322 -2.631,-3.547 -0.819,-1.226 -1.576,-2.488 -2.27,-3.788 -0.695,-1.3 -1.325,-2.631 -1.889,-3.992 -0.564,-1.362 -1.059,-2.748 -1.487,-4.158 -0.428,-1.411 -0.786,-2.838 -1.073,-4.284 C -89.423,7.334 -89.639,5.877 -89.783,4.411 -89.928,2.944 -90,1.474 -90,0 c 0,-1.474 0.072,-2.944 0.217,-4.411 0.144,-1.466 0.36,-2.923 0.648,-4.368 0.287,-1.446 0.645,-2.873 1.073,-4.284 0.428,-1.41 0.923,-2.796 1.487,-4.158 0.564,-1.361 1.194,-2.692 1.889,-3.992 0.694,-1.3 1.451,-2.562 2.27,-3.788 0.819,-1.225 1.696,-2.407 2.631,-3.547 0.935,-1.139 1.923,-2.23 2.965,-3.272 1.042,-1.042 2.133,-2.031 3.272,-2.965 1.14,-0.935 2.322,-1.812 3.547,-2.631 1.226,-0.819 2.488,-1.576 3.788,-2.27 1.3,-0.695 2.631,-1.325 3.992,-1.889 1.362,-0.564 2.748,-1.059 4.158,-1.487 1.411,-0.428 2.838,-0.786 4.284,-1.073 1.445,-0.288 2.902,-0.504 4.368,-0.648 1.467,-0.145 2.937,-0.217 4.411,-0.217 1.474,0 2.944,0.072 4.411,0.217 1.466,0.144 2.923,0.36 4.368,0.648 1.445,0.287 2.873,0.645 4.284,1.073 1.41,0.428 2.796,0.923 4.158,1.487 1.361,0.564 2.692,1.194 3.992,1.889 1.3,0.694 2.562,1.451 3.788,2.27 1.225,0.819 2.407,1.696 3.547,2.631 1.139,0.934 2.23,1.923 3.272,2.965 1.042,1.042 2.03,2.133 2.965,3.272 0.935,1.14 1.812,2.322 2.631,3.547 0.819,1.226 1.576,2.488 2.27,3.788 0.695,1.3 1.325,2.631 1.889,3.992 0.564,1.362 1.059,2.748 1.487,4.158 0.428,1.411 0.786,2.838 1.073,4.284 0.288,1.445 0.504,2.902 0.648,4.368 C -0.072,-2.944 0,-1.474 0,0 Z"
                   style="fill:none;stroke:#82b366;stroke-width:1;stroke-linecap:butt;stroke-linejoin:miter;stroke-miterlimit:4;stroke-dasharray:none;stroke-opacity:1"
                   id="path146" /></g></g><text
               transform="matrix(1,0,0,-1,262.7099,139.1017)"
               style="font-variant:normal;font-weight:bold;font-size:10.782px;font-family:'Courier New';-inkscape-font-specification:CourierNewPS-BoldMT;writing-mode:lr-tb;fill:#000000;fill-opacity:1;fill-rule:nonzero;stroke:none"
               id="text150"><tspan
                 x="0 6.470253 12.940506 19.410759 25.881012 32.351265 38.821518 45.291771 51.762024"
                 y="0"
                 id="tspan148">afternoon</tspan></text><g
               id="g152"
               transform="matrix(0.7187993,0,0,-0.7187993,0.3593997,223.5606)"><g
                 id="g154"
                 transform="translate(586,69)"><path
                   d="M 0,0 V -50 H -360 V -2.24"
                   style="fill:none;stroke:#000000;stroke-width:1;stroke-linecap:butt;stroke-linejoin:miter;stroke-miterlimit:10;stroke-dasharray:none;stroke-opacity:1"
                   id="path156" /></g></g><g
               id="g158"
               transform="matrix(0.7187993,0,0,-0.7187993,0.3593997,223.5606)"><g
                 id="g160"
                 transform="translate(219.5,54.88)"><path
                   d="M 0,0 6.5,13 13,0"
                   style="fill:none;stroke:#000000;stroke-width:1;stroke-linecap:butt;stroke-linejoin:miter;stroke-miterlimit:10;stroke-dasharray:none;stroke-opacity:1"
                   id="path162" /></g></g><text
               transform="matrix(1,0,0,-1,274.2219,213.8568)"
               style="font-variant:normal;font-weight:bold;font-size:10.782px;font-family:'Courier New';-inkscape-font-specification:CourierNewPS-BoldMT;writing-mode:lr-tb;fill:#000000;fill-opacity:1;fill-rule:nonzero;stroke:none"
               id="text166"><tspan
                 x="0 6.470253 12.940506 19.410759 25.881012 32.351265"
                 y="0"
                 id="tspan164">switch</tspan></text><g
               id="g168"
               transform="matrix(0.7187993,0,0,-0.7187993,0.3593997,223.5606)"><g
                 id="g170"
                 transform="translate(631,114)"><path
                   d="m 0,0 c 0,1.474 -0.072,2.944 -0.217,4.411 -0.144,1.466 -0.36,2.923 -0.648,4.368 -0.287,1.446 -0.645,2.873 -1.073,4.284 -0.428,1.41 -0.924,2.796 -1.488,4.158 -0.564,1.361 -1.193,2.692 -1.888,3.992 -0.694,1.3 -1.451,2.562 -2.27,3.788 -0.819,1.225 -1.696,2.407 -2.631,3.547 -0.935,1.139 -1.923,2.23 -2.965,3.272 -1.042,1.042 -2.133,2.03 -3.272,2.965 -1.14,0.935 -2.322,1.812 -3.547,2.631 -1.226,0.819 -2.488,1.576 -3.788,2.27 -1.3,0.695 -2.631,1.325 -3.992,1.889 -1.362,0.564 -2.748,1.059 -4.158,1.487 -1.411,0.428 -2.839,0.786 -4.284,1.073 -1.446,0.288 -2.902,0.504 -4.368,0.648 C -42.056,44.928 -43.526,45 -45,45 c -1.474,0 -2.944,-0.072 -4.411,-0.217 -1.467,-0.144 -2.923,-0.36 -4.368,-0.648 -1.446,-0.287 -2.874,-0.645 -4.284,-1.073 -1.41,-0.428 -2.796,-0.923 -4.158,-1.487 -1.361,-0.564 -2.692,-1.194 -3.992,-1.889 -1.3,-0.694 -2.562,-1.451 -3.788,-2.27 -1.225,-0.819 -2.407,-1.696 -3.547,-2.631 -1.139,-0.935 -2.23,-1.923 -3.272,-2.965 -1.042,-1.042 -2.031,-2.133 -2.966,-3.272 -0.934,-1.14 -1.811,-2.322 -2.63,-3.547 -0.819,-1.226 -1.576,-2.488 -2.271,-3.788 -0.694,-1.3 -1.324,-2.631 -1.888,-3.992 -0.564,-1.362 -1.06,-2.748 -1.487,-4.158 -0.428,-1.411 -0.786,-2.838 -1.073,-4.284 C -89.423,7.334 -89.639,5.877 -89.783,4.411 -89.928,2.944 -90,1.474 -90,0 c 0,-1.474 0.072,-2.944 0.217,-4.411 0.144,-1.466 0.36,-2.923 0.648,-4.368 0.287,-1.446 0.645,-2.873 1.073,-4.284 0.427,-1.41 0.923,-2.796 1.487,-4.158 0.564,-1.361 1.194,-2.692 1.888,-3.992 0.695,-1.3 1.452,-2.562 2.271,-3.788 0.819,-1.225 1.696,-2.407 2.63,-3.547 0.935,-1.139 1.924,-2.23 2.966,-3.272 1.042,-1.042 2.133,-2.031 3.272,-2.965 1.14,-0.935 2.322,-1.812 3.547,-2.631 1.226,-0.819 2.488,-1.576 3.788,-2.27 1.3,-0.695 2.631,-1.325 3.992,-1.889 1.362,-0.564 2.748,-1.059 4.158,-1.487 1.41,-0.428 2.838,-0.786 4.284,-1.073 1.445,-0.288 2.901,-0.504 4.368,-0.648 1.467,-0.145 2.937,-0.217 4.411,-0.217 1.474,0 2.944,0.072 4.411,0.217 1.466,0.144 2.922,0.36 4.368,0.648 1.445,0.287 2.873,0.645 4.284,1.073 1.41,0.428 2.796,0.923 4.158,1.487 1.361,0.564 2.692,1.194 3.992,1.889 1.3,0.694 2.562,1.451 3.788,2.27 1.225,0.819 2.407,1.696 3.547,2.631 1.139,0.934 2.23,1.923 3.272,2.965 1.042,1.042 2.03,2.133 2.965,3.272 0.935,1.14 1.812,2.322 2.631,3.547 0.819,1.226 1.576,2.488 2.27,3.788 0.695,1.3 1.324,2.631 1.888,3.992 0.564,1.362 1.06,2.748 1.488,4.158 0.428,1.411 0.786,2.838 1.073,4.284 0.288,1.445 0.504,2.902 0.648,4.368 C -0.072,-2.944 0,-1.474 0,0 Z"
                   style="fill:#d5e8d4;fill-opacity:1;fill-rule:nonzero;stroke:none"
                   id="path172" /></g></g><g
               id="g174"
               transform="matrix(0.7187993,0,0,-0.7187993,0.3593997,223.5606)"><g
                 id="g176"
                 transform="translate(631,114)"><path
                   d="m 0,0 c 0,1.474 -0.072,2.944 -0.217,4.411 -0.144,1.466 -0.36,2.923 -0.648,4.368 -0.287,1.446 -0.645,2.873 -1.073,4.284 -0.428,1.41 -0.924,2.796 -1.488,4.158 -0.564,1.361 -1.193,2.692 -1.888,3.992 -0.694,1.3 -1.451,2.562 -2.27,3.788 -0.819,1.225 -1.696,2.407 -2.631,3.547 -0.935,1.139 -1.923,2.23 -2.965,3.272 -1.042,1.042 -2.133,2.03 -3.272,2.965 -1.14,0.935 -2.322,1.812 -3.547,2.631 -1.226,0.819 -2.488,1.576 -3.788,2.27 -1.3,0.695 -2.631,1.325 -3.992,1.889 -1.362,0.564 -2.748,1.059 -4.158,1.487 -1.411,0.428 -2.839,0.786 -4.284,1.073 -1.446,0.288 -2.902,0.504 -4.368,0.648 C -42.056,44.928 -43.526,45 -45,45 c -1.474,0 -2.944,-0.072 -4.411,-0.217 -1.467,-0.144 -2.923,-0.36 -4.368,-0.648 -1.446,-0.287 -2.874,-0.645 -4.284,-1.073 -1.41,-0.428 -2.796,-0.923 -4.158,-1.487 -1.361,-0.564 -2.692,-1.194 -3.992,-1.889 -1.3,-0.694 -2.562,-1.451 -3.788,-2.27 -1.225,-0.819 -2.407,-1.696 -3.547,-2.631 -1.139,-0.935 -2.23,-1.923 -3.272,-2.965 -1.042,-1.042 -2.031,-2.133 -2.966,-3.272 -0.934,-1.14 -1.811,-2.322 -2.63,-3.547 -0.819,-1.226 -1.576,-2.488 -2.271,-3.788 -0.694,-1.3 -1.324,-2.631 -1.888,-3.992 -0.564,-1.362 -1.06,-2.748 -1.487,-4.158 -0.428,-1.411 -0.786,-2.838 -1.073,-4.284 C -89.423,7.334 -89.639,5.877 -89.783,4.411 -89.928,2.944 -90,1.474 -90,0 c 0,-1.474 0.072,-2.944 0.217,-4.411 0.144,-1.466 0.36,-2.923 0.648,-4.368 0.287,-1.446 0.645,-2.873 1.073,-4.284 0.427,-1.41 0.923,-2.796 1.487,-4.158 0.564,-1.361 1.194,-2.692 1.888,-3.992 0.695,-1.3 1.452,-2.562 2.271,-3.788 0.819,-1.225 1.696,-2.407 2.63,-3.547 0.935,-1.139 1.924,-2.23 2.966,-3.272 1.042,-1.042 2.133,-2.031 3.272,-2.965 1.14,-0.935 2.322,-1.812 3.547,-2.631 1.226,-0.819 2.488,-1.576 3.788,-2.27 1.3,-0.695 2.631,-1.325 3.992,-1.889 1.362,-0.564 2.748,-1.059 4.158,-1.487 1.41,-0.428 2.838,-0.786 4.284,-1.073 1.445,-0.288 2.901,-0.504 4.368,-0.648 1.467,-0.145 2.937,-0.217 4.411,-0.217 1.474,0 2.944,0.072 4.411,0.217 1.466,0.144 2.922,0.36 4.368,0.648 1.445,0.287 2.873,0.645 4.284,1.073 1.41,0.428 2.796,0.923 4.158,1.487 1.361,0.564 2.692,1.194 3.992,1.889 1.3,0.694 2.562,1.451 3.788,2.27 1.225,0.819 2.407,1.696 3.547,2.631 1.139,0.934 2.23,1.923 3.272,2.965 1.042,1.042 2.03,2.133 2.965,3.272 0.935,1.14 1.812,2.322 2.631,3.547 0.819,1.226 1.576,2.488 2.27,3.788 0.695,1.3 1.324,2.631 1.888,3.992 0.564,1.362 1.06,2.748 1.488,4.158 0.428,1.411 0.786,2.838 1.073,4.284 0.288,1.445 0.504,2.902 0.648,4.368 C -0.072,-2.944 0,-1.474 0,0 Z"
                   style="fill:none;stroke:#82b366;stroke-width:1;stroke-linecap:butt;stroke-linejoin:miter;stroke-miterlimit:4;stroke-dasharray:none;stroke-opacity:1"
                   id="path178" /></g></g><text
               transform="matrix(1,0,0,-1,405.0322,139.1017)"
               style="font-variant:normal;font-weight:bold;font-size:10.782px;font-family:'Courier New';-inkscape-font-specification:CourierNewPS-BoldMT;writing-mode:lr-tb;fill:#000000;fill-opacity:1;fill-rule:nonzero;stroke:none"
               id="text182"><tspan
                 x="0 6.470253 12.940506 19.410759 25.881012"
                 y="0"
                 id="tspan180">night</tspan></text><g
               id="g184"
               transform="matrix(0.7187993,0,0,-0.7187993,0.3593997,223.5606)"><g
                 id="g186"
                 transform="translate(233.77,219.27)"><path
                   d="M 0,0 0.03,-25.07 -0.03,-58.66"
                   style="fill:none;stroke:#000000;stroke-width:1;stroke-linecap:butt;stroke-linejoin:miter;stroke-miterlimit:10;stroke-dasharray:none;stroke-opacity:1"
                   id="path188" /></g></g><g
               id="g190"
               transform="matrix(0.7187993,0,0,-0.7187993,0.3593997,223.5606)"><g
                 id="g192"
                 transform="translate(240.26,172.48)"><path
                   d="M 0,0 -6.52,-12.99 -13,0.02"
                   style="fill:none;stroke:#000000;stroke-width:1;stroke-linecap:butt;stroke-linejoin:miter;stroke-miterlimit:10;stroke-dasharray:none;stroke-opacity:1"
                   id="path194" /></g></g><text
               transform="matrix(1,0,0,-1,173.3093,85.9105)"
               style="font-variant:normal;font-weight:bold;font-size:10.5376px;font-family:'Courier New';-inkscape-font-specification:CourierNewPS-BoldMT;writing-mode:lr-tb;fill:#000000;fill-opacity:1;fill-rule:nonzero;stroke:none"
               id="text198"><tspan
                 x="0"
                 y="0"
                 id="tspan196">ε</tspan></text><text
               transform="matrix(1,0,0,-1,179.63289,85.9105)"
               style="font-variant:normal;font-weight:bold;font-size:10.782px;font-family:'Courier New';-inkscape-font-specification:CourierNewPS-BoldMT;writing-mode:lr-tb;fill:#000000;fill-opacity:1;fill-rule:nonzero;stroke:none"
               id="text202"><tspan
                 x="0 6.470253"
                 y="0"
                 id="tspan200">-m</tspan></text><g
               id="g204"
               transform="matrix(0.7187993,0,0,-0.7187993,0.3593997,223.5606)"><g
                 id="g206"
                 transform="translate(271,264)"><path
                   d="m 0,0 c 0,1.474 -0.072,2.944 -0.217,4.411 -0.144,1.466 -0.36,2.923 -0.648,4.368 -0.287,1.446 -0.645,2.873 -1.073,4.284 -0.428,1.41 -0.923,2.796 -1.487,4.158 -0.564,1.361 -1.194,2.692 -1.889,3.992 -0.694,1.3 -1.451,2.562 -2.27,3.788 -0.819,1.225 -1.696,2.407 -2.631,3.547 -0.935,1.139 -1.923,2.23 -2.965,3.272 -1.042,1.042 -2.133,2.03 -3.272,2.965 -1.14,0.935 -2.322,1.812 -3.547,2.631 -1.226,0.819 -2.488,1.576 -3.788,2.27 -1.3,0.695 -2.631,1.325 -3.992,1.889 -1.362,0.564 -2.748,1.059 -4.158,1.487 -1.411,0.428 -2.838,0.786 -4.284,1.073 -1.445,0.288 -2.902,0.504 -4.368,0.648 C -42.056,44.928 -43.526,45 -45,45 c -1.474,0 -2.944,-0.072 -4.411,-0.217 -1.466,-0.144 -2.923,-0.36 -4.368,-0.648 -1.446,-0.287 -2.873,-0.645 -4.284,-1.073 -1.41,-0.428 -2.796,-0.923 -4.158,-1.487 -1.361,-0.564 -2.692,-1.194 -3.992,-1.889 -1.3,-0.694 -2.562,-1.451 -3.788,-2.27 -1.225,-0.819 -2.407,-1.696 -3.547,-2.631 -1.139,-0.935 -2.23,-1.923 -3.272,-2.965 -1.042,-1.042 -2.03,-2.133 -2.965,-3.272 -0.935,-1.14 -1.812,-2.322 -2.631,-3.547 -0.819,-1.226 -1.576,-2.488 -2.27,-3.788 -0.695,-1.3 -1.325,-2.631 -1.889,-3.992 -0.564,-1.362 -1.06,-2.748 -1.487,-4.158 -0.428,-1.411 -0.786,-2.838 -1.073,-4.284 C -89.423,7.334 -89.639,5.877 -89.783,4.411 -89.928,2.944 -90,1.474 -90,0 c 0,-1.474 0.072,-2.944 0.217,-4.411 0.144,-1.467 0.36,-2.923 0.648,-4.368 0.287,-1.446 0.645,-2.873 1.073,-4.284 0.427,-1.41 0.923,-2.796 1.487,-4.158 0.564,-1.361 1.194,-2.692 1.889,-3.992 0.694,-1.3 1.451,-2.562 2.27,-3.788 0.819,-1.225 1.696,-2.407 2.631,-3.547 0.935,-1.139 1.923,-2.23 2.965,-3.272 1.042,-1.042 2.133,-2.03 3.272,-2.965 1.14,-0.935 2.322,-1.812 3.547,-2.631 1.226,-0.819 2.488,-1.576 3.788,-2.27 1.3,-0.695 2.631,-1.325 3.992,-1.889 1.362,-0.564 2.748,-1.059 4.158,-1.487 1.411,-0.428 2.838,-0.786 4.284,-1.073 1.445,-0.288 2.902,-0.504 4.368,-0.648 1.467,-0.145 2.937,-0.217 4.411,-0.217 1.474,0 2.944,0.072 4.411,0.217 1.466,0.144 2.923,0.36 4.368,0.648 1.446,0.287 2.873,0.645 4.284,1.073 1.41,0.428 2.796,0.923 4.158,1.487 1.361,0.564 2.692,1.194 3.992,1.889 1.3,0.694 2.562,1.451 3.788,2.27 1.225,0.819 2.407,1.696 3.547,2.631 1.139,0.935 2.23,1.923 3.272,2.965 1.042,1.042 2.03,2.133 2.965,3.272 0.935,1.14 1.812,2.322 2.631,3.547 0.819,1.226 1.576,2.488 2.27,3.788 0.695,1.3 1.325,2.631 1.889,3.992 0.564,1.362 1.059,2.748 1.487,4.158 0.428,1.411 0.786,2.838 1.073,4.284 0.288,1.445 0.504,2.901 0.648,4.368 C -0.072,-2.944 0,-1.474 0,0 Z"
                   style="fill:#ffe6cc;fill-opacity:1;fill-rule:nonzero;stroke:none"
                   id="path208" /></g></g><g
               id="g210"
               transform="matrix(0.7187993,0,0,-0.7187993,0.3593997,223.5606)"><g
                 id="g212"
                 transform="translate(271,264)"><path
                   d="m 0,0 c 0,1.474 -0.072,2.944 -0.217,4.411 -0.144,1.466 -0.36,2.923 -0.648,4.368 -0.287,1.446 -0.645,2.873 -1.073,4.284 -0.428,1.41 -0.923,2.796 -1.487,4.158 -0.564,1.361 -1.194,2.692 -1.889,3.992 -0.694,1.3 -1.451,2.562 -2.27,3.788 -0.819,1.225 -1.696,2.407 -2.631,3.547 -0.935,1.139 -1.923,2.23 -2.965,3.272 -1.042,1.042 -2.133,2.03 -3.272,2.965 -1.14,0.935 -2.322,1.812 -3.547,2.631 -1.226,0.819 -2.488,1.576 -3.788,2.27 -1.3,0.695 -2.631,1.325 -3.992,1.889 -1.362,0.564 -2.748,1.059 -4.158,1.487 -1.411,0.428 -2.838,0.786 -4.284,1.073 -1.445,0.288 -2.902,0.504 -4.368,0.648 C -42.056,44.928 -43.526,45 -45,45 c -1.474,0 -2.944,-0.072 -4.411,-0.217 -1.466,-0.144 -2.923,-0.36 -4.368,-0.648 -1.446,-0.287 -2.873,-0.645 -4.284,-1.073 -1.41,-0.428 -2.796,-0.923 -4.158,-1.487 -1.361,-0.564 -2.692,-1.194 -3.992,-1.889 -1.3,-0.694 -2.562,-1.451 -3.788,-2.27 -1.225,-0.819 -2.407,-1.696 -3.547,-2.631 -1.139,-0.935 -2.23,-1.923 -3.272,-2.965 -1.042,-1.042 -2.03,-2.133 -2.965,-3.272 -0.935,-1.14 -1.812,-2.322 -2.631,-3.547 -0.819,-1.226 -1.576,-2.488 -2.27,-3.788 -0.695,-1.3 -1.325,-2.631 -1.889,-3.992 -0.564,-1.362 -1.06,-2.748 -1.487,-4.158 -0.428,-1.411 -0.786,-2.838 -1.073,-4.284 C -89.423,7.334 -89.639,5.877 -89.783,4.411 -89.928,2.944 -90,1.474 -90,0 c 0,-1.474 0.072,-2.944 0.217,-4.411 0.144,-1.467 0.36,-2.923 0.648,-4.368 0.287,-1.446 0.645,-2.873 1.073,-4.284 0.427,-1.41 0.923,-2.796 1.487,-4.158 0.564,-1.361 1.194,-2.692 1.889,-3.992 0.694,-1.3 1.451,-2.562 2.27,-3.788 0.819,-1.225 1.696,-2.407 2.631,-3.547 0.935,-1.139 1.923,-2.23 2.965,-3.272 1.042,-1.042 2.133,-2.03 3.272,-2.965 1.14,-0.935 2.322,-1.812 3.547,-2.631 1.226,-0.819 2.488,-1.576 3.788,-2.27 1.3,-0.695 2.631,-1.325 3.992,-1.889 1.362,-0.564 2.748,-1.059 4.158,-1.487 1.411,-0.428 2.838,-0.786 4.284,-1.073 1.445,-0.288 2.902,-0.504 4.368,-0.648 1.467,-0.145 2.937,-0.217 4.411,-0.217 1.474,0 2.944,0.072 4.411,0.217 1.466,0.144 2.923,0.36 4.368,0.648 1.446,0.287 2.873,0.645 4.284,1.073 1.41,0.428 2.796,0.923 4.158,1.487 1.361,0.564 2.692,1.194 3.992,1.889 1.3,0.694 2.562,1.451 3.788,2.27 1.225,0.819 2.407,1.696 3.547,2.631 1.139,0.935 2.23,1.923 3.272,2.965 1.042,1.042 2.03,2.133 2.965,3.272 0.935,1.14 1.812,2.322 2.631,3.547 0.819,1.226 1.576,2.488 2.27,3.788 0.695,1.3 1.325,2.631 1.889,3.992 0.564,1.362 1.059,2.748 1.487,4.158 0.428,1.411 0.786,2.838 1.073,4.284 0.288,1.445 0.504,2.901 0.648,4.368 C -0.072,-2.944 0,-1.474 0,0 Z"
                   style="fill:none;stroke:#d79b00;stroke-width:1;stroke-linecap:butt;stroke-linejoin:miter;stroke-miterlimit:4;stroke-dasharray:none;stroke-opacity:1"
                   id="path214" /></g></g><text
               transform="matrix(1,0,0,-1,136.5606,31.2818)"
               style="font-variant:normal;font-weight:bold;font-size:10.782px;font-family:'Courier New';-inkscape-font-specification:CourierNewPS-BoldMT;writing-mode:lr-tb;fill:#000000;fill-opacity:1;fill-rule:nonzero;stroke:none"
               id="text218"><tspan
                 x="0 6.470253 12.940506 19.410759 25.881012 32.351265 38.821518 45.291771"
                 y="0"
                 id="tspan216">handleM1</tspan></text><g
               id="g220"
               transform="matrix(0.7187993,0,0,-0.7187993,0.3593997,223.5606)"><g
                 id="g222"
                 transform="translate(397.72,158.19)"><path
                   d="m 0,0 -0.02,10.81 0.16,48.3"
                   style="fill:none;stroke:#000000;stroke-width:1;stroke-linecap:butt;stroke-linejoin:miter;stroke-miterlimit:10;stroke-dasharray:none;stroke-opacity:1"
                   id="path224" /></g></g><g
               id="g226"
               transform="matrix(0.7187993,0,0,-0.7187993,0.3593997,223.5606)"><g
                 id="g228"
                 transform="translate(391.32,205.44)"><path
                   d="M 0,0 6.55,12.98 13,-0.04"
                   style="fill:none;stroke:#000000;stroke-width:1;stroke-linecap:butt;stroke-linejoin:miter;stroke-miterlimit:10;stroke-dasharray:none;stroke-opacity:1"
                   id="path230" /></g></g><text
               transform="matrix(1,0,0,-1,265.5963,85.9105)"
               style="font-variant:normal;font-weight:bold;font-size:10.782px;font-family:'Courier New';-inkscape-font-specification:CourierNewPS-BoldMT;writing-mode:lr-tb;fill:#000000;fill-opacity:1;fill-rule:nonzero;stroke:none"
               id="text234"><tspan
                 x="0 6.470253"
                 y="0"
                 id="tspan232">m2</tspan></text><g
               id="g236"
               transform="matrix(0.7187993,0,0,-0.7187993,0.3593997,223.5606)"><g
                 id="g238"
                 transform="translate(413.77,219.27)"><path
                   d="M 0,0 0.03,-10.27 -0.03,-58.66"
                   style="fill:none;stroke:#000000;stroke-width:1;stroke-linecap:butt;stroke-linejoin:miter;stroke-miterlimit:10;stroke-dasharray:none;stroke-opacity:1"
                   id="path240" /></g></g><g
               id="g242"
               transform="matrix(0.7187993,0,0,-0.7187993,0.3593997,223.5606)"><g
                 id="g244"
                 transform="translate(420.26,172.48)"><path
                   d="M 0,0 -6.52,-12.99 -13,0.02"
                   style="fill:none;stroke:#000000;stroke-width:1;stroke-linecap:butt;stroke-linejoin:miter;stroke-miterlimit:10;stroke-dasharray:none;stroke-opacity:1"
                   id="path246" /></g></g><text
               transform="matrix(1,0,0,-1,302.6931,85.9105)"
               style="font-variant:normal;font-weight:bold;font-size:10.5376px;font-family:'Courier New';-inkscape-font-specification:CourierNewPS-BoldMT;writing-mode:lr-tb;fill:#000000;fill-opacity:1;fill-rule:nonzero;stroke:none"
               id="text250"><tspan
                 x="0"
                 y="0"
                 id="tspan248">ε</tspan></text><text
               transform="matrix(1,0,0,-1,309.01669,85.9105)"
               style="font-variant:normal;font-weight:bold;font-size:10.782px;font-family:'Courier New';-inkscape-font-specification:CourierNewPS-BoldMT;writing-mode:lr-tb;fill:#000000;fill-opacity:1;fill-rule:nonzero;stroke:none"
               id="text254"><tspan
                 x="0 6.470253"
                 y="0"
                 id="tspan252">-m</tspan></text><g
               id="g256"
               transform="matrix(0.7187993,0,0,-0.7187993,0.3593997,223.5606)"><g
                 id="g258"
                 transform="translate(451,264)"><path
                   d="m 0,0 c 0,1.474 -0.072,2.944 -0.217,4.411 -0.144,1.466 -0.36,2.923 -0.648,4.368 -0.287,1.446 -0.645,2.873 -1.073,4.284 -0.428,1.41 -0.923,2.796 -1.487,4.158 -0.564,1.361 -1.194,2.692 -1.889,3.992 -0.694,1.3 -1.451,2.562 -2.27,3.788 -0.819,1.225 -1.696,2.407 -2.631,3.547 -0.935,1.139 -1.923,2.23 -2.965,3.272 -1.042,1.042 -2.133,2.03 -3.272,2.965 -1.14,0.935 -2.322,1.812 -3.547,2.631 -1.226,0.819 -2.488,1.576 -3.788,2.27 -1.3,0.695 -2.631,1.325 -3.992,1.889 -1.362,0.564 -2.748,1.059 -4.158,1.487 -1.411,0.428 -2.839,0.786 -4.284,1.073 -1.445,0.288 -2.902,0.504 -4.368,0.648 C -42.056,44.928 -43.526,45 -45,45 c -1.474,0 -2.944,-0.072 -4.411,-0.217 -1.466,-0.144 -2.923,-0.36 -4.368,-0.648 -1.446,-0.287 -2.873,-0.645 -4.284,-1.073 -1.41,-0.428 -2.796,-0.923 -4.158,-1.487 -1.361,-0.564 -2.692,-1.194 -3.992,-1.889 -1.3,-0.694 -2.562,-1.451 -3.788,-2.27 -1.225,-0.819 -2.407,-1.696 -3.547,-2.631 -1.139,-0.935 -2.23,-1.923 -3.272,-2.965 -1.042,-1.042 -2.03,-2.133 -2.965,-3.272 -0.935,-1.14 -1.812,-2.322 -2.631,-3.547 -0.819,-1.226 -1.576,-2.488 -2.27,-3.788 -0.695,-1.3 -1.325,-2.631 -1.889,-3.992 -0.564,-1.362 -1.059,-2.748 -1.487,-4.158 -0.428,-1.411 -0.786,-2.838 -1.073,-4.284 C -89.423,7.334 -89.639,5.877 -89.783,4.411 -89.928,2.944 -90,1.474 -90,0 c 0,-1.474 0.072,-2.944 0.217,-4.411 0.144,-1.467 0.36,-2.923 0.648,-4.368 0.287,-1.446 0.645,-2.873 1.073,-4.284 0.428,-1.41 0.923,-2.796 1.487,-4.158 0.564,-1.361 1.194,-2.692 1.889,-3.992 0.694,-1.3 1.451,-2.562 2.27,-3.788 0.819,-1.225 1.696,-2.407 2.631,-3.547 0.935,-1.139 1.923,-2.23 2.965,-3.272 1.042,-1.042 2.133,-2.03 3.272,-2.965 1.14,-0.935 2.322,-1.812 3.547,-2.631 1.226,-0.819 2.488,-1.576 3.788,-2.27 1.3,-0.695 2.631,-1.325 3.992,-1.889 1.362,-0.564 2.748,-1.059 4.158,-1.487 1.411,-0.428 2.838,-0.786 4.284,-1.073 1.445,-0.288 2.902,-0.504 4.368,-0.648 1.467,-0.145 2.937,-0.217 4.411,-0.217 1.474,0 2.944,0.072 4.411,0.217 1.466,0.144 2.923,0.36 4.368,0.648 1.445,0.287 2.873,0.645 4.284,1.073 1.41,0.428 2.796,0.923 4.158,1.487 1.361,0.564 2.692,1.194 3.992,1.889 1.3,0.694 2.562,1.451 3.788,2.27 1.225,0.819 2.407,1.696 3.547,2.631 1.139,0.935 2.23,1.923 3.272,2.965 1.042,1.042 2.03,2.133 2.965,3.272 0.935,1.14 1.812,2.322 2.631,3.547 0.819,1.226 1.576,2.488 2.27,3.788 0.695,1.3 1.325,2.631 1.889,3.992 0.564,1.362 1.059,2.748 1.487,4.158 0.428,1.411 0.786,2.838 1.073,4.284 0.288,1.445 0.504,2.901 0.648,4.368 C -0.072,-2.944 0,-1.474 0,0 Z"
                   style="fill:#ffe6cc;fill-opacity:1;fill-rule:nonzero;stroke:none"
                   id="path260" /></g></g><g
               id="g262"
               transform="matrix(0.7187993,0,0,-0.7187993,0.3593997,223.5606)"><g
                 id="g264"
                 transform="translate(451,264)"><path
                   d="m 0,0 c 0,1.474 -0.072,2.944 -0.217,4.411 -0.144,1.466 -0.36,2.923 -0.648,4.368 -0.287,1.446 -0.645,2.873 -1.073,4.284 -0.428,1.41 -0.923,2.796 -1.487,4.158 -0.564,1.361 -1.194,2.692 -1.889,3.992 -0.694,1.3 -1.451,2.562 -2.27,3.788 -0.819,1.225 -1.696,2.407 -2.631,3.547 -0.935,1.139 -1.923,2.23 -2.965,3.272 -1.042,1.042 -2.133,2.03 -3.272,2.965 -1.14,0.935 -2.322,1.812 -3.547,2.631 -1.226,0.819 -2.488,1.576 -3.788,2.27 -1.3,0.695 -2.631,1.325 -3.992,1.889 -1.362,0.564 -2.748,1.059 -4.158,1.487 -1.411,0.428 -2.839,0.786 -4.284,1.073 -1.445,0.288 -2.902,0.504 -4.368,0.648 C -42.056,44.928 -43.526,45 -45,45 c -1.474,0 -2.944,-0.072 -4.411,-0.217 -1.466,-0.144 -2.923,-0.36 -4.368,-0.648 -1.446,-0.287 -2.873,-0.645 -4.284,-1.073 -1.41,-0.428 -2.796,-0.923 -4.158,-1.487 -1.361,-0.564 -2.692,-1.194 -3.992,-1.889 -1.3,-0.694 -2.562,-1.451 -3.788,-2.27 -1.225,-0.819 -2.407,-1.696 -3.547,-2.631 -1.139,-0.935 -2.23,-1.923 -3.272,-2.965 -1.042,-1.042 -2.03,-2.133 -2.965,-3.272 -0.935,-1.14 -1.812,-2.322 -2.631,-3.547 -0.819,-1.226 -1.576,-2.488 -2.27,-3.788 -0.695,-1.3 -1.325,-2.631 -1.889,-3.992 -0.564,-1.362 -1.059,-2.748 -1.487,-4.158 -0.428,-1.411 -0.786,-2.838 -1.073,-4.284 C -89.423,7.334 -89.639,5.877 -89.783,4.411 -89.928,2.944 -90,1.474 -90,0 c 0,-1.474 0.072,-2.944 0.217,-4.411 0.144,-1.467 0.36,-2.923 0.648,-4.368 0.287,-1.446 0.645,-2.873 1.073,-4.284 0.428,-1.41 0.923,-2.796 1.487,-4.158 0.564,-1.361 1.194,-2.692 1.889,-3.992 0.694,-1.3 1.451,-2.562 2.27,-3.788 0.819,-1.225 1.696,-2.407 2.631,-3.547 0.935,-1.139 1.923,-2.23 2.965,-3.272 1.042,-1.042 2.133,-2.03 3.272,-2.965 1.14,-0.935 2.322,-1.812 3.547,-2.631 1.226,-0.819 2.488,-1.576 3.788,-2.27 1.3,-0.695 2.631,-1.325 3.992,-1.889 1.362,-0.564 2.748,-1.059 4.158,-1.487 1.411,-0.428 2.838,-0.786 4.284,-1.073 1.445,-0.288 2.902,-0.504 4.368,-0.648 1.467,-0.145 2.937,-0.217 4.411,-0.217 1.474,0 2.944,0.072 4.411,0.217 1.466,0.144 2.923,0.36 4.368,0.648 1.445,0.287 2.873,0.645 4.284,1.073 1.41,0.428 2.796,0.923 4.158,1.487 1.361,0.564 2.692,1.194 3.992,1.889 1.3,0.694 2.562,1.451 3.788,2.27 1.225,0.819 2.407,1.696 3.547,2.631 1.139,0.935 2.23,1.923 3.272,2.965 1.042,1.042 2.03,2.133 2.965,3.272 0.935,1.14 1.812,2.322 2.631,3.547 0.819,1.226 1.576,2.488 2.27,3.788 0.695,1.3 1.325,2.631 1.889,3.992 0.564,1.362 1.059,2.748 1.487,4.158 0.428,1.411 0.786,2.838 1.073,4.284 0.288,1.445 0.504,2.901 0.648,4.368 C -0.072,-2.944 0,-1.474 0,0 Z"
                   style="fill:none;stroke:#d79b00;stroke-width:1;stroke-linecap:butt;stroke-linejoin:miter;stroke-miterlimit:4;stroke-dasharray:none;stroke-opacity:1"
                   id="path266" /></g></g><text
               transform="matrix(1,0,0,-1,265.9445,31.2818)"
               style="font-variant:normal;font-weight:bold;font-size:10.782px;font-family:'Courier New';-inkscape-font-specification:CourierNewPS-BoldMT;writing-mode:lr-tb;fill:#000000;fill-opacity:1;fill-rule:nonzero;stroke:none"
               id="text270"><tspan
                 x="0 6.470253 12.940506 19.410759 25.881012 32.351265 38.821518 45.291771"
                 y="0"
                 id="tspan268">handleM2</tspan></text></g></g></g></g></g></svg>
