<?xml version="1.0" encoding="UTF-8" standalone="no"?>
<svg
   xmlns:dc="http://purl.org/dc/elements/1.1/"
   xmlns:cc="http://creativecommons.org/ns#"
   xmlns:rdf="http://www.w3.org/1999/02/22-rdf-syntax-ns#"
   xmlns:svg="http://www.w3.org/2000/svg"
   xmlns="http://www.w3.org/2000/svg"
   version="1.1"
   id="svg2"
   xml:space="preserve"
   width="769.27997"
   height="577.27997"
   viewBox="0 0 769.27997 577.27997"><metadata
     id="metadata8"><rdf:RDF><cc:Work
         rdf:about=""><dc:format>image/svg+xml</dc:format><dc:type
           rdf:resource="http://purl.org/dc/dcmitype/StillImage" /><dc:title></dc:title></cc:Work></rdf:RDF></metadata><defs
     id="defs6"><clipPath
       clipPathUnits="userSpaceOnUse"
       id="clipPath18"><path
         d="M 0,0 H 2404.1665 V 1802.3763 H 0 Z"
         clip-rule="evenodd"
         id="path16" /></clipPath><clipPath
       clipPathUnits="userSpaceOnUse"
       id="clipPath30"><path
         d="M 0,0 H 2404.1665 V 1796.3884 H 0 Z"
         clip-rule="evenodd"
         id="path28" /></clipPath></defs><g
     id="g10"
     transform="matrix(0.31999998,0,0,0.31999998,0,1.7765333e-5)"><g
       id="g12"><g
         id="g14"
         clip-path="url(#clipPath18)"><g
           id="g20"
           transform="scale(2.9939806)"><path
             d="M 0,0 H 803 V 602 H 0 Z"
             style="fill:#ffffff;fill-opacity:1;fill-rule:nonzero;stroke:none"
             id="path22" /></g></g></g><g
       id="g24"><g
         id="g26"
         clip-path="url(#clipPath30)"><g
           id="g32"
           transform="matrix(2.9939806,0,0,2.9939806,1.4969903,1.4969903)"><path
             d="M 324,41 V 216.88"
             style="fill:none;stroke:#000000;stroke-width:1;stroke-linecap:butt;stroke-linejoin:miter;stroke-miterlimit:10;stroke-dasharray:none;stroke-opacity:1"
             id="path34" /><path
             d="m 324,229.88 -6.5,-13 h 13 z"
             style="fill:#000000;fill-opacity:1;fill-rule:nonzero;stroke:none"
             id="path36" /><path
             d="m 324,229.88 -6.5,-13 h 13 z"
             style="fill:none;stroke:#000000;stroke-width:1;stroke-linecap:butt;stroke-linejoin:miter;stroke-miterlimit:10;stroke-dasharray:none;stroke-opacity:1"
             id="path38" /><path
             d="m 180,1 h 188 c 0.39395,0 0.78412,0.038429 1.1705,0.1152884 0.38638,0.076859 0.76157,0.1906701 1.12555,0.3414342 0.36398,0.1507641 0.70975,0.3355839 1.03735,0.5544595 0.32755,0.2188756 0.63062,0.4676013 0.90921,0.7461769 0.27857,0.2785757 0.52729,0.5816486 0.74616,0.9092188 0.21887,0.3275702 0.40369,0.6733437 0.55444,1.0373206 0.15079,0.363977 0.26459,0.7391634 0.34146,1.1255589 C 373.96155,6.2158532 373.99997,6.6060343 374,7 v 28 c -3e-5,0.393963 -0.0385,0.784145 -0.11533,1.17054 -0.0769,0.386394 -0.19067,0.761577 -0.34146,1.125557 -0.15075,0.363975 -0.33557,0.709747 -0.55444,1.037319 -0.21887,0.327568 -0.46759,0.630642 -0.74616,0.909222 -0.27859,0.278572 -0.58166,0.527298 -0.90924,0.746173 -0.32757,0.218876 -0.67334,0.403698 -1.03732,0.554463 -0.36398,0.150761 -0.73917,0.264572 -1.12555,0.341431 C 368.78412,40.961567 368.39395,40.999996 368,41 H 180 c -0.39397,-4e-6 -0.78416,-0.03843 -1.17056,-0.115295 -0.3864,-0.07686 -0.7616,-0.19067 -1.12557,-0.341431 -0.364,-0.150765 -0.70978,-0.335587 -1.03734,-0.554463 -0.32756,-0.218875 -0.63063,-0.467601 -0.90919,-0.746173 -0.27858,-0.27858 -0.5273,-0.581654 -0.74617,-0.909222 -0.21889,-0.327572 -0.4037,-0.673344 -0.55447,-1.037319 -0.15076,-0.36398 -0.26456,-0.739163 -0.34142,-1.125557 C 174.03842,35.784145 173.99998,35.393963 174,35 V 7 c -2e-5,-0.3939657 0.0384,-0.7841468 0.11526,-1.1705427 0.0769,-0.3863955 0.19068,-0.7615819 0.34144,-1.1255589 0.15077,-0.3639769 0.33558,-0.7097501 0.55447,-1.0373203 0.21887,-0.3275705 0.46759,-0.6306434 0.74617,-0.9092191 0.27856,-0.2785756 0.58163,-0.5273013 0.90919,-0.7461769 0.32756,-0.2188756 0.67334,-0.4036954 1.03734,-0.5544595 0.36397,-0.1507641 0.73917,-0.2645755 1.12557,-0.3414343 C 179.21584,1.0384294 179.60603,1 180,1 Z"
             style="fill:#ffe6cc;fill-opacity:1;fill-rule:nonzero;stroke:none"
             id="path40" /><path
             d="m 180,1 h 188 c 0.39395,0 0.78412,0.038429 1.1705,0.1152884 0.38638,0.076859 0.76157,0.1906701 1.12555,0.3414342 0.36398,0.1507641 0.70975,0.3355839 1.03735,0.5544595 0.32755,0.2188756 0.63062,0.4676013 0.90921,0.7461769 0.27857,0.2785757 0.52729,0.5816486 0.74616,0.9092188 0.21887,0.3275702 0.40369,0.6733437 0.55444,1.0373206 0.15079,0.363977 0.26459,0.7391634 0.34146,1.1255589 C 373.96155,6.2158532 373.99997,6.6060343 374,7 v 28 c -3e-5,0.393963 -0.0385,0.784145 -0.11533,1.17054 -0.0769,0.386394 -0.19067,0.761577 -0.34146,1.125557 -0.15075,0.363975 -0.33557,0.709747 -0.55444,1.037319 -0.21887,0.327568 -0.46759,0.630642 -0.74616,0.909222 -0.27859,0.278572 -0.58166,0.527298 -0.90924,0.746173 -0.32757,0.218876 -0.67334,0.403698 -1.03732,0.554463 -0.36398,0.150761 -0.73917,0.264572 -1.12555,0.341431 C 368.78412,40.961567 368.39395,40.999996 368,41 H 180 c -0.39397,-4e-6 -0.78416,-0.03843 -1.17056,-0.115295 -0.3864,-0.07686 -0.7616,-0.19067 -1.12557,-0.341431 -0.364,-0.150765 -0.70978,-0.335587 -1.03734,-0.554463 -0.32756,-0.218875 -0.63063,-0.467601 -0.90919,-0.746173 -0.27858,-0.27858 -0.5273,-0.581654 -0.74617,-0.909222 -0.21889,-0.327572 -0.4037,-0.673344 -0.55447,-1.037319 -0.15076,-0.36398 -0.26456,-0.739163 -0.34142,-1.125557 C 174.03842,35.784145 173.99998,35.393963 174,35 V 7 c -2e-5,-0.3939657 0.0384,-0.7841468 0.11526,-1.1705427 0.0769,-0.3863955 0.19068,-0.7615819 0.34144,-1.1255589 0.15077,-0.3639769 0.33558,-0.7097501 0.55447,-1.0373203 0.21887,-0.3275705 0.46759,-0.6306434 0.74617,-0.9092191 0.27856,-0.2785756 0.58163,-0.5273013 0.90919,-0.7461769 0.32756,-0.2188756 0.67334,-0.4036954 1.03734,-0.5544595 0.36397,-0.1507641 0.73917,-0.2645755 1.12557,-0.3414343 C 179.21584,1.0384294 179.60603,1 180,1 Z"
             style="fill:none;stroke:#d79b00;stroke-width:1;stroke-linecap:butt;stroke-linejoin:miter;stroke-miterlimit:10;stroke-dasharray:none;stroke-opacity:1"
             id="path42" /></g><g
           id="g44"
           transform="scale(2.9939806)"><text
             transform="translate(228.92188,32)"
             style="font-variant:normal;font-weight:bold;font-size:25px;font-family:Tahoma;-inkscape-font-specification:Tahoma-Bold;writing-mode:lr-tb;fill:#000000;fill-opacity:1;fill-rule:nonzero;stroke:none"
             id="text48"><tspan
               x="0 15.734863 30.700684 46.704102 59.570312 74.414062"
               y="0"
               id="tspan46">paused</tspan></text></g><g
           id="g50"
           transform="matrix(2.9939806,0,0,2.9939806,1.4969903,1.4969903)"><path
             d="M 324,271 V 517.88"
             style="fill:none;stroke:#000000;stroke-width:1;stroke-linecap:butt;stroke-linejoin:miter;stroke-miterlimit:10;stroke-dasharray:none;stroke-opacity:1"
             id="path52" /><path
             d="m 324,530.88 -6.5,-13 h 13 z"
             style="fill:#000000;fill-opacity:1;fill-rule:nonzero;stroke:none"
             id="path54" /><path
             d="m 324,530.88 -6.5,-13 h 13 z"
             style="fill:none;stroke:#000000;stroke-width:1;stroke-linecap:butt;stroke-linejoin:miter;stroke-miterlimit:10;stroke-dasharray:none;stroke-opacity:1"
             id="path56" /><path
             d="m 374,261 h 327 v 67.88"
             style="fill:none;stroke:#000000;stroke-width:1;stroke-linecap:butt;stroke-linejoin:miter;stroke-miterlimit:10;stroke-dasharray:none;stroke-opacity:1"
             id="path58" /><path
             d="m 701,341.88 -6.5,-13 h 13 z"
             style="fill:#000000;fill-opacity:1;fill-rule:nonzero;stroke:none"
             id="path60" /><path
             d="m 701,341.88 -6.5,-13 h 13 z"
             style="fill:none;stroke:#000000;stroke-width:1;stroke-linecap:butt;stroke-linejoin:miter;stroke-miterlimit:10;stroke-dasharray:none;stroke-opacity:1"
             id="path62" /><path
             d="m 180,231 h 188 c 0.39395,0 0.78412,0.0384 1.1705,0.11528 0.38638,0.0769 0.76157,0.19067 1.12555,0.34143 0.36398,0.15077 0.70975,0.33559 1.03735,0.55446 0.32755,0.21887 0.63062,0.46761 0.90921,0.74618 0.27857,0.27858 0.52729,0.58165 0.74616,0.90921 0.21887,0.32757 0.40369,0.67334 0.55444,1.03731 0.15079,0.36399 0.26459,0.73918 0.34146,1.12558 0.0769,0.3864 0.1153,0.77658 0.11533,1.17055 v 28 c -3e-5,0.39395 -0.0385,0.78412 -0.11533,1.1705 -0.0769,0.38638 -0.19067,0.76157 -0.34146,1.12558 -0.15075,0.36398 -0.33557,0.70975 -0.55444,1.03732 -0.21887,0.32758 -0.46759,0.63065 -0.74616,0.90921 -0.27859,0.2786 -0.58166,0.52732 -0.90924,0.74616 -0.32757,0.21887 -0.67334,0.40369 -1.03732,0.55447 -0.36398,0.15079 -0.73917,0.26459 -1.12555,0.34143 -0.38638,0.0769 -0.77655,0.1153 -1.1705,0.11533 H 180 c -0.39397,-3e-5 -0.78416,-0.0385 -1.17056,-0.11533 -0.3864,-0.0768 -0.7616,-0.19064 -1.12557,-0.34143 -0.364,-0.15078 -0.70978,-0.3356 -1.03734,-0.55447 -0.32756,-0.21884 -0.63063,-0.46756 -0.90919,-0.74616 -0.27858,-0.27856 -0.5273,-0.58163 -0.74617,-0.90921 -0.21889,-0.32757 -0.4037,-0.67334 -0.55447,-1.03732 -0.15076,-0.36401 -0.26456,-0.7392 -0.34142,-1.12558 C 174.03842,265.78412 173.99998,265.39395 174,265 v -28 c -2e-5,-0.39397 0.0384,-0.78415 0.11526,-1.17055 0.0769,-0.3864 0.19068,-0.76159 0.34144,-1.12559 0.15077,-0.36397 0.33558,-0.70975 0.55447,-1.03731 0.21887,-0.32756 0.46759,-0.63062 0.74617,-0.9092 0.27856,-0.27857 0.58163,-0.52731 0.90919,-0.7462 0.32756,-0.21885 0.67334,-0.40367 1.03734,-0.55444 0.36397,-0.15076 0.73917,-0.26457 1.12557,-0.34143 C 179.21584,231.03842 179.60603,231 180,231 Z"
             style="fill:#d5e8d4;fill-opacity:1;fill-rule:nonzero;stroke:none"
             id="path64" /><path
             d="m 180,231 h 188 c 0.39395,0 0.78412,0.0384 1.1705,0.11528 0.38638,0.0769 0.76157,0.19067 1.12555,0.34143 0.36398,0.15077 0.70975,0.33559 1.03735,0.55446 0.32755,0.21887 0.63062,0.46761 0.90921,0.74618 0.27857,0.27858 0.52729,0.58165 0.74616,0.90921 0.21887,0.32757 0.40369,0.67334 0.55444,1.03731 0.15079,0.36399 0.26459,0.73918 0.34146,1.12558 0.0769,0.3864 0.1153,0.77658 0.11533,1.17055 v 28 c -3e-5,0.39395 -0.0385,0.78412 -0.11533,1.1705 -0.0769,0.38638 -0.19067,0.76157 -0.34146,1.12558 -0.15075,0.36398 -0.33557,0.70975 -0.55444,1.03732 -0.21887,0.32758 -0.46759,0.63065 -0.74616,0.90921 -0.27859,0.2786 -0.58166,0.52732 -0.90924,0.74616 -0.32757,0.21887 -0.67334,0.40369 -1.03732,0.55447 -0.36398,0.15079 -0.73917,0.26459 -1.12555,0.34143 -0.38638,0.0769 -0.77655,0.1153 -1.1705,0.11533 H 180 c -0.39397,-3e-5 -0.78416,-0.0385 -1.17056,-0.11533 -0.3864,-0.0768 -0.7616,-0.19064 -1.12557,-0.34143 -0.364,-0.15078 -0.70978,-0.3356 -1.03734,-0.55447 -0.32756,-0.21884 -0.63063,-0.46756 -0.90919,-0.74616 -0.27858,-0.27856 -0.5273,-0.58163 -0.74617,-0.90921 -0.21889,-0.32757 -0.4037,-0.67334 -0.55447,-1.03732 -0.15076,-0.36401 -0.26456,-0.7392 -0.34142,-1.12558 C 174.03842,265.78412 173.99998,265.39395 174,265 v -28 c -2e-5,-0.39397 0.0384,-0.78415 0.11526,-1.17055 0.0769,-0.3864 0.19068,-0.76159 0.34144,-1.12559 0.15077,-0.36397 0.33558,-0.70975 0.55447,-1.03731 0.21887,-0.32756 0.46759,-0.63062 0.74617,-0.9092 0.27856,-0.27857 0.58163,-0.52731 0.90919,-0.7462 0.32756,-0.21885 0.67334,-0.40367 1.03734,-0.55444 0.36397,-0.15076 0.73917,-0.26457 1.12557,-0.34143 C 179.21584,231.03842 179.60603,231 180,231 Z"
             style="fill:none;stroke:#82b366;stroke-width:1;stroke-linecap:butt;stroke-linejoin:miter;stroke-miterlimit:10;stroke-dasharray:none;stroke-opacity:1"
             id="path66" /></g><g
           id="g68"
           transform="scale(2.9939806)"><text
             transform="translate(224.4375,262)"
             style="font-variant:normal;font-weight:bold;font-size:25px;font-family:Tahoma;-inkscape-font-specification:Tahoma-Bold;writing-mode:lr-tb;fill:#000000;fill-opacity:1;fill-rule:nonzero;stroke:none"
             id="text72"><tspan
               x="0 22.241211 37.207031 44.750977 59.814453 67.358398 83.361816"
               y="0"
               id="tspan70">walking</tspan></text></g><g
           id="g74"
           transform="matrix(2.9939806,0,0,2.9939806,1.4969903,1.4969903)"><path
             d="M 224,532 V 285.12"
             style="fill:none;stroke:#000000;stroke-width:1;stroke-linecap:butt;stroke-linejoin:miter;stroke-miterlimit:10;stroke-dasharray:none;stroke-opacity:1"
             id="path76" /><path
             d="m 224,272.12 6.5,13 h -13 z"
             style="fill:#000000;fill-opacity:1;fill-rule:nonzero;stroke:none"
             id="path78" /><path
             d="m 224,272.12 6.5,13 h -13 z"
             style="fill:none;stroke:#000000;stroke-width:1;stroke-linecap:butt;stroke-linejoin:miter;stroke-miterlimit:10;stroke-dasharray:none;stroke-opacity:1"
             id="path80" /><path
             d="M 374,542 H 701 V 397.12"
             style="fill:none;stroke:#000000;stroke-width:1;stroke-linecap:butt;stroke-linejoin:miter;stroke-miterlimit:10;stroke-dasharray:none;stroke-opacity:1"
             id="path82" /><path
             d="m 701,384.12 6.5,13 h -13 z"
             style="fill:#000000;fill-opacity:1;fill-rule:nonzero;stroke:none"
             id="path84" /><path
             d="m 701,384.12 6.5,13 h -13 z"
             style="fill:none;stroke:#000000;stroke-width:1;stroke-linecap:butt;stroke-linejoin:miter;stroke-miterlimit:10;stroke-dasharray:none;stroke-opacity:1"
             id="path86" /><path
             d="M 174,552 H 14 V 21 h 145.88"
             style="fill:none;stroke:#000000;stroke-width:1;stroke-linecap:butt;stroke-linejoin:miter;stroke-miterlimit:10;stroke-dasharray:none;stroke-opacity:1"
             id="path88" /><path
             d="m 172.88,21 -13,6.5 v -13 z"
             style="fill:#000000;fill-opacity:1;fill-rule:nonzero;stroke:none"
             id="path90" /><path
             d="m 172.88,21 -13,6.5 v -13 z"
             style="fill:none;stroke:#000000;stroke-width:1;stroke-linecap:butt;stroke-linejoin:miter;stroke-miterlimit:10;stroke-dasharray:none;stroke-opacity:1"
             id="path92" /><path
             d="m 180,532 h 188 c 0.39395,0 0.78412,0.0384 1.1705,0.11523 0.38638,0.0769 0.76157,0.19068 1.12555,0.34144 0.36398,0.15081 0.70975,0.33563 1.03735,0.5545 0.32755,0.21881 0.63062,0.46753 0.90921,0.74615 0.27857,0.27851 0.52729,0.58155 0.74616,0.90912 0.21887,0.32758 0.40369,0.67334 0.55444,1.03736 0.15079,0.36395 0.26459,0.73913 0.34146,1.12561 0.0769,0.38641 0.1153,0.77661 0.11533,1.17059 v 28 c -3e-5,0.39392 -0.0385,0.78406 -0.11533,1.17047 -0.0769,0.38641 -0.19067,0.76166 -0.34146,1.12561 -0.15075,0.36395 -0.33557,0.70978 -0.55444,1.03736 -0.21887,0.32751 -0.46759,0.63055 -0.74616,0.90917 -0.27859,0.27857 -0.58166,0.52729 -0.90924,0.7461 -0.32757,0.21893 -0.67334,0.40375 -1.03732,0.55456 -0.36398,0.15076 -0.73917,0.26453 -1.12555,0.34137 C 368.78412,571.96155 368.39395,572 368,572 H 180 c -0.39397,0 -0.78416,-0.0385 -1.17056,-0.11536 -0.3864,-0.0768 -0.7616,-0.19061 -1.12557,-0.34137 -0.364,-0.15081 -0.70978,-0.33563 -1.03734,-0.5545 -0.32756,-0.21887 -0.63063,-0.46759 -0.90919,-0.74616 -0.27858,-0.27862 -0.5273,-0.58166 -0.74617,-0.90917 -0.21889,-0.32758 -0.4037,-0.67341 -0.55447,-1.03736 -0.15076,-0.36395 -0.26456,-0.7392 -0.34142,-1.12561 C 174.03842,566.78406 173.99998,566.39392 174,566 v -28 c -2e-5,-0.39398 0.0384,-0.78418 0.11526,-1.17059 0.0769,-0.38648 0.19068,-0.76166 0.34144,-1.12561 0.15077,-0.36402 0.33558,-0.70978 0.55447,-1.03736 0.21887,-0.32757 0.46759,-0.63061 0.74617,-0.90912 0.27856,-0.27862 0.58163,-0.52734 0.90919,-0.74615 0.32756,-0.21887 0.67334,-0.40369 1.03734,-0.5545 0.36397,-0.15076 0.73917,-0.26459 1.12557,-0.34144 C 179.21584,532.03839 179.60603,532 180,532 Z"
             style="fill:#e1d5e7;fill-opacity:1;fill-rule:nonzero;stroke:none"
             id="path94" /><path
             d="m 180,532 h 188 c 0.39395,0 0.78412,0.0384 1.1705,0.11523 0.38638,0.0769 0.76157,0.19068 1.12555,0.34144 0.36398,0.15081 0.70975,0.33563 1.03735,0.5545 0.32755,0.21881 0.63062,0.46753 0.90921,0.74615 0.27857,0.27851 0.52729,0.58155 0.74616,0.90912 0.21887,0.32758 0.40369,0.67334 0.55444,1.03736 0.15079,0.36395 0.26459,0.73913 0.34146,1.12561 0.0769,0.38641 0.1153,0.77661 0.11533,1.17059 v 28 c -3e-5,0.39392 -0.0385,0.78406 -0.11533,1.17047 -0.0769,0.38641 -0.19067,0.76166 -0.34146,1.12561 -0.15075,0.36395 -0.33557,0.70978 -0.55444,1.03736 -0.21887,0.32751 -0.46759,0.63055 -0.74616,0.90917 -0.27859,0.27857 -0.58166,0.52729 -0.90924,0.7461 -0.32757,0.21893 -0.67334,0.40375 -1.03732,0.55456 -0.36398,0.15076 -0.73917,0.26453 -1.12555,0.34137 C 368.78412,571.96155 368.39395,572 368,572 H 180 c -0.39397,0 -0.78416,-0.0385 -1.17056,-0.11536 -0.3864,-0.0768 -0.7616,-0.19061 -1.12557,-0.34137 -0.364,-0.15081 -0.70978,-0.33563 -1.03734,-0.5545 -0.32756,-0.21887 -0.63063,-0.46759 -0.90919,-0.74616 -0.27858,-0.27862 -0.5273,-0.58166 -0.74617,-0.90917 -0.21889,-0.32758 -0.4037,-0.67341 -0.55447,-1.03736 -0.15076,-0.36395 -0.26456,-0.7392 -0.34142,-1.12561 C 174.03842,566.78406 173.99998,566.39392 174,566 v -28 c -2e-5,-0.39398 0.0384,-0.78418 0.11526,-1.17059 0.0769,-0.38648 0.19068,-0.76166 0.34144,-1.12561 0.15077,-0.36402 0.33558,-0.70978 0.55447,-1.03736 0.21887,-0.32757 0.46759,-0.63061 0.74617,-0.90912 0.27856,-0.27862 0.58163,-0.52734 0.90919,-0.74615 0.32756,-0.21887 0.67334,-0.40369 1.03734,-0.5545 0.36397,-0.15076 0.73917,-0.26459 1.12557,-0.34144 C 179.21584,532.03839 179.60603,532 180,532 Z"
             style="fill:none;stroke:#9673a6;stroke-width:1;stroke-linecap:butt;stroke-linejoin:miter;stroke-miterlimit:10;stroke-dasharray:none;stroke-opacity:1"
             id="path96" /></g><g
           id="g98"
           transform="scale(2.9939806)"><text
             transform="translate(221.48438,563)"
             style="font-variant:normal;font-weight:bold;font-size:25px;font-family:Tahoma;-inkscape-font-specification:Tahoma-Bold;writing-mode:lr-tb;fill:#000000;fill-opacity:1;fill-rule:nonzero;stroke:none"
             id="text102"><tspan
               x="0 15.429688 31.225586 44.091797 54.47998 69.445801 82.629395 90.17334"
               y="0"
               id="tspan100">obstacle</tspan></text></g><g
           id="g104"
           transform="matrix(2.9939806,0,0,2.9939806,1.4969903,1.4969903)"><path
             d="M 751,343 V 241 H 388.12"
             style="fill:none;stroke:#000000;stroke-width:1;stroke-linecap:butt;stroke-linejoin:miter;stroke-miterlimit:10;stroke-dasharray:none;stroke-opacity:1"
             id="path106" /><path
             d="m 375.12,241 13,-6.5 v 13 z"
             style="fill:#000000;fill-opacity:1;fill-rule:nonzero;stroke:none"
             id="path108" /><path
             d="m 375.12,241 13,-6.5 v 13 z"
             style="fill:none;stroke:#000000;stroke-width:1;stroke-linecap:butt;stroke-linejoin:miter;stroke-miterlimit:10;stroke-dasharray:none;stroke-opacity:1"
             id="path110" /><path
             d="M 751,383 V 562 H 388.12"
             style="fill:none;stroke:#000000;stroke-width:1;stroke-linecap:butt;stroke-linejoin:miter;stroke-miterlimit:10;stroke-dasharray:none;stroke-opacity:1"
             id="path112" /><path
             d="m 375.12,562 13,-6.5 v 13 z"
             style="fill:#000000;fill-opacity:1;fill-rule:nonzero;stroke:none"
             id="path114" /><path
             d="m 375.12,562 13,-6.5 v 13 z"
             style="fill:none;stroke:#000000;stroke-width:1;stroke-linecap:butt;stroke-linejoin:miter;stroke-miterlimit:10;stroke-dasharray:none;stroke-opacity:1"
             id="path116" /><path
             d="m 607,343 h 188 c 0.39392,0 0.78406,0.0384 1.17047,0.11526 0.38641,0.0769 0.7616,0.19071 1.12555,0.34144 0.36395,0.15075 0.70972,0.33557 1.03729,0.55444 0.32758,0.21887 0.63068,0.46759 0.9093,0.74618 0.27857,0.27857 0.52729,0.58164 0.74616,0.90918 0.21887,0.32758 0.40369,0.67334 0.55444,1.03733 0.15076,0.36398 0.26459,0.73919 0.34149,1.12558 C 800.96155,348.21585 801,348.60605 801,349 v 28 c 0,0.39395 -0.0385,0.78409 -0.1153,1.17047 -0.0768,0.38641 -0.19067,0.7616 -0.34143,1.12558 -0.15081,0.36398 -0.33563,0.70975 -0.55444,1.03732 -0.21893,0.32758 -0.46765,0.63065 -0.74622,0.90924 -0.27862,0.27857 -0.58172,0.52729 -0.9093,0.74616 -0.32757,0.2189 -0.67334,0.40372 -1.03729,0.55447 -0.36395,0.15076 -0.73914,0.26456 -1.12555,0.34143 C 795.78406,382.96155 795.39392,383 795,383 H 607 c -0.39398,0 -0.78418,-0.0385 -1.17053,-0.11533 -0.38648,-0.0769 -0.76166,-0.19067 -1.12561,-0.34143 -0.36402,-0.15075 -0.70978,-0.33557 -1.03736,-0.55444 -0.32757,-0.2189 -0.63061,-0.46762 -0.90918,-0.74619 -0.27856,-0.27859 -0.52728,-0.58166 -0.74609,-0.90924 -0.21887,-0.32757 -0.40369,-0.67334 -0.5545,-1.03732 -0.15076,-0.36398 -0.26459,-0.73917 -0.34143,-1.12555 C 601.03839,377.78412 600.99994,377.39395 601,377 v -28 c -6e-5,-0.39395 0.0384,-0.78415 0.1153,-1.17056 0.0768,-0.38642 0.19067,-0.76163 0.34143,-1.12561 0.15081,-0.36399 0.33563,-0.70975 0.5545,-1.03733 0.21881,-0.32754 0.46753,-0.63061 0.74609,-0.90918 0.27857,-0.27859 0.58161,-0.52731 0.90918,-0.74618 0.32758,-0.21887 0.67334,-0.40369 1.03736,-0.55444 0.36395,-0.15073 0.73913,-0.26456 1.12561,-0.34144 C 606.21582,343.03842 606.60602,343 607,343 Z"
             style="fill:#f8cecc;fill-opacity:1;fill-rule:nonzero;stroke:none"
             id="path118" /><path
             d="m 607,343 h 188 c 0.39392,0 0.78406,0.0384 1.17047,0.11526 0.38641,0.0769 0.7616,0.19071 1.12555,0.34144 0.36395,0.15075 0.70972,0.33557 1.03729,0.55444 0.32758,0.21887 0.63068,0.46759 0.9093,0.74618 0.27857,0.27857 0.52729,0.58164 0.74616,0.90918 0.21887,0.32758 0.40369,0.67334 0.55444,1.03733 0.15076,0.36398 0.26459,0.73919 0.34149,1.12558 C 800.96155,348.21585 801,348.60605 801,349 v 28 c 0,0.39395 -0.0385,0.78409 -0.1153,1.17047 -0.0768,0.38641 -0.19067,0.7616 -0.34143,1.12558 -0.15081,0.36398 -0.33563,0.70975 -0.55444,1.03732 -0.21893,0.32758 -0.46765,0.63065 -0.74622,0.90924 -0.27862,0.27857 -0.58172,0.52729 -0.9093,0.74616 -0.32757,0.2189 -0.67334,0.40372 -1.03729,0.55447 -0.36395,0.15076 -0.73914,0.26456 -1.12555,0.34143 C 795.78406,382.96155 795.39392,383 795,383 H 607 c -0.39398,0 -0.78418,-0.0385 -1.17053,-0.11533 -0.38648,-0.0769 -0.76166,-0.19067 -1.12561,-0.34143 -0.36402,-0.15075 -0.70978,-0.33557 -1.03736,-0.55444 -0.32757,-0.2189 -0.63061,-0.46762 -0.90918,-0.74619 -0.27856,-0.27859 -0.52728,-0.58166 -0.74609,-0.90924 -0.21887,-0.32757 -0.40369,-0.67334 -0.5545,-1.03732 -0.15076,-0.36398 -0.26459,-0.73917 -0.34143,-1.12555 C 601.03839,377.78412 600.99994,377.39395 601,377 v -28 c -6e-5,-0.39395 0.0384,-0.78415 0.1153,-1.17056 0.0768,-0.38642 0.19067,-0.76163 0.34143,-1.12561 0.15081,-0.36399 0.33563,-0.70975 0.5545,-1.03733 0.21881,-0.32754 0.46753,-0.63061 0.74609,-0.90918 0.27857,-0.27859 0.58161,-0.52731 0.90918,-0.74618 0.32758,-0.21887 0.67334,-0.40369 1.03736,-0.55444 0.36395,-0.15073 0.73913,-0.26456 1.12561,-0.34144 C 606.21582,343.03842 606.60602,343 607,343 Z"
             style="fill:none;stroke:#b85450;stroke-width:1;stroke-linecap:butt;stroke-linejoin:miter;stroke-miterlimit:10;stroke-dasharray:none;stroke-opacity:1"
             id="path120" /></g><g
           id="g122"
           transform="scale(2.9939806)"><text
             transform="translate(661.25,374)"
             style="font-variant:normal;font-weight:bold;font-size:25px;font-family:Tahoma;-inkscape-font-specification:Tahoma-Bold;writing-mode:lr-tb;fill:#000000;fill-opacity:1;fill-rule:nonzero;stroke:none"
             id="text126"><tspan
               x="0 16.003418 30.969238 38.513184 48.901367 63.745117"
               y="0"
               id="tspan124">halted</tspan></text></g><g
           id="g128"
           transform="matrix(2.9939806,0,0,2.9939806,1.4969903,1.4969903)"><path
             d="m 174,251 h -70 v -50 h 120 v 15.88"
             style="fill:none;stroke:#000000;stroke-width:1;stroke-linecap:butt;stroke-linejoin:miter;stroke-miterlimit:10;stroke-dasharray:none;stroke-opacity:1"
             id="path130" /><path
             d="m 224,229.88 -6.5,-13 h 13 z"
             style="fill:#000000;fill-opacity:1;fill-rule:nonzero;stroke:none"
             id="path132" /><path
             d="m 224,229.88 -6.5,-13 h 13 z"
             style="fill:none;stroke:#000000;stroke-width:1;stroke-linecap:butt;stroke-linejoin:miter;stroke-miterlimit:10;stroke-dasharray:none;stroke-opacity:1"
             id="path134" /></g><g
           id="g136"
           transform="scale(2.9939806)"><text
             transform="translate(91.328125,174)"
             style="font-variant:normal;font-weight:bold;font-size:15px;font-family:Tahoma;-inkscape-font-specification:Tahoma-Bold;writing-mode:lr-tb;fill:#000099;fill-opacity:1;fill-rule:nonzero;stroke:none"
             id="text140"><tspan
               x="0 5.7348633 14.992676 21.496582 34.841309 43.820801 50.324707 59.765625 66.23291 75.13916 84.741211 94.182129 108.48633 117.74414 126.42334"
               y="0"
               id="tspan138">forward-endmove</tspan></text><text
             transform="translate(128.28125,192)"
             style="font-variant:normal;font-weight:bold;font-size:15px;font-family:Tahoma;-inkscape-font-specification:Tahoma-Bold;writing-mode:lr-tb;fill:#990000;fill-opacity:1;fill-rule:nonzero;stroke:none"
             id="text144"><tspan
               x="0 8.6572266 18.098145 27.355957 36.855469 43.088379 51.994629"
               y="0"
               id="tspan142">/doStep</tspan></text><text
             transform="translate(60.515625,345)"
             style="font-variant:normal;font-weight:bold;font-size:15px;font-family:Tahoma;-inkscape-font-specification:Tahoma-Bold;writing-mode:lr-tb;fill:#000099;fill-opacity:1;fill-rule:nonzero;stroke:none"
             id="text148"><tspan
               x="0 6.2329102 15.834961 22.338867 31.940918 40.524902 49.431152 55.166016 61.398926 67.866211 76.772461 86.374512 95.81543 110.11963 119.37744 128.05664"
               y="0"
               id="tspan146">turnLeft-endmove</tspan></text><text
             transform="translate(65.890625,363)"
             style="font-variant:normal;font-weight:bold;font-size:15px;font-family:Tahoma;-inkscape-font-specification:Tahoma-Bold;writing-mode:lr-tb;fill:#000000;fill-opacity:1;fill-rule:nonzero;stroke:none"
             id="text152"><tspan
               x="0 11.71875 23.4375 27.832031 35.551758 41.784668 50.690918 60.131836 71.689453 81.291504 95.595703 99.990234 112.26562 116.66016"
               y="0"
               id="tspan150">&amp;&amp; stepNum &lt; 4</tspan></text><text
             transform="translate(49.785156,381)"
             style="font-variant:normal;font-weight:bold;font-size:15px;font-family:Tahoma;-inkscape-font-specification:Tahoma-Bold;writing-mode:lr-tb;fill:#000000;fill-opacity:1;fill-rule:nonzero;stroke:none"
             id="text156"><tspan
               x="0 8.6572266 16.376953 22.609863 31.516113 40.957031 52.514648 62.116699 76.420898 88.696289 100.97168 105.65918"
               y="0"
               id="tspan154">/stepNum++, </tspan></text><text
             transform="translate(159.82813,381)"
             style="font-variant:normal;font-weight:bold;font-size:15px;font-family:Tahoma;-inkscape-font-specification:Tahoma-Bold;writing-mode:lr-tb;fill:#990000;fill-opacity:1;fill-rule:nonzero;stroke:none"
             id="text160"><tspan
               x="0 9.440918 18.69873 28.198242 34.431152 43.337402"
               y="0"
               id="tspan158">doStep</tspan></text><text
             transform="translate(331.9375,394)"
             style="font-variant:normal;font-weight:bold;font-size:15px;font-family:Tahoma;-inkscape-font-specification:Tahoma-Bold;writing-mode:lr-tb;fill:#000099;fill-opacity:1;fill-rule:nonzero;stroke:none"
             id="text164"><tspan
               x="0 5.1416016 11.953125 17.687988 26.945801 33.449707 46.794434 55.773926 62.277832 71.71875 78.186035 87.092285 96.694336 106.13525 120.43945 129.69727 138.37646 147.28271"
               y="0"
               id="tspan162">!(forward-endmove)</tspan></text><text
             transform="translate(373.96875,412)"
             style="font-variant:normal;font-weight:bold;font-size:15px;font-family:Tahoma;-inkscape-font-specification:Tahoma-Bold;writing-mode:lr-tb;fill:#990000;fill-opacity:1;fill-rule:nonzero;stroke:none"
             id="text168"><tspan
               x="0 8.6572266 14.890137 24.492188 30.996094 40.598145 49.182129 58.088379 63.823242"
               y="0"
               id="tspan166">/turnLeft</tspan></text><text
             transform="translate(394.51563,279)"
             style="font-variant:normal;font-weight:bold;font-size:15px;font-family:Tahoma;-inkscape-font-specification:Tahoma-Bold;writing-mode:lr-tb;fill:#000099;fill-opacity:1;fill-rule:nonzero;stroke:none"
             id="text172"><tspan
               x="0 9.4995117 18.684082 30.234375 40.092773 46.560059 53.063965 62.321777 71.799316 81.057129 87.290039 95.200195 109.50439"
               y="0"
               id="tspan170">STOP-robotcmd</tspan></text><text
             transform="translate(367.60938,297)"
             style="font-variant:normal;font-weight:bold;font-size:15px;font-family:Tahoma;-inkscape-font-specification:Tahoma-Bold;writing-mode:lr-tb;fill:#000000;fill-opacity:1;fill-rule:nonzero;stroke:none"
             id="text176"><tspan
               x="0 8.6572266 16.376953 25.356445 34.035645 42.941895 52.382812 61.882324 68.115234 77.094727 83.327637 92.233887 96.628418 108.90381 113.29834 126.64307 135.62256 140.14893 149.18701 153.71338 163.31543"
               y="0"
               id="tspan174">/savedState = walking</tspan></text></g><g
           id="g178"
           transform="matrix(2.9939806,0,0,2.9939806,1.4969903,1.4969903)"><path
             d="m 651,383 v 18 h -77 v -88 h 77 v 15.88"
             style="fill:none;stroke:#000000;stroke-width:1;stroke-linecap:butt;stroke-linejoin:miter;stroke-miterlimit:10;stroke-dasharray:none;stroke-opacity:1"
             id="path180" /><path
             d="m 651,341.88 -6.5,-13 h 13 z"
             style="fill:#000000;fill-opacity:1;fill-rule:nonzero;stroke:none"
             id="path182" /><path
             d="m 651,341.88 -6.5,-13 h 13 z"
             style="fill:none;stroke:#000000;stroke-width:1;stroke-linecap:butt;stroke-linejoin:miter;stroke-miterlimit:10;stroke-dasharray:none;stroke-opacity:1"
             id="path184" /></g><g
           id="g186"
           transform="scale(2.9939806)"><text
             transform="translate(566.96875,419)"
             style="font-variant:normal;font-weight:bold;font-size:15px;font-family:Tahoma;-inkscape-font-specification:Tahoma-Bold;writing-mode:lr-tb;fill:#000099;fill-opacity:1;fill-rule:nonzero;stroke:none"
             id="text190"><tspan
               x="0 8.4960938 14.963379 23.869629 33.47168 42.912598 57.216797 66.474609 75.153809"
               y="0"
               id="tspan188">?-endmove</tspan></text><text
             transform="translate(572.25,437)"
             style="font-variant:normal;font-weight:bold;font-size:15px;font-family:Tahoma;-inkscape-font-specification:Tahoma-Bold;writing-mode:lr-tb;fill:#990000;fill-opacity:1;fill-rule:nonzero;stroke:none"
             id="text194"><tspan
               x="0 8.6572266 16.376953 25.356445 34.035645 42.941895 56.337891 64.057617"
               y="0"
               id="tspan192">/saveMsg</tspan></text><text
             transform="translate(479,219)"
             style="font-variant:normal;font-weight:bold;font-size:15px;font-family:Tahoma;-inkscape-font-specification:Tahoma-Bold;writing-mode:lr-tb;fill:#000099;fill-opacity:1;fill-rule:nonzero;stroke:none"
             id="text198"><tspan
               x="0 10.891113 20.119629 29.619141 40.700684 54.09668 63.325195 69.79248 76.296387 85.554199 95.031738 104.28955 110.52246 118.43262 132.73682"
               y="0"
               id="tspan196">RESUME-robotcmd</tspan></text><text
             transform="translate(625.56641,219)"
             style="font-variant:normal;font-weight:bold;font-size:15px;font-family:Tahoma;-inkscape-font-specification:Tahoma-Bold;writing-mode:lr-tb;fill:#000000;fill-opacity:1;fill-rule:nonzero;stroke:none"
             id="text202"><tspan
               x="0 11.71875"
               y="0"
               id="tspan200">&amp;&amp;</tspan></text><text
             transform="translate(438.82813,237)"
             style="font-variant:normal;font-weight:bold;font-size:15px;font-family:Tahoma;-inkscape-font-specification:Tahoma-Bold;writing-mode:lr-tb;fill:#000000;fill-opacity:1;fill-rule:nonzero;stroke:none"
             id="text206"><tspan
               x="0 7.7197266 16.699219 25.378418 34.284668 43.725586 53.225098 59.458008 68.4375 74.67041 83.57666 87.971191 100.24658 112.52197 116.9165 122.65137 131.90918 138.41309 151.75781 160.7373 167.24121 176.68213 181.36963"
               y="0"
               id="tspan204">savedState == forward, </tspan></text><text
             transform="translate(624.57813,237)"
             style="font-variant:normal;font-weight:bold;font-size:15px;font-family:Tahoma;-inkscape-font-specification:Tahoma-Bold;writing-mode:lr-tb;fill:#990000;fill-opacity:1;fill-rule:nonzero;stroke:none"
             id="text210"><tspan
               x="0 8.6572266 15.161133 24.067383 31.787109 41.38916 55.693359"
               y="0"
               id="tspan208">/resume</tspan></text><text
             transform="translate(429.53125,511)"
             style="font-variant:normal;font-weight:bold;font-size:15px;font-family:Tahoma;-inkscape-font-specification:Tahoma-Bold;writing-mode:lr-tb;fill:#000099;fill-opacity:1;fill-rule:nonzero;stroke:none"
             id="text214"><tspan
               x="0 9.4995117 18.684082 30.234375 40.092773 46.560059 53.063965 62.321777 71.799316 81.057129 87.290039 95.200195 109.50439"
               y="0"
               id="tspan212">STOP-robotcmd</tspan></text><text
             transform="translate(400.84375,529)"
             style="font-variant:normal;font-weight:bold;font-size:15px;font-family:Tahoma;-inkscape-font-specification:Tahoma-Bold;writing-mode:lr-tb;fill:#000000;fill-opacity:1;fill-rule:nonzero;stroke:none"
             id="text218"><tspan
               x="0 8.6572266 16.376953 25.356445 34.035645 42.941895 52.382812 61.882324 68.115234 77.094727 83.327637 92.233887 96.628418 108.90381 113.29834 122.55615 132.03369 139.75342 145.98633 154.96582 162.87598 167.40234"
               y="0"
               id="tspan216">/savedState = obstacle</tspan></text><text
             transform="translate(487,579)"
             style="font-variant:normal;font-weight:bold;font-size:15px;font-family:Tahoma;-inkscape-font-specification:Tahoma-Bold;writing-mode:lr-tb;fill:#000099;fill-opacity:1;fill-rule:nonzero;stroke:none"
             id="text222"><tspan
               x="0 10.891113 20.119629 29.619141 40.700684 54.09668 63.325195 69.79248 76.296387 85.554199 95.031738 104.28955 110.52246 118.43262 132.73682"
               y="0"
               id="tspan220">RESUME-robotcmd</tspan></text><text
             transform="translate(633.56641,579)"
             style="font-variant:normal;font-weight:bold;font-size:15px;font-family:Tahoma;-inkscape-font-specification:Tahoma-Bold;writing-mode:lr-tb;fill:#000000;fill-opacity:1;fill-rule:nonzero;stroke:none"
             id="text226"><tspan
               x="0 11.71875"
               y="0"
               id="tspan224">&amp;&amp;</tspan></text><text
             transform="translate(447.54688,597)"
             style="font-variant:normal;font-weight:bold;font-size:15px;font-family:Tahoma;-inkscape-font-specification:Tahoma-Bold;writing-mode:lr-tb;fill:#000000;fill-opacity:1;fill-rule:nonzero;stroke:none"
             id="text230"><tspan
               x="0 7.7197266 16.699219 25.378418 34.284668 43.725586 53.225098 59.458008 68.4375 74.67041 83.57666 87.971191 100.24658 112.52197 116.9165 126.17432 135.65186 143.37158 149.60449 158.58398 166.49414 171.02051 179.92676"
               y="0"
               id="tspan228">savedState == obstacle </tspan></text><text
             transform="translate(631.85938,597)"
             style="font-variant:normal;font-weight:bold;font-size:15px;font-family:Tahoma;-inkscape-font-specification:Tahoma-Bold;writing-mode:lr-tb;fill:#990000;fill-opacity:1;fill-rule:nonzero;stroke:none"
             id="text234"><tspan
               x="0 8.6572266 15.161133 24.067383 31.787109 41.38916 55.693359"
               y="0"
               id="tspan232">/resume</tspan></text><text
             transform="translate(350.40625,124)"
             style="font-variant:normal;font-weight:bold;font-size:15px;font-family:Tahoma;-inkscape-font-specification:Tahoma-Bold;writing-mode:lr-tb;fill:#000099;fill-opacity:1;fill-rule:nonzero;stroke:none"
             id="text238"><tspan
               x="0 10.891113 20.119629 29.619141 40.700684 54.09668 63.325195 69.79248 76.296387 85.554199 95.031738 104.28955 110.52246 118.43262 132.73682"
               y="0"
               id="tspan236">RESUME-robotcmd</tspan></text><text
             transform="translate(337.04688,142)"
             style="font-variant:normal;font-weight:bold;font-size:15px;font-family:Tahoma;-inkscape-font-specification:Tahoma-Bold;writing-mode:lr-tb;fill:#000000;fill-opacity:1;fill-rule:nonzero;stroke:none"
             id="text242"><tspan
               x="0 8.6572266 16.376953 22.609863 31.516113 40.957031 52.514648 62.116699 76.420898 80.81543 93.09082 97.485352 107.03613"
               y="0"
               id="tspan240">/stepNum = 1,</tspan></text><text
             transform="translate(453.16016,142)"
             style="font-variant:normal;font-weight:bold;font-size:15px;font-family:Tahoma;-inkscape-font-specification:Tahoma-Bold;writing-mode:lr-tb;fill:#990000;fill-opacity:1;fill-rule:nonzero;stroke:none"
             id="text246"><tspan
               x="0 9.440918 18.69873 28.198242 34.431152 43.337402"
               y="0"
               id="tspan244">doStep</tspan></text><text
             transform="translate(26.609375,513)"
             style="font-variant:normal;font-weight:bold;font-size:15px;font-family:Tahoma;-inkscape-font-specification:Tahoma-Bold;writing-mode:lr-tb;fill:#000099;fill-opacity:1;fill-rule:nonzero;stroke:none"
             id="text250"><tspan
               x="0 6.2329102 15.834961 22.338867 31.940918 40.524902 49.431152 55.166016 61.398926 67.866211 76.772461 86.374512 95.81543 110.11963 119.37744 128.05664"
               y="0"
               id="tspan248">turnLeft-endmove</tspan></text><text
             transform="translate(167.95703,513)"
             style="font-variant:normal;font-weight:bold;font-size:15px;font-family:Tahoma;-inkscape-font-specification:Tahoma-Bold;writing-mode:lr-tb;fill:#000000;fill-opacity:1;fill-rule:nonzero;stroke:none"
             id="text254"><tspan
               x="0 11.71875"
               y="0"
               id="tspan252">&amp;&amp;</tspan></text><text
             transform="translate(53.671875,531)"
             style="font-variant:normal;font-weight:bold;font-size:15px;font-family:Tahoma;-inkscape-font-specification:Tahoma-Bold;writing-mode:lr-tb;fill:#000000;fill-opacity:1;fill-rule:nonzero;stroke:none"
             id="text258"><tspan
               x="0 7.7197266 13.952637 22.858887 32.299805 43.857422 53.459473 67.763672 72.158203 84.433594 96.708984 101.10352"
               y="0"
               id="tspan256">stepNum &gt;= 4</tspan></text><text
             transform="translate(55.484375,549)"
             style="font-variant:normal;font-weight:bold;font-size:15px;font-family:Tahoma;-inkscape-font-specification:Tahoma-Bold;writing-mode:lr-tb;fill:#000000;fill-opacity:1;fill-rule:nonzero;stroke:none"
             id="text262"><tspan
               x="0 8.6572266 16.376953 22.609863 31.516113 40.957031 52.514648 62.116699 76.420898 80.81543 93.09082 97.485352"
               y="0"
               id="tspan260">/stepNum = 0</tspan></text></g></g></g></g></svg>
